<svg preserveAspectRatio="none" width="100%" height="100%" overflow="visible" style="display: block;" viewBox="0 0 110.698 32.3488" fill="none" xmlns="http://www.w3.org/2000/svg">
<g id="Vector">
<path d="M9.56883 17.1493C6.69931 17.1493 4.48504 16.4602 2.92601 15.0819C1.37451 13.6961 0.598758 11.5383 0.598758 8.60856C0.598758 6.71814 0.956507 5.13275 1.672 3.85239C2.3875 2.56449 3.42685 1.60045 4.79006 0.960273C6.15328 0.320091 7.80268 0 9.73829 0C10.499 0 11.2145 0.0414237 11.8848 0.124271C12.5551 0.207117 13.2292 0.33892 13.907 0.519677V2.63228C12.6116 2.29336 11.2747 2.1239 9.89646 2.1239C7.69724 2.1239 6.04407 2.64357 4.93693 3.68293C3.83732 4.72228 3.28752 6.3491 3.28752 8.56337C3.28752 10.8379 3.82979 12.4835 4.91434 13.5003C6.00641 14.5171 7.60686 15.0254 9.7157 15.0254C10.4538 15.0254 11.158 14.9765 11.8283 14.8786C12.4986 14.7807 13.1915 14.6187 13.907 14.3928V16.5167C12.5589 16.9385 11.1128 17.1493 9.56883 17.1493Z" fill="#18427E"/>
<path d="M16.2057 16.9347V0.21465H18.7589V7.25288H28.2825V0.21465H30.8357V16.9347H28.2825V9.47846H18.7589V16.9347H16.2057Z" fill="#18427E"/>
<path d="M34.5091 16.9347V0.21465H37.0623V16.9347H34.5091Z" fill="#18427E"/>
<path d="M53.2039 0.21465H55.6215V16.9347H53.0231L43.1605 3.73942V16.9347H40.7429V0.21465H43.3413L53.2039 13.4099V0.21465Z" fill="#18427E"/>
<path d="M66.8238 17.1493C65.1443 17.1493 63.6832 16.8293 62.4405 16.1891C61.2053 15.5489 60.2488 14.5886 59.571 13.3083C58.9007 12.0279 58.5655 10.45 58.5655 8.57467C58.5655 6.69932 58.9044 5.12146 59.5823 3.84109C60.2676 2.56073 61.2279 1.60045 62.4631 0.960273C63.6982 0.320091 65.1518 0 66.8238 0C68.5109 0 69.972 0.320091 71.2072 0.960273C72.4424 1.60045 73.3951 2.56449 74.0654 3.85239C74.7433 5.13275 75.0822 6.70685 75.0822 8.57467C75.0822 10.4425 74.7395 12.0166 74.0541 13.297C73.3763 14.5773 72.4198 15.5414 71.1846 16.1891C69.9494 16.8293 68.4958 17.1493 66.8238 17.1493ZM66.8238 15.0593C68.6088 15.0593 69.9946 14.5359 70.9813 13.489C71.9679 12.4346 72.4612 10.8191 72.4612 8.64246C72.4612 6.41312 71.9641 4.76371 70.97 3.69423C69.9833 2.62475 68.6013 2.09001 66.8238 2.09001C65.0539 2.09001 63.6719 2.61722 62.6777 3.67163C61.6836 4.71852 61.1865 6.33027 61.1865 8.50689C61.1865 10.7513 61.6798 12.4045 62.6664 13.4664C63.6531 14.5284 65.0389 15.0593 66.8238 15.0593Z" fill="#18427E"/>
<path d="M85.5244 17.1493C83.8449 17.1493 82.3838 16.8293 81.1411 16.1891C79.9059 15.5489 78.9494 14.5886 78.2716 13.3083C77.6013 12.0279 77.2661 10.45 77.2661 8.57467C77.2661 6.69932 77.605 5.12146 78.2829 3.84109C78.9682 2.56073 79.9285 1.60045 81.1637 0.960273C82.3989 0.320091 83.8524 0 85.5244 0C87.2115 0 88.6726 0.320091 89.9078 0.960273C91.143 1.60045 92.0957 2.56449 92.766 3.85239C93.4439 5.13275 93.7828 6.70685 93.7828 8.57467C93.7828 10.4425 93.4401 12.0166 92.7547 13.297C92.0769 14.5773 91.1204 15.5414 89.8852 16.1891C88.65 16.8293 87.1964 17.1493 85.5244 17.1493ZM85.5244 15.0593C87.3094 15.0593 88.6952 14.5359 89.6819 13.489C90.6685 12.4346 91.1618 10.8191 91.1618 8.64246C91.1618 6.41312 90.6647 4.76371 89.6706 3.69423C88.6839 2.62475 87.3019 2.09001 85.5244 2.09001C83.7545 2.09001 82.3725 2.61722 81.3783 3.67163C80.3842 4.71852 79.8871 6.33027 79.8871 8.50689C79.8871 10.7513 80.3804 12.4045 81.367 13.4664C82.3537 14.5284 83.7395 15.0593 85.5244 15.0593Z" fill="#18427E"/>
<path d="M107.818 16.9347L101.932 9.47846H99.2655V16.9347H96.7123V0.21465H99.2655V7.25288H101.954L107.4 0.21465H110.19L103.92 8.31483L110.698 16.9347H107.818Z" fill="#18427E"/>
<path d="M1.87084 23.6092C2.56976 23.6092 3.16928 23.7357 3.66937 23.9887C4.16947 24.2418 4.55207 24.6063 4.81718 25.0823C5.08229 25.5583 5.21484 26.1247 5.21484 26.7814C5.21484 27.4322 5.08229 27.9955 4.81718 28.4715C4.55207 28.9415 4.16947 29.303 3.66937 29.5561C3.16928 29.8031 2.56976 29.9266 1.87084 29.9266H0V23.6092H1.87084ZM1.87084 29.4024C2.75052 29.4024 3.41932 29.1735 3.87724 28.7156C4.34118 28.2516 4.57316 27.6069 4.57316 26.7814C4.57316 25.95 4.34118 25.3022 3.87724 24.8383C3.41932 24.3683 2.75052 24.1334 1.87084 24.1334H0.63265V29.4024H1.87084Z" fill="var(--fill-0, #18427E)"/>
<path d="M7.46577 25.8686C7.60435 25.5613 7.81523 25.3233 8.09841 25.1546C8.38763 24.9859 8.7401 24.9016 9.15585 24.9016V25.5613H8.98413C8.52621 25.5613 8.15867 25.6849 7.88151 25.9319C7.60435 26.1789 7.46577 26.5917 7.46577 27.1701V29.9266H6.83312V24.992H7.46577V25.8686Z" fill="var(--fill-0, #18427E)"/>
<path d="M10.8758 24.061C10.7493 24.061 10.6408 24.0159 10.5504 23.9255C10.46 23.8351 10.4149 23.7236 10.4149 23.5911C10.4149 23.4585 10.46 23.3501 10.5504 23.2657C10.6408 23.1753 10.7493 23.1302 10.8758 23.1302C11.0023 23.1302 11.1108 23.1753 11.2012 23.2657C11.2915 23.3501 11.3367 23.4585 11.3367 23.5911C11.3367 23.7236 11.2915 23.8351 11.2012 23.9255C11.1108 24.0159 11.0023 24.061 10.8758 24.061ZM11.1921 24.992V29.9266H10.5595V24.992H11.1921Z" fill="var(--fill-0, #18427E)"/>
<path d="M14.83 29.312L16.493 24.992H17.1618L15.1825 29.9266H14.4685L12.4892 24.992H13.167L14.83 29.312Z" fill="var(--fill-0, #18427E)"/>
<path d="M18.7874 24.061C18.6609 24.061 18.5525 24.0159 18.4621 23.9255C18.3717 23.8351 18.3265 23.7236 18.3265 23.5911C18.3265 23.4585 18.3717 23.3501 18.4621 23.2657C18.5525 23.1753 18.6609 23.1302 18.7874 23.1302C18.914 23.1302 19.0224 23.1753 19.1128 23.2657C19.2032 23.3501 19.2484 23.4585 19.2484 23.5911C19.2484 23.7236 19.2032 23.8351 19.1128 23.9255C19.0224 24.0159 18.914 24.061 18.7874 24.061ZM19.1038 24.992V29.9266H18.4711V24.992H19.1038Z" fill="var(--fill-0, #18427E)"/>
<path d="M23.302 24.9016C23.8925 24.9016 24.3745 25.0853 24.7481 25.4529C25.1216 25.8144 25.3084 26.3416 25.3084 27.0345V29.9266H24.6848V27.1068C24.6848 26.5706 24.5492 26.1608 24.2781 25.8777C24.013 25.5945 23.6485 25.4529 23.1845 25.4529C22.7085 25.4529 22.3289 25.6035 22.0457 25.9048C21.7626 26.206 21.621 26.6489 21.621 27.2333V29.9266H20.9883V24.992H21.621V25.8325C21.7776 25.5312 22.0036 25.3022 22.2988 25.1456C22.594 24.9829 22.9284 24.9016 23.302 24.9016Z" fill="var(--fill-0, #18427E)"/>
<path d="M29.2291 24.9196C29.6931 24.9196 30.0968 25.0281 30.4402 25.245C30.7836 25.4619 31.0307 25.7361 31.1813 26.0675V24.992H31.814V30.0532C31.814 30.505 31.7145 30.9057 31.5157 31.2552C31.3229 31.6047 31.0518 31.8728 30.7023 32.0596C30.3528 32.2524 29.9552 32.3488 29.5093 32.3488C28.8767 32.3488 28.3495 32.1981 27.9277 31.8969C27.5119 31.5956 27.2529 31.1859 27.1504 30.6677H27.774C27.8825 31.0112 28.0874 31.2853 28.3886 31.4902C28.6959 31.695 29.0695 31.7975 29.5093 31.7975C29.8287 31.7975 30.1149 31.7282 30.3679 31.5896C30.621 31.457 30.8198 31.2582 30.9644 30.9931C31.109 30.728 31.1813 30.4147 31.1813 30.0532V28.833C31.0247 29.1705 30.7746 29.4506 30.4312 29.6736C30.0938 29.8905 29.6931 29.9989 29.2291 29.9989C28.7772 29.9989 28.3705 29.8935 28.009 29.6826C27.6535 29.4717 27.3734 29.1735 27.1685 28.7879C26.9697 28.4022 26.8703 27.9564 26.8703 27.4502C26.8703 26.9441 26.9697 26.5013 27.1685 26.1217C27.3734 25.7361 27.6535 25.4408 28.009 25.236C28.3705 25.0251 28.7772 24.9196 29.2291 24.9196ZM31.1813 27.4593C31.1813 27.0616 31.1 26.7122 30.9373 26.4109C30.7746 26.1096 30.5517 25.8777 30.2685 25.715C29.9913 25.5523 29.684 25.471 29.3466 25.471C28.9972 25.471 28.6839 25.5493 28.4067 25.7059C28.1295 25.8626 27.9096 26.0916 27.7469 26.3928C27.5903 26.6881 27.5119 27.0405 27.5119 27.4502C27.5119 27.8539 27.5903 28.2094 27.7469 28.5167C27.9096 28.818 28.1295 29.0499 28.4067 29.2126C28.6839 29.3693 28.9972 29.4476 29.3466 29.4476C29.684 29.4476 29.9913 29.3663 30.2685 29.2036C30.5517 29.0409 30.7746 28.8089 30.9373 28.5077C31.1 28.2064 31.1813 27.857 31.1813 27.4593Z" fill="var(--fill-0, #18427E)"/>
<path d="M38.5582 29.9899C38.1424 29.9899 37.7749 29.9176 37.4556 29.773C37.1423 29.6284 36.8952 29.4265 36.7145 29.1674C36.5337 28.9084 36.4373 28.6191 36.4252 28.2998H37.0941C37.1242 28.6071 37.2597 28.8782 37.5008 29.1132C37.7418 29.3422 38.0942 29.4567 38.5582 29.4567C38.986 29.4567 39.3234 29.3482 39.5704 29.1313C39.8235 28.9084 39.95 28.6282 39.95 28.2908C39.95 28.0196 39.8807 27.8027 39.7421 27.64C39.6036 27.4713 39.4318 27.3478 39.227 27.2695C39.0221 27.1851 38.7389 27.0948 38.3774 26.9984C37.9557 26.8839 37.6213 26.7724 37.3742 26.664C37.1272 26.5555 36.9163 26.3868 36.7416 26.1578C36.5668 25.9289 36.4795 25.6186 36.4795 25.2269C36.4795 24.9016 36.5638 24.6124 36.7325 24.3593C36.9012 24.1002 37.1392 23.8984 37.4465 23.7538C37.7538 23.6092 38.1063 23.5369 38.504 23.5369C39.0884 23.5369 39.5584 23.6815 39.9139 23.9707C40.2754 24.2539 40.4833 24.6214 40.5375 25.0733H39.8506C39.8084 24.8142 39.6668 24.5852 39.4258 24.3864C39.1848 24.1816 38.8594 24.0791 38.4497 24.0791C38.0701 24.0791 37.7538 24.1816 37.5008 24.3864C37.2477 24.5852 37.1212 24.8594 37.1212 25.2089C37.1212 25.474 37.1905 25.6879 37.329 25.8505C37.4676 26.0132 37.6393 26.1367 37.8442 26.2211C38.0551 26.3055 38.3383 26.3958 38.6938 26.4922C39.1035 26.6067 39.4349 26.7212 39.6879 26.8357C39.941 26.9441 40.1549 27.1128 40.3296 27.3418C40.5043 27.5708 40.5917 27.878 40.5917 28.2637C40.5917 28.5589 40.5134 28.8391 40.3567 29.1042C40.2001 29.3693 39.9681 29.5832 39.6608 29.7459C39.3535 29.9085 38.986 29.9899 38.5582 29.9899Z" fill="var(--fill-0, #18427E)"/>
<path d="M41.9769 27.4593C41.9769 26.9471 42.0793 26.5013 42.2842 26.1217C42.489 25.7361 42.7722 25.4408 43.1337 25.236C43.4953 25.0251 43.908 24.9196 44.3719 24.9196C44.9805 24.9196 45.4806 25.0703 45.8722 25.3715C46.2699 25.6728 46.526 26.0825 46.6404 26.6007H45.9626C45.8782 26.2452 45.6945 25.968 45.4113 25.7692C45.1341 25.5643 44.7877 25.4619 44.3719 25.4619C44.0405 25.4619 43.7423 25.5372 43.4772 25.6879C43.2121 25.8385 43.0012 26.0644 42.8445 26.3657C42.6939 26.6609 42.6186 27.0255 42.6186 27.4593C42.6186 27.8931 42.6939 28.2606 42.8445 28.5619C43.0012 28.8632 43.2121 29.0891 43.4772 29.2397C43.7423 29.3904 44.0405 29.4657 44.3719 29.4657C44.7877 29.4657 45.1341 29.3663 45.4113 29.1674C45.6945 28.9626 45.8782 28.6794 45.9626 28.3179H46.6404C46.526 28.824 46.2699 29.2307 45.8722 29.538C45.4745 29.8453 44.9744 29.9989 44.3719 29.9989C43.908 29.9989 43.4953 29.8965 43.1337 29.6916C42.7722 29.4808 42.489 29.1855 42.2842 28.8059C42.0793 28.4203 41.9769 27.9714 41.9769 27.4593Z" fill="var(--fill-0, #18427E)"/>
<path d="M50.6106 24.9016C50.9842 24.9016 51.3186 24.9799 51.6138 25.1366C51.9151 25.2932 52.15 25.5342 52.3187 25.8596C52.4935 26.1789 52.5808 26.5706 52.5808 27.0345V29.9266H51.9572V27.1068C51.9572 26.5706 51.8217 26.1608 51.5505 25.8777C51.2854 25.5945 50.9209 25.4529 50.457 25.4529C49.981 25.4529 49.6014 25.6035 49.3182 25.9048C49.035 26.206 48.8934 26.6489 48.8934 27.2333V29.9266H48.2608V23.2386H48.8934V25.8325C49.0501 25.5372 49.279 25.3083 49.5803 25.1456C49.8876 24.9829 50.231 24.9016 50.6106 24.9016Z" fill="var(--fill-0, #18427E)"/>
<path d="M56.592 29.9989C56.128 29.9989 55.7093 29.8965 55.3357 29.6916C54.9682 29.4808 54.6759 29.1855 54.459 28.8059C54.2481 28.4203 54.1427 27.9714 54.1427 27.4593C54.1427 26.9471 54.2512 26.5013 54.4681 26.1217C54.685 25.7361 54.9802 25.4408 55.3538 25.236C55.7273 25.0251 56.1461 24.9196 56.61 24.9196C57.074 24.9196 57.4927 25.0251 57.8663 25.236C58.2459 25.4408 58.5411 25.7361 58.752 26.1217C58.9689 26.5013 59.0774 26.9471 59.0774 27.4593C59.0774 27.9654 58.9689 28.4113 58.752 28.7969C58.5351 29.1825 58.2369 29.4808 57.8573 29.6916C57.4777 29.8965 57.0559 29.9989 56.592 29.9989ZM56.592 29.4476C56.9173 29.4476 57.2186 29.3753 57.4958 29.2307C57.7729 29.0801 57.9958 28.8571 58.1646 28.5619C58.3393 28.2606 58.4266 27.8931 58.4266 27.4593C58.4266 27.0255 58.3423 26.6609 58.1736 26.3657C58.0049 26.0644 57.782 25.8415 57.5048 25.6969C57.2276 25.5463 56.9264 25.471 56.601 25.471C56.2756 25.471 55.9744 25.5463 55.6972 25.6969C55.4201 25.8415 55.1971 26.0644 55.0284 26.3657C54.8657 26.6609 54.7844 27.0255 54.7844 27.4593C54.7844 27.8931 54.8657 28.2606 55.0284 28.5619C55.1971 28.8571 55.417 29.0801 55.6882 29.2307C55.9653 29.3753 56.2666 29.4476 56.592 29.4476Z" fill="var(--fill-0, #18427E)"/>
<path d="M62.8426 29.9989C62.3786 29.9989 61.9599 29.8965 61.5863 29.6916C61.2188 29.4808 60.9265 29.1855 60.7096 28.8059C60.4987 28.4203 60.3933 27.9714 60.3933 27.4593C60.3933 26.9471 60.5018 26.5013 60.7187 26.1217C60.9356 25.7361 61.2308 25.4408 61.6044 25.236C61.9779 25.0251 62.3967 24.9196 62.8606 24.9196C63.3246 24.9196 63.7433 25.0251 64.1169 25.236C64.4965 25.4408 64.7917 25.7361 65.0026 26.1217C65.2195 26.5013 65.328 26.9471 65.328 27.4593C65.328 27.9654 65.2195 28.4113 65.0026 28.7969C64.7857 29.1825 64.4874 29.4808 64.1079 29.6916C63.7283 29.8965 63.3065 29.9989 62.8426 29.9989ZM62.8426 29.4476C63.1679 29.4476 63.4692 29.3753 63.7463 29.2307C64.0235 29.0801 64.2464 28.8571 64.4151 28.5619C64.5899 28.2606 64.6772 27.8931 64.6772 27.4593C64.6772 27.0255 64.5929 26.6609 64.4242 26.3657C64.2555 26.0644 64.0325 25.8415 63.7554 25.6969C63.4782 25.5463 63.177 25.471 62.8516 25.471C62.5262 25.471 62.225 25.5463 61.9478 25.6969C61.6706 25.8415 61.4477 26.0644 61.279 26.3657C61.1163 26.6609 61.035 27.0255 61.035 27.4593C61.035 27.8931 61.1163 28.2606 61.279 28.5619C61.4477 28.8571 61.6676 29.0801 61.9388 29.2307C62.2159 29.3753 62.5172 29.4476 62.8426 29.4476Z" fill="var(--fill-0, #18427E)"/>
<path d="M67.5658 23.2386V29.9266H66.9331V23.2386H67.5658Z" fill="var(--fill-0, #18427E)"/>
<path d="M72.0931 26.7634C72.0931 26.1428 72.2286 25.5884 72.4998 25.1004C72.7709 24.6063 73.1415 24.2237 73.6114 23.9526C74.0814 23.6754 74.6056 23.5369 75.184 23.5369C75.889 23.5369 76.4915 23.7056 76.9916 24.043C77.4977 24.3744 77.8653 24.8443 78.0942 25.4529H77.3531C77.1724 25.0251 76.8952 24.6907 76.5216 24.4497C76.1541 24.2087 75.7082 24.0882 75.184 24.0882C74.7201 24.0882 74.3013 24.1966 73.9278 24.4135C73.5602 24.6304 73.271 24.9437 73.0601 25.3535C72.8493 25.7572 72.7438 26.2271 72.7438 26.7634C72.7438 27.2996 72.8493 27.7696 73.0601 28.1733C73.271 28.577 73.5602 28.8873 73.9278 29.1042C74.3013 29.3211 74.7201 29.4295 75.184 29.4295C75.7082 29.4295 76.1541 29.312 76.5216 29.0771C76.8952 28.8361 77.1724 28.5047 77.3531 28.0829H78.0942C77.8653 28.6854 77.4977 29.1524 76.9916 29.4838C76.4855 29.8152 75.883 29.9809 75.184 29.9809C74.6056 29.9809 74.0814 29.8453 73.6114 29.5741C73.1415 29.297 72.7709 28.9144 72.4998 28.4263C72.2286 27.9383 72.0931 27.384 72.0931 26.7634Z" fill="var(--fill-0, #18427E)"/>
<path d="M79.5176 27.4502C79.5176 26.9441 79.617 26.5013 79.8158 26.1217C80.0207 25.7361 80.3008 25.4408 80.6563 25.236C81.0178 25.0251 81.4245 24.9196 81.8764 24.9196C82.3464 24.9196 82.7501 25.0281 83.0875 25.245C83.4309 25.4619 83.678 25.7391 83.8286 26.0765V24.992H84.4613V29.9266H83.8286V28.833C83.6719 29.1705 83.4219 29.4506 83.0785 29.6736C82.7411 29.8905 82.3374 29.9989 81.8674 29.9989C81.4215 29.9989 81.0178 29.8935 80.6563 29.6826C80.3008 29.4717 80.0207 29.1735 79.8158 28.7879C79.617 28.4022 79.5176 27.9564 79.5176 27.4502ZM83.8286 27.4593C83.8286 27.0616 83.7473 26.7122 83.5846 26.4109C83.4219 26.1096 83.199 25.8777 82.9158 25.715C82.6386 25.5523 82.3313 25.471 81.9939 25.471C81.6445 25.471 81.3311 25.5493 81.054 25.7059C80.7768 25.8626 80.5569 26.0916 80.3942 26.3928C80.2376 26.6881 80.1592 27.0405 80.1592 27.4502C80.1592 27.8539 80.2376 28.2094 80.3942 28.5167C80.5569 28.818 80.7768 29.0499 81.054 29.2126C81.3311 29.3693 81.6445 29.4476 81.9939 29.4476C82.3313 29.4476 82.6386 29.3663 82.9158 29.2036C83.199 29.0409 83.4219 28.8089 83.5846 28.5077C83.7473 28.2064 83.8286 27.857 83.8286 27.4593Z" fill="var(--fill-0, #18427E)"/>
<path d="M86.9901 23.2386V29.9266H86.3574V23.2386H86.9901Z" fill="var(--fill-0, #18427E)"/>
<path d="M90.9443 24.9196C91.4082 24.9196 91.8119 25.0281 92.1554 25.245C92.4988 25.4619 92.7458 25.7361 92.8965 26.0675V24.992H93.5291V30.0532C93.5291 30.505 93.4297 30.9057 93.2309 31.2552C93.0381 31.6047 92.7669 31.8728 92.4175 32.0596C92.068 32.2524 91.6703 32.3488 91.2245 32.3488C90.5918 32.3488 90.0646 32.1981 89.6428 31.8969C89.2271 31.5956 88.968 31.1859 88.8656 30.6677H89.4892C89.5977 31.0112 89.8025 31.2853 90.1038 31.4902C90.4111 31.695 90.7846 31.7975 91.2245 31.7975C91.5438 31.7975 91.83 31.7282 92.0831 31.5896C92.3361 31.457 92.535 31.2582 92.6796 30.9931C92.8242 30.728 92.8965 30.4147 92.8965 30.0532V28.833C92.7398 29.1705 92.4898 29.4506 92.1463 29.6736C91.8089 29.8905 91.4082 29.9989 90.9443 29.9989C90.4924 29.9989 90.0857 29.8935 89.7242 29.6826C89.3687 29.4717 89.0885 29.1735 88.8837 28.7879C88.6848 28.4022 88.5854 27.9564 88.5854 27.4502C88.5854 26.9441 88.6848 26.5013 88.8837 26.1217C89.0885 25.7361 89.3687 25.4408 89.7242 25.236C90.0857 25.0251 90.4924 24.9196 90.9443 24.9196ZM92.8965 27.4593C92.8965 27.0616 92.8151 26.7122 92.6525 26.4109C92.4898 26.1096 92.2668 25.8777 91.9836 25.715C91.7065 25.5523 91.3992 25.471 91.0618 25.471C90.7123 25.471 90.399 25.5493 90.1218 25.7059C89.8447 25.8626 89.6248 26.0916 89.4621 26.3928C89.3054 26.6881 89.2271 27.0405 89.2271 27.4502C89.2271 27.8539 89.3054 28.2094 89.4621 28.5167C89.6248 28.818 89.8447 29.0499 90.1218 29.2126C90.399 29.3693 90.7123 29.4476 91.0618 29.4476C91.3992 29.4476 91.7065 29.3663 91.9836 29.2036C92.2668 29.0409 92.4898 28.8089 92.6525 28.5077C92.8151 28.2064 92.8965 27.857 92.8965 27.4593Z" fill="var(--fill-0, #18427E)"/>
<path d="M95.1361 27.4502C95.1361 26.9441 95.2355 26.5013 95.4344 26.1217C95.6392 25.7361 95.9194 25.4408 96.2749 25.236C96.6364 25.0251 97.0431 24.9196 97.495 24.9196C97.9649 24.9196 98.3686 25.0281 98.706 25.245C99.0495 25.4619 99.2965 25.7391 99.4472 26.0765V24.992H100.08V29.9266H99.4472V28.833C99.2905 29.1705 99.0405 29.4506 98.697 29.6736C98.3596 29.8905 97.9559 29.9989 97.4859 29.9989C97.0401 29.9989 96.6364 29.8935 96.2749 29.6826C95.9194 29.4717 95.6392 29.1735 95.4344 28.7879C95.2355 28.4022 95.1361 27.9564 95.1361 27.4502ZM99.4472 27.4593C99.4472 27.0616 99.3658 26.7122 99.2031 26.4109C99.0405 26.1096 98.8175 25.8777 98.5343 25.715C98.2572 25.5523 97.9499 25.471 97.6125 25.471C97.263 25.471 96.9497 25.5493 96.6725 25.7059C96.3954 25.8626 96.1754 26.0916 96.0128 26.3928C95.8561 26.6881 95.7778 27.0405 95.7778 27.4502C95.7778 27.8539 95.8561 28.2094 96.0128 28.5167C96.1754 28.818 96.3954 29.0499 96.6725 29.2126C96.9497 29.3693 97.263 29.4476 97.6125 29.4476C97.9499 29.4476 98.2572 29.3663 98.5343 29.2036C98.8175 29.0409 99.0405 28.8089 99.2031 28.5077C99.3658 28.2064 99.4472 27.857 99.4472 27.4593Z" fill="var(--fill-0, #18427E)"/>
<path d="M102.609 25.8686C102.747 25.5613 102.958 25.3233 103.241 25.1546C103.531 24.9859 103.883 24.9016 104.299 24.9016V25.5613H104.127C103.669 25.5613 103.302 25.6849 103.024 25.9319C102.747 26.1789 102.609 26.5917 102.609 27.1701V29.9266H101.976V24.992H102.609V25.8686Z" fill="var(--fill-0, #18427E)"/>
<path d="M109.769 24.992L106.841 32.2494H106.181L107.139 29.8995L105.115 24.992H105.811L107.492 29.2036L109.119 24.992H109.769Z" fill="var(--fill-0, #18427E)"/>
</g>
</svg>
