<svg preserveAspectRatio="none" width="100%" height="100%" overflow="visible" style="display: block;" viewBox="0 0 49.7607 63.2653" fill="none" xmlns="http://www.w3.org/2000/svg">
<g id="Group 1281">
<g id="Group 1280">
<path id="Subtract" d="M9.25982 12.6268C18.591 10.0994 28.3488 10.0811 37.8304 12.6262L38.923 12.9193V27.2672C35.6208 22.29 29.9674 19.0084 23.5468 19.0084C17.1261 19.0084 11.4727 22.29 8.17045 27.2672V12.9221L9.25982 12.6268Z" fill="url(#paint0_linear_0_51)"/>
<g id="Group 1278">
<path id="Union" d="M29.2208 38.5834C30.4501 38.6848 32.2847 39.2806 33.1926 40.853L36.3044 46.2433H36.597V44.9921C36.597 44.4469 36.9848 43.9745 37.5223 43.8828C38.8672 43.6534 39.6534 43.632 41.1361 43.9737C41.7035 44.1044 42.5546 44.5411 42.5546 45.6759C42.5546 46.8332 41.7035 47.0807 41.1361 47.0739H38.8665V47.9455C39.2448 47.9455 40.0013 48.1725 40.0013 49.0803C40.0013 50.2151 40.5687 56.4565 37.4481 59.2935V62.1305C37.4481 62.7572 36.94 63.2653 36.3133 63.2653H33.1926C32.5658 63.2653 32.0578 62.7572 32.0578 62.1305V60.1446H15.0358V62.1305C15.0358 62.7572 14.5277 63.2653 13.901 63.2653H10.7803C10.1536 63.2653 9.64549 62.7572 9.64549 62.1305V59.2935C6.5248 56.4565 7.0922 50.2151 7.0922 49.0803C7.0922 48.1725 7.84873 47.9455 8.22699 47.9455V47.0739H5.9574C5.39 47.0807 4.5389 46.8332 4.5389 45.6759C4.5389 44.5411 5.39 44.1044 5.9574 43.9737C7.44017 43.632 8.22638 43.6534 9.57124 43.8828C10.1087 43.9745 10.4966 44.4469 10.4966 44.9921V46.2433H10.7892L13.901 40.853C14.8088 39.2806 16.3597 38.6848 17.5891 38.5834H29.2208Z" fill="var(--fill-0, #18427E)"/>
<path id="Union_2" d="M19.8588 56.542H27.8021V54.8398H28.9369V57.9609H18.724V54.8398H19.8588V56.542ZM10.6176 49.6123L17.5629 50.7695C17.8501 50.8174 18.0014 51.1375 17.8558 51.3897L16.3549 53.9893C15.9151 54.5206 14.5822 55.3212 12.767 54.2734L10.0629 52.7119C9.80482 52.5629 9.64588 52.2873 9.64588 51.9893V50.4346C9.64608 49.9192 10.1091 49.5276 10.6176 49.6123ZM37.0443 49.6123C37.5527 49.5277 38.0149 49.9192 38.015 50.4346V51.9893C38.015 52.2873 37.8562 52.5629 37.598 52.7119L34.8949 54.2725C33.0792 55.3207 31.7457 54.5206 31.306 53.9893L29.8051 51.3897C29.6595 51.1375 29.8108 50.8174 30.098 50.7695L37.0443 49.6123ZM29.5043 40.002C30.866 40.002 31.8095 41.0054 32.1107 41.5068L34.5336 45.7031C34.6941 45.9812 34.4934 46.3291 34.1722 46.3291H13.4887C13.1678 46.3288 12.968 45.9821 13.1283 45.7041L15.5512 41.5068C15.8523 41.0054 16.795 40.0021 18.1566 40.002H29.5043Z" fill="var(--fill-0, white)"/>
</g>
<g id="Subtract_2">
<path d="M23.5468 22.4125C31.851 22.4125 38.5829 29.1444 38.5829 37.4486C38.5829 39.1654 38.2938 40.8145 37.7639 42.3513L37.2741 42.4289C36.8311 42.5045 36.4348 42.6889 36.1066 42.9497L36.0141 42.7901C36.7174 41.1508 37.1078 39.3454 37.1078 37.4486C37.1078 29.9592 31.0362 23.8875 23.5468 23.8875C16.0573 23.8875 9.98573 29.9592 9.98573 37.4486C9.98573 39.3451 10.3754 41.1505 11.0784 42.7896L10.9864 42.9497C10.6875 42.7123 10.3326 42.5378 9.93697 42.4516L9.8195 42.4289L9.32912 42.3513C8.7993 40.8146 8.51071 39.1653 8.51071 37.4486C8.51071 29.1444 15.2426 22.4125 23.5468 22.4125Z" fill="var(--fill-0, black)"/>
<path d="M23.5468 22.4125C31.851 22.4125 38.5829 29.1444 38.5829 37.4486C38.5829 39.1654 38.2938 40.8145 37.7639 42.3513L37.2741 42.4289C36.8311 42.5045 36.4348 42.6889 36.1066 42.9497L36.0141 42.7901C36.7174 41.1508 37.1078 39.3454 37.1078 37.4486C37.1078 29.9592 31.0362 23.8875 23.5468 23.8875C16.0573 23.8875 9.98573 29.9592 9.98573 37.4486C9.98573 39.3451 10.3754 41.1505 11.0784 42.7896L10.9864 42.9497C10.6875 42.7123 10.3326 42.5378 9.93697 42.4516L9.8195 42.4289L9.32912 42.3513C8.7993 40.8146 8.51071 39.1653 8.51071 37.4486C8.51071 29.1444 15.2426 22.4125 23.5468 22.4125Z" fill="url(#paint1_radial_0_51)"/>
<path d="M23.5468 17.8733C34.3579 17.8733 43.1221 26.6375 43.1221 37.4486C43.1221 39.3298 42.8555 41.1487 42.3602 42.8705C42.0391 42.6998 41.7257 42.5959 41.4675 42.5364C41.2887 42.4952 41.1178 42.4588 40.9533 42.4267C41.4048 40.845 41.647 39.1751 41.647 37.4486C41.647 27.4522 33.5432 19.3484 23.5468 19.3484C13.5504 19.3484 5.44653 27.4522 5.44653 37.4486C5.44653 39.1751 5.68826 40.8451 6.13971 42.4267C5.97543 42.4588 5.80468 42.4952 5.62606 42.5364C5.36774 42.5959 5.05409 42.6997 4.73285 42.8705C4.23756 41.1487 3.97152 39.3297 3.97152 37.4486C3.97152 26.6375 12.7357 17.8733 23.5468 17.8733Z" fill="var(--fill-0, black)"/>
<path d="M23.5468 17.8733C34.3579 17.8733 43.1221 26.6375 43.1221 37.4486C43.1221 39.3298 42.8555 41.1487 42.3602 42.8705C42.0391 42.6998 41.7257 42.5959 41.4675 42.5364C41.2887 42.4952 41.1178 42.4588 40.9533 42.4267C41.4048 40.845 41.647 39.1751 41.647 37.4486C41.647 27.4522 33.5432 19.3484 23.5468 19.3484C13.5504 19.3484 5.44653 27.4522 5.44653 37.4486C5.44653 39.1751 5.68826 40.8451 6.13971 42.4267C5.97543 42.4588 5.80468 42.4952 5.62606 42.5364C5.36774 42.5959 5.05409 42.6997 4.73285 42.8705C4.23756 41.1487 3.97152 39.3297 3.97152 37.4486C3.97152 26.6375 12.7357 17.8733 23.5468 17.8733Z" fill="url(#paint2_radial_0_51)"/>
<path d="M23.5468 26.3843C29.6574 26.3843 34.6111 31.338 34.6111 37.4486C34.6111 38.2907 34.5161 39.1106 34.3379 39.8988C33.9815 39.3436 33.5469 38.8917 33.0751 38.5252C33.1146 38.1718 33.1361 37.8126 33.1361 37.4486C33.1361 32.1527 28.8427 27.8593 23.5468 27.8593C18.2509 27.8593 13.9575 32.1527 13.9575 37.4486C13.9575 37.7964 13.9763 38.1399 14.0124 38.4781C13.5487 38.855 13.1188 39.3228 12.7546 39.8983C12.5765 39.1103 12.4825 38.2904 12.4825 37.4486C12.4825 31.338 17.4362 26.3843 23.5468 26.3843Z" fill="var(--fill-0, black)"/>
<path d="M23.5468 26.3843C29.6574 26.3843 34.6111 31.338 34.6111 37.4486C34.6111 38.2907 34.5161 39.1106 34.3379 39.8988C33.9815 39.3436 33.5469 38.8917 33.0751 38.5252C33.1146 38.1718 33.1361 37.8126 33.1361 37.4486C33.1361 32.1527 28.8427 27.8593 23.5468 27.8593C18.2509 27.8593 13.9575 32.1527 13.9575 37.4486C13.9575 37.7964 13.9763 38.1399 14.0124 38.4781C13.5487 38.855 13.1188 39.3228 12.7546 39.8983C12.5765 39.1103 12.4825 38.2904 12.4825 37.4486C12.4825 31.338 17.4362 26.3843 23.5468 26.3843Z" fill="url(#paint3_radial_0_51)"/>
<path d="M23.5468 30.3561C27.4287 30.3561 30.5813 33.4748 30.6376 37.3433C30.1652 37.2166 29.7209 37.1446 29.3421 37.1134L29.2817 37.1084H29.1532C28.9773 34.1645 26.5349 31.8311 23.5468 31.8311C20.5587 31.8311 18.1163 34.1645 17.9404 37.1084H17.5281L17.4677 37.1134C17.1478 37.1398 16.8068 37.1941 16.456 37.2802C16.5454 33.4409 19.686 30.3561 23.5468 30.3561Z" fill="var(--fill-0, black)"/>
<path d="M23.5468 30.3561C27.4287 30.3561 30.5813 33.4748 30.6376 37.3433C30.1652 37.2166 29.7209 37.1446 29.3421 37.1134L29.2817 37.1084H29.1532C28.9773 34.1645 26.5349 31.8311 23.5468 31.8311C20.5587 31.8311 18.1163 34.1645 17.9404 37.1084H17.5281L17.4677 37.1134C17.1478 37.1398 16.8068 37.1941 16.456 37.2802C16.5454 33.4409 19.686 30.3561 23.5468 30.3561Z" fill="url(#paint4_radial_0_51)"/>
<path d="M23.5468 33.7605C25.4689 33.7605 27.0471 35.231 27.2188 37.1084H25.7338C25.5701 36.0478 24.6532 35.2355 23.5468 35.2355C22.4404 35.2355 21.5234 36.0478 21.3598 37.1084H19.8748C20.0465 35.231 21.6246 33.7605 23.5468 33.7605Z" fill="var(--fill-0, black)"/>
<path d="M23.5468 33.7605C25.4689 33.7605 27.0471 35.231 27.2188 37.1084H25.7338C25.5701 36.0478 24.6532 35.2355 23.5468 35.2355C22.4404 35.2355 21.5234 36.0478 21.3598 37.1084H19.8748C20.0465 35.231 21.6246 33.7605 23.5468 33.7605Z" fill="url(#paint5_radial_0_51)"/>
</g>
</g>
<g id="Union_3">
<path d="M47.6611 12.1992H47.6689V27.9209C48.1989 28.188 48.5615 28.7308 48.5615 29.3574C48.5615 29.9293 48.2594 30.4313 47.8037 30.7178L49.7607 36.0303H44.0869L46.0439 30.7178C45.5884 30.4313 45.2861 29.9292 45.2861 29.3574C45.2861 28.7306 45.6495 28.1879 46.1797 27.9209V12.8867L40.3984 15.5703V11.7871L38.2129 11.2012C28.481 8.58885 18.4579 8.60726 8.87402 11.2031L6.69531 11.793V15.3076L0 12.1992L23.8311 0L47.6611 12.1992Z" fill="var(--fill-0, #D9D9D9)"/>
<path d="M47.6611 12.1992H47.6689V27.9209C48.1989 28.188 48.5615 28.7308 48.5615 29.3574C48.5615 29.9293 48.2594 30.4313 47.8037 30.7178L49.7607 36.0303H44.0869L46.0439 30.7178C45.5884 30.4313 45.2861 29.9292 45.2861 29.3574C45.2861 28.7306 45.6495 28.1879 46.1797 27.9209V12.8867L40.3984 15.5703V11.7871L38.2129 11.2012C28.481 8.58885 18.4579 8.60726 8.87402 11.2031L6.69531 11.793V15.3076L0 12.1992L23.8311 0L47.6611 12.1992Z" fill="url(#paint6_linear_0_51)"/>
</g>
</g>
<defs>
<linearGradient id="paint0_linear_0_51" x1="23.5467" y1="12.1993" x2="23.5467" y2="22.4125" gradientUnits="userSpaceOnUse">
<stop stop-color="#84D9FD"/>
<stop offset="1" stop-color="#007EC4"/>
</linearGradient>
<radialGradient id="paint1_radial_0_51" cx="0" cy="0" r="1" gradientUnits="userSpaceOnUse" gradientTransform="translate(23.5468 37.4486) rotate(90) scale(19.5753 19.5753)">
<stop stop-color="#007EC4"/>
<stop offset="1" stop-color="#84D9FD"/>
</radialGradient>
<radialGradient id="paint2_radial_0_51" cx="0" cy="0" r="1" gradientUnits="userSpaceOnUse" gradientTransform="translate(23.5468 37.4486) rotate(90) scale(19.5753 19.5753)">
<stop stop-color="#007EC4"/>
<stop offset="1" stop-color="#84D9FD"/>
</radialGradient>
<radialGradient id="paint3_radial_0_51" cx="0" cy="0" r="1" gradientUnits="userSpaceOnUse" gradientTransform="translate(23.5468 37.4486) rotate(90) scale(19.5753 19.5753)">
<stop stop-color="#007EC4"/>
<stop offset="1" stop-color="#84D9FD"/>
</radialGradient>
<radialGradient id="paint4_radial_0_51" cx="0" cy="0" r="1" gradientUnits="userSpaceOnUse" gradientTransform="translate(23.5468 37.4486) rotate(90) scale(19.5753 19.5753)">
<stop stop-color="#007EC4"/>
<stop offset="1" stop-color="#84D9FD"/>
</radialGradient>
<radialGradient id="paint5_radial_0_51" cx="0" cy="0" r="1" gradientUnits="userSpaceOnUse" gradientTransform="translate(23.5468 37.4486) rotate(90) scale(19.5753 19.5753)">
<stop stop-color="#007EC4"/>
<stop offset="1" stop-color="#84D9FD"/>
</radialGradient>
<linearGradient id="paint6_linear_0_51" x1="46.5261" y1="-8.22739" x2="46.5261" y2="33.7607" gradientUnits="userSpaceOnUse">
<stop stop-color="#7BD7FF"/>
<stop offset="1" stop-color="#007EC4"/>
</linearGradient>
</defs>
</svg>
