<svg preserveAspectRatio="none" width="100%" height="100%" overflow="visible" style="display: block;" viewBox="0 0 44 44" fill="none" xmlns="http://www.w3.org/2000/svg">
<g id="instagram">
<rect width="44" height="44" rx="22" fill="var(--fill-0, #F1F5F9)"/>
<path id="Vector" fill-rule="evenodd" clip-rule="evenodd" d="M20.9993 13.0066C20.9388 13.0104 20.7045 13.0232 20.4787 13.035C19.5843 13.0817 17.8227 13.2394 17.338 13.3162C15.3677 13.6284 13.7508 15.1633 13.3435 17.1081C13.2531 17.5401 13.1157 18.9775 13.026 20.4309C12.9913 20.994 12.9913 23.0125 13.0261 23.5736C13.1187 25.0655 13.2517 26.4576 13.3435 26.8964C13.7507 28.8407 15.3682 30.3762 17.338 30.6883C17.7833 30.7588 19.33 30.8999 20.4687 30.9738C21.0058 31.0087 22.9952 31.0087 23.5323 30.9738C24.671 30.8999 26.2177 30.7588 26.663 30.6883C28.4633 30.4031 29.9713 29.1052 30.5373 27.3537C30.6722 26.9364 30.7215 26.6254 30.8193 25.5753C30.9737 23.9174 31 23.3963 31 22.0023C31 20.7756 30.9883 20.4661 30.8998 19.35C30.8106 18.2263 30.7281 17.4616 30.6594 17.1212C30.2676 15.1818 28.6367 13.6289 26.663 13.3162C26.247 13.2503 24.7831 13.1143 23.7225 13.043C23.2889 13.0138 21.303 12.9873 20.9993 13.0066ZM21.1795 14.4376C19.9629 14.4816 17.9393 14.6586 17.4008 14.7681C16.17 15.0183 15.1587 15.9603 14.8028 17.188C14.7345 17.4237 14.7037 17.6242 14.6431 18.2291C14.4068 20.5879 14.3666 22.1402 14.4932 24.014C14.5479 24.8237 14.6706 26.1334 14.7219 26.4563C14.8881 27.501 15.6006 28.462 16.567 28.945C16.9959 29.1593 17.3214 29.2458 17.9758 29.3193C20.3785 29.5892 22.0966 29.6394 24.0729 29.4977C25.1377 29.4213 26.3492 29.2946 26.6459 29.2286C27.8606 28.9585 28.8478 28.0255 29.1982 26.8165C29.2671 26.579 29.2981 26.3765 29.3576 25.7754C29.6264 23.0622 29.6452 21.5027 29.4381 19.0898C29.385 18.4711 29.3093 17.7364 29.2792 17.5482C29.1131 16.5095 28.4051 15.5492 27.4496 15.0667C26.9957 14.8375 26.6412 14.7481 25.865 14.6671C23.8483 14.4568 22.4898 14.3902 21.1795 14.4376ZM26.3924 16.4595C26.1711 16.4964 25.9838 16.5989 25.8243 16.7704C25.7078 16.8955 25.6588 16.9772 25.6032 17.1381C25.5442 17.3092 25.5389 17.6305 25.5922 17.8087C25.6978 18.1617 25.9902 18.4358 26.3401 18.5099C27.1504 18.6816 27.7893 18.0428 27.6176 17.2328C27.5037 16.6952 26.9759 16.362 26.3924 16.4595ZM21.6601 18.4002C20.7108 18.4599 19.9834 18.7526 19.3999 19.3099C18.8538 19.8314 18.5401 20.4889 18.426 21.3517C18.3836 21.6723 18.3836 22.3322 18.426 22.6528C18.5401 23.5156 18.8538 24.1731 19.3999 24.6946C20.0545 25.3198 20.878 25.6094 22.0005 25.6094C22.4598 25.6094 22.7924 25.5715 23.1737 25.4757C24.1857 25.2213 24.9605 24.5489 25.3424 23.5936C25.6518 22.8197 25.7035 21.6991 25.4713 20.8015C25.2606 19.9875 24.7509 19.302 24.0429 18.8806C23.4336 18.518 22.5667 18.3432 21.6601 18.4002ZM21.6801 19.8325C20.7204 19.9486 20.2082 20.3122 19.9597 21.0536C19.8638 21.3397 19.831 21.581 19.8308 22.0023C19.8304 22.5725 19.923 22.9812 20.1302 23.3248C20.4031 23.7774 20.8436 24.0439 21.4899 24.1475C21.7268 24.1855 22.346 24.1791 22.5812 24.1362C22.9622 24.0668 23.2604 23.9422 23.4972 23.7536C23.7554 23.5479 23.926 23.2956 24.0422 22.9475C24.1422 22.6478 24.1709 22.4373 24.1709 22.0023C24.1709 21.468 24.1 21.1123 23.9243 20.7643C23.7897 20.4977 23.4966 20.2069 23.2267 20.0722C23.0717 19.9949 22.7964 19.9075 22.5912 19.8706C22.4182 19.8394 21.8271 19.8147 21.6801 19.8325Z" fill="var(--fill-0, #324158)"/>
</g>
</svg>
