<svg preserveAspectRatio="none" width="100%" height="100%" overflow="visible" style="display: block;" viewBox="0 0 44 44" fill="none" xmlns="http://www.w3.org/2000/svg">
<g id="facebook">
<rect width="44" height="44" rx="22" fill="var(--fill-0, #F1F5F9)"/>
<g transform="translate(1.2 1.2) scale(0.9455)">
<path fill-rule="evenodd" clip-rule="evenodd" d="M23.494 13.6058C22.6774 13.6729 21.9163 13.968 21.235 14.4818C21.036 14.6319 20.6112 15.0616 20.4563 15.2696C20.0424 15.8254 19.7842 16.4188 19.6581 17.1039C19.6186 17.3188 19.6163 17.3799 19.6069 18.4629L19.597 19.5969L19.363 19.6099C18.7513 19.6437 17.5484 19.739 17.446 19.7617C17.348 19.7835 17.174 19.84 17.1181 19.8683C16.9982 19.9288 16.7991 20.0933 16.7179 20.1987C16.5616 20.4018 16.4747 20.6526 16.4026 21.1089C16.3042 21.7315 16.3042 22.2684 16.4026 22.8909C16.4743 23.3446 16.5618 23.5982 16.7152 23.7976C16.7949 23.9012 17.0031 24.0739 17.1181 24.1317C17.1741 24.1599 17.3484 24.2165 17.446 24.2381C17.5484 24.2609 18.7513 24.3561 19.363 24.39L19.597 24.4029L19.606 26.9229C19.6161 29.7436 19.6024 29.4682 19.7462 29.7489C19.8438 29.9395 20.0891 30.1769 20.29 30.2752C20.5623 30.4084 20.5569 30.408 22.045 30.402L23.359 30.3967L23.485 30.3547C23.694 30.2851 23.8318 30.1979 23.9983 30.0298C24.1743 29.852 24.267 29.6941 24.3225 29.477C24.357 29.3422 24.358 29.2676 24.358 26.8769V24.4156L24.4795 24.4051C24.5463 24.3993 24.6901 24.3899 24.799 24.3842C25.3867 24.3533 26.4987 24.263 26.6536 24.2336C27.0367 24.1608 27.4117 23.8524 27.5426 23.5026C27.6558 23.1999 27.76 22.4855 27.76 22.0113C27.76 21.5175 27.6577 20.8049 27.5426 20.4973C27.4117 20.1475 27.0367 19.8391 26.6536 19.7663C26.4987 19.7369 25.3867 19.6466 24.799 19.6157C24.6901 19.61 24.5454 19.6004 24.4775 19.5946L24.3539 19.5839L24.3616 19.2214C24.3684 18.8947 24.3732 18.8499 24.4096 18.7672C24.4568 18.6601 24.5673 18.5465 24.682 18.487C24.7615 18.4457 24.7759 18.4447 25.447 18.4341C26.1996 18.4222 26.2188 18.4197 26.455 18.3022C26.795 18.1331 27.0481 17.8038 27.1212 17.4353C27.1463 17.3089 27.1492 17.1495 27.1432 16.2293C27.1373 15.3168 27.1321 15.1514 27.1062 15.0429C26.9404 14.3489 26.4284 13.8262 25.735 13.6433C25.5975 13.607 25.5458 13.6052 24.583 13.6022C24.0286 13.6005 23.5385 13.6021 23.494 13.6058ZM23.359 14.9249C22.65 15.0532 22.0841 15.3654 21.6279 15.8799C21.333 16.2125 21.1271 16.5901 21.0003 17.031C20.8993 17.3822 20.8975 17.4122 20.8858 18.9579L20.875 20.3889L20.8247 20.4914C20.7591 20.625 20.6102 20.7613 20.4745 20.8121C20.3861 20.8452 20.2984 20.8544 19.8671 20.8761C18.7286 20.9335 17.7551 21.0117 17.7329 21.0477C17.7137 21.0787 17.6672 21.3382 17.6445 21.5409C17.6211 21.7493 17.6211 22.2506 17.6445 22.4589C17.6672 22.6613 17.7137 22.9212 17.7328 22.9521C17.7548 22.9876 18.7679 23.069 19.867 23.1234C20.3015 23.1449 20.3852 23.1537 20.4744 23.1874C20.6103 23.2387 20.7593 23.3753 20.8247 23.5085L20.875 23.6109L20.8797 26.3604L20.8844 29.1099H21.982H23.0795L23.0843 26.3604L23.089 23.6109L23.134 23.5225C23.1995 23.3939 23.3141 23.2749 23.4283 23.2171C23.5469 23.1571 23.6352 23.1479 24.493 23.106C25.1325 23.0747 26.0286 23.0113 26.2782 22.9797L26.3535 22.9701L26.3801 22.8495C26.4386 22.584 26.455 22.3979 26.455 21.9999C26.455 21.6019 26.4386 21.4158 26.3801 21.1504L26.3535 21.0298L26.2782 21.0199C26.0296 20.9873 24.9214 20.9105 24.313 20.8838C23.6648 20.8552 23.5441 20.8414 23.4265 20.7819C23.314 20.7249 23.1991 20.6054 23.134 20.4774L23.089 20.3889V19.5339C23.089 18.7656 23.0923 18.6671 23.1214 18.5619C23.3013 17.9129 23.7292 17.4435 24.3261 17.2405C24.5624 17.1601 24.7631 17.1402 25.3351 17.14L25.8532 17.1399L25.8481 16.2084L25.843 15.2769L25.79 15.1812C25.7307 15.0743 25.6543 15.0001 25.541 14.9395C25.4651 14.899 25.4639 14.8989 24.502 14.8956C23.6417 14.8926 23.5198 14.8958 23.359 14.9249Z" fill="var(--fill-0, #324158)"/>
</g>
</g>
</svg>
