<svg preserveAspectRatio="none" width="100%" height="100%" overflow="visible" style="display: block;" viewBox="0 0 64.6895 82.2449" fill="none" xmlns="http://www.w3.org/2000/svg">
<g id="Group 1281">
<g id="Group 1280">
<path id="Subtract" d="M12.0378 16.4148C24.1683 13.1292 36.8535 13.1054 49.1795 16.4141L50.6 16.7951V35.4474C46.307 28.977 38.9576 24.7109 30.6108 24.7109C22.264 24.7109 14.9145 28.977 10.6216 35.4474V16.7987L12.0378 16.4148Z" fill="url(#paint0_linear_0_43)"/>
<g id="Group 1278">
<path id="Union" d="M37.987 50.1584C39.5852 50.2902 41.9701 51.0647 43.1503 53.1089L47.1957 60.1163H47.5761V58.4898C47.5761 57.7809 48.0803 57.1668 48.779 57.0477C50.5273 56.7495 51.5494 56.7216 53.477 57.1658C54.2146 57.3358 55.3211 57.9034 55.3211 59.3787C55.3211 60.8831 54.2146 61.2049 53.477 61.1961H50.5265V62.3291C51.0183 62.3291 52.0018 62.6242 52.0018 63.8044C52.0018 65.2796 52.7394 73.3934 48.6825 77.0815V80.7696C48.6825 81.5844 48.022 82.2449 47.2072 82.2449H43.1503C42.3356 82.2448 41.6751 81.5844 41.6751 80.7696V78.1879H19.5465V80.7696C19.5465 81.5844 18.886 82.2448 18.0713 82.2449H14.0144C13.1996 82.2449 12.5391 81.5844 12.5391 80.7696V77.0815C8.48223 73.3934 9.21985 65.2796 9.21985 63.8044C9.21985 62.6242 10.2033 62.3291 10.6951 62.3291V61.1961H7.74461C7.00699 61.2049 5.90056 60.8831 5.90056 59.3787C5.90056 57.9034 7.00699 57.3358 7.74461 57.1658C9.67222 56.7216 10.6943 56.7495 12.4426 57.0477C13.1414 57.1668 13.6456 57.7809 13.6456 58.4898V60.1163H14.0259L18.0713 53.1089C19.2515 51.0647 21.2676 50.2902 22.8658 50.1584H37.987Z" fill="var(--fill-0, #005DBE)"/>
<path id="Union_2" d="M25.817 73.5055H36.1432V71.2926H37.6187V75.3492H24.3414V71.2926H25.817V73.5055ZM13.5113 64.4469L23.0103 66.0299C23.2975 66.0777 23.4486 66.3979 23.3033 66.65L21.2613 70.1861C20.6896 70.8769 18.9564 71.9179 16.5963 70.5553L12.9557 68.4527C12.6978 68.3037 12.5397 68.0289 12.5396 67.7311V65.2701C12.5396 64.7546 13.0028 64.3621 13.5113 64.4469ZM48.4488 64.4469C48.9573 64.3622 49.4205 64.7546 49.4205 65.2701V67.7311C49.4204 68.029 49.2616 68.3037 49.0035 68.4527L45.3629 70.5543C43.0026 71.917 41.2694 70.8769 40.6978 70.1861L38.6568 66.65C38.5113 66.3978 38.6626 66.0778 38.9498 66.0299L48.4488 64.4469ZM38.356 52.0025C40.1262 52.0026 41.3522 53.3067 41.7437 53.9586L45.0016 59.6021C45.162 59.8801 44.962 60.2278 44.6412 60.2281H17.3189C16.9979 60.228 16.7971 59.8802 16.9576 59.6021L20.2164 53.9586C20.608 53.3067 21.8338 52.0025 23.6041 52.0025H38.356Z" fill="var(--fill-0, white)"/>
</g>
<g id="Subtract_2">
<path d="M30.6108 29.1363C41.4063 29.1363 50.1577 37.8877 50.1577 48.6832C50.1577 50.915 49.7819 53.0589 49.0931 55.0567L48.4563 55.1575C47.8804 55.2558 47.3653 55.4955 46.9386 55.8346L46.8183 55.6272C47.7326 53.4961 48.2402 51.149 48.2402 48.6832C48.2402 38.9469 40.3471 31.0538 30.6108 31.0538C20.8745 31.0538 12.9814 38.9469 12.9814 48.6832C12.9814 51.1486 13.488 53.4957 14.4019 55.6265L14.2824 55.8346C13.8938 55.526 13.4324 55.2992 12.918 55.1871L12.7653 55.1575L12.1278 55.0567C11.4391 53.0589 11.0639 50.9149 11.0639 48.6832C11.0639 37.8877 19.8154 29.1363 30.6108 29.1363Z" fill="var(--fill-0, #020617)"/>
<path d="M30.6108 29.1363C41.4063 29.1363 50.1577 37.8877 50.1577 48.6832C50.1577 50.915 49.7819 53.0589 49.0931 55.0567L48.4563 55.1575C47.8804 55.2558 47.3653 55.4955 46.9386 55.8346L46.8183 55.6272C47.7326 53.4961 48.2402 51.149 48.2402 48.6832C48.2402 38.9469 40.3471 31.0538 30.6108 31.0538C20.8745 31.0538 12.9814 38.9469 12.9814 48.6832C12.9814 51.1486 13.488 53.4957 14.4019 55.6265L14.2824 55.8346C13.8938 55.526 13.4324 55.2992 12.918 55.1871L12.7653 55.1575L12.1278 55.0567C11.4391 53.0589 11.0639 50.9149 11.0639 48.6832C11.0639 37.8877 19.8154 29.1363 30.6108 29.1363Z" fill="url(#paint1_radial_0_43)"/>
<path d="M30.6108 23.2353C44.6653 23.2353 56.0587 34.6287 56.0587 48.6832C56.0587 51.1287 55.7122 53.4932 55.0682 55.7316C54.6508 55.5098 54.2435 55.3746 53.9078 55.2973C53.6753 55.2437 53.4531 55.1965 53.2393 55.1546C53.8262 53.0986 54.1412 50.9277 54.1412 48.6832C54.1412 35.6879 43.6061 25.1529 30.6108 25.1529C17.6155 25.1529 7.08048 35.6879 7.08048 48.6832C7.08048 50.9276 7.39473 53.0986 7.98162 55.1546C7.76805 55.1964 7.54607 55.2438 7.31387 55.2973C6.97805 55.3747 6.57031 55.5096 6.1527 55.7316C5.50881 53.4933 5.16296 51.1287 5.16296 48.6832C5.16296 34.6287 16.5564 23.2353 30.6108 23.2353Z" fill="var(--fill-0, #020617)"/>
<path d="M30.6108 23.2353C44.6653 23.2353 56.0587 34.6287 56.0587 48.6832C56.0587 51.1287 55.7122 53.4932 55.0682 55.7316C54.6508 55.5098 54.2435 55.3746 53.9078 55.2973C53.6753 55.2437 53.4531 55.1965 53.2393 55.1546C53.8262 53.0986 54.1412 50.9277 54.1412 48.6832C54.1412 35.6879 43.6061 25.1529 30.6108 25.1529C17.6155 25.1529 7.08048 35.6879 7.08048 48.6832C7.08048 50.9276 7.39473 53.0986 7.98162 55.1546C7.76805 55.1964 7.54607 55.2438 7.31387 55.2973C6.97805 55.3747 6.57031 55.5096 6.1527 55.7316C5.50881 53.4933 5.16296 51.1287 5.16296 48.6832C5.16296 34.6287 16.5564 23.2353 30.6108 23.2353Z" fill="url(#paint2_radial_0_43)"/>
<path d="M30.6108 34.2996C38.5547 34.2996 44.9944 40.7394 44.9944 48.6832C44.9944 49.7779 44.871 50.8438 44.6393 51.8685C44.176 51.1467 43.6109 50.5592 42.9976 50.0828C43.049 49.6233 43.0769 49.1564 43.0769 48.6832C43.0769 41.7985 37.4955 36.2171 30.6108 36.2171C23.7262 36.2171 18.1448 41.7985 18.1448 48.6832C18.1448 49.1354 18.1691 49.5819 18.2161 50.0216C17.6133 50.5115 17.0544 51.1197 16.5809 51.8678C16.3494 50.8434 16.2273 49.7776 16.2273 48.6832C16.2273 40.7394 22.667 34.2996 30.6108 34.2996Z" fill="var(--fill-0, #020617)"/>
<path d="M30.6108 34.2996C38.5547 34.2996 44.9944 40.7394 44.9944 48.6832C44.9944 49.7779 44.871 50.8438 44.6393 51.8685C44.176 51.1467 43.6109 50.5592 42.9976 50.0828C43.049 49.6233 43.0769 49.1564 43.0769 48.6832C43.0769 41.7985 37.4955 36.2171 30.6108 36.2171C23.7262 36.2171 18.1448 41.7985 18.1448 48.6832C18.1448 49.1354 18.1691 49.5819 18.2161 50.0216C17.6133 50.5115 17.0544 51.1197 16.5809 51.8678C16.3494 50.8434 16.2273 49.7776 16.2273 48.6832C16.2273 40.7394 22.667 34.2996 30.6108 34.2996Z" fill="url(#paint3_radial_0_43)"/>
<path d="M30.6108 39.463C35.6573 39.463 39.7557 43.5172 39.8289 48.5463C39.2148 48.3816 38.6372 48.288 38.1448 48.2474L38.0663 48.2409H37.8991C37.6704 44.4138 34.4953 41.3805 30.6108 41.3805C26.7263 41.3805 23.5512 44.4138 23.3225 48.2409H22.7866L22.7081 48.2474C22.2921 48.2817 21.8488 48.3524 21.3927 48.4642C21.5091 43.4732 25.5918 39.463 30.6108 39.463Z" fill="var(--fill-0, #020617)"/>
<path d="M30.6108 39.463C35.6573 39.463 39.7557 43.5172 39.8289 48.5463C39.2148 48.3816 38.6372 48.288 38.1448 48.2474L38.0663 48.2409H37.8991C37.6704 44.4138 34.4953 41.3805 30.6108 41.3805C26.7263 41.3805 23.5512 44.4138 23.3225 48.2409H22.7866L22.7081 48.2474C22.2921 48.2817 21.8488 48.3524 21.3927 48.4642C21.5091 43.4732 25.5918 39.463 30.6108 39.463Z" fill="url(#paint4_radial_0_43)"/>
<path d="M30.6108 43.8887C33.1096 43.8887 35.1612 45.8003 35.3845 48.2409H33.454C33.2412 46.8621 32.0492 45.8062 30.6108 45.8062C29.1725 45.8062 27.9805 46.8621 27.7677 48.2409H25.8372C26.0604 45.8003 28.112 43.8887 30.6108 43.8887Z" fill="var(--fill-0, #020617)"/>
<path d="M30.6108 43.8887C33.1096 43.8887 35.1612 45.8003 35.3845 48.2409H33.454C33.2412 46.8621 32.0492 45.8062 30.6108 45.8062C29.1725 45.8062 27.9805 46.8621 27.7677 48.2409H25.8372C26.0604 45.8003 28.112 43.8887 30.6108 43.8887Z" fill="url(#paint5_radial_0_43)"/>
</g>
</g>
<g id="Union_3">
<path d="M61.96 15.8584L61.958 15.8594H61.9688V36.2969C62.658 36.644 63.1309 37.3502 63.1309 38.165C63.1307 38.9084 62.7369 39.5603 62.1445 39.9326L64.6895 46.8389H57.3135L59.8574 39.9326C59.2653 39.5603 58.8722 38.9082 58.8721 38.165C58.8721 37.3503 59.344 36.6441 60.0332 36.2969V16.752L52.5176 20.2422V15.3232L49.6768 14.5615C37.0254 11.1655 23.9961 11.1889 11.5371 14.5635L8.7041 15.3311V19.8994L0 15.8584L30.9795 0L61.96 15.8584Z" fill="var(--fill-0, #D9D9D9)"/>
<path d="M61.96 15.8584L61.958 15.8594H61.9688V36.2969C62.658 36.644 63.1309 37.3502 63.1309 38.165C63.1307 38.9084 62.7369 39.5603 62.1445 39.9326L64.6895 46.8389H57.3135L59.8574 39.9326C59.2653 39.5603 58.8722 38.9082 58.8721 38.165C58.8721 37.3503 59.344 36.6441 60.0332 36.2969V16.752L52.5176 20.2422V15.3232L49.6768 14.5615C37.0254 11.1655 23.9961 11.1889 11.5371 14.5635L8.7041 15.3311V19.8994L0 15.8584L30.9795 0L61.96 15.8584Z" fill="url(#paint6_linear_0_43)"/>
</g>
</g>
<defs>
<linearGradient id="paint0_linear_0_43" x1="30.6108" y1="15.8591" x2="30.6108" y2="29.1362" gradientUnits="userSpaceOnUse">
<stop stop-color="#84D9FD"/>
<stop offset="1" stop-color="#007EC4"/>
</linearGradient>
<radialGradient id="paint1_radial_0_43" cx="0" cy="0" r="1" gradientUnits="userSpaceOnUse" gradientTransform="translate(30.6108 48.6832) rotate(90) scale(25.4479 25.4479)">
<stop stop-color="#007EC4"/>
<stop offset="1" stop-color="#84D9FD"/>
</radialGradient>
<radialGradient id="paint2_radial_0_43" cx="0" cy="0" r="1" gradientUnits="userSpaceOnUse" gradientTransform="translate(30.6108 48.6832) rotate(90) scale(25.4479 25.4479)">
<stop stop-color="#007EC4"/>
<stop offset="1" stop-color="#84D9FD"/>
</radialGradient>
<radialGradient id="paint3_radial_0_43" cx="0" cy="0" r="1" gradientUnits="userSpaceOnUse" gradientTransform="translate(30.6108 48.6832) rotate(90) scale(25.4479 25.4479)">
<stop stop-color="#007EC4"/>
<stop offset="1" stop-color="#84D9FD"/>
</radialGradient>
<radialGradient id="paint4_radial_0_43" cx="0" cy="0" r="1" gradientUnits="userSpaceOnUse" gradientTransform="translate(30.6108 48.6832) rotate(90) scale(25.4479 25.4479)">
<stop stop-color="#007EC4"/>
<stop offset="1" stop-color="#84D9FD"/>
</radialGradient>
<radialGradient id="paint5_radial_0_43" cx="0" cy="0" r="1" gradientUnits="userSpaceOnUse" gradientTransform="translate(30.6108 48.6832) rotate(90) scale(25.4479 25.4479)">
<stop stop-color="#007EC4"/>
<stop offset="1" stop-color="#84D9FD"/>
</radialGradient>
<linearGradient id="paint6_linear_0_43" x1="60.4844" y1="-10.6955" x2="60.4844" y2="43.8884" gradientUnits="userSpaceOnUse">
<stop stop-color="#7BD7FF"/>
<stop offset="1" stop-color="#007EC4"/>
</linearGradient>
</defs>
</svg>
