<svg preserveAspectRatio="none" width="100%" height="100%" overflow="visible" style="display: block;" viewBox="0 0 144 41.1482" fill="none" xmlns="http://www.w3.org/2000/svg">
<g id="Group 1276">
<path id="Subtract" fill-rule="evenodd" clip-rule="evenodd" d="M34.569 5.96493e-05C38.2025 6.43541e-05 41.1481 2.94575 41.1481 6.5793V34.569C41.1481 38.2025 38.2025 41.1482 34.569 41.1482H6.57915C2.9456 41.1482 3.05176e-05 38.2025 3.05176e-05 34.569V6.5793C3.05176e-05 2.94575 2.9456 6.73144e-05 6.57915 5.96493e-05H34.569ZM20.5745 1.37156C9.96927 1.37156 1.37202 9.96872 1.372 20.5739C1.372 31.1791 9.96926 39.7764 20.5745 39.7764C31.1797 39.7764 39.7768 31.1791 39.7768 20.5739C39.7768 9.96873 31.1796 1.37158 20.5745 1.37156Z" fill="var(--fill-0, #4254D4)"/>
<g id="Vector">
<path d="M139.737 28.069C138.456 28.7234 137.05 29.0506 135.516 29.0506C133.983 29.0506 132.576 28.7234 131.296 28.069C130.015 27.4146 128.987 26.4658 128.211 25.2224C127.435 23.9698 127.047 22.5441 127.047 20.9456C127.047 19.347 127.435 17.9261 128.211 16.6828C128.987 15.4301 130.015 14.4766 131.296 13.8222C132.576 13.1585 133.983 12.8266 135.516 12.8266C137.05 12.8266 138.456 13.1585 139.737 13.8222C141.018 14.4766 142.046 15.4301 142.822 16.6828C143.607 17.9261 144 19.347 144 20.9456C144 22.5441 143.607 23.9698 142.822 25.2224C142.046 26.4658 141.018 27.4146 139.737 28.069ZM131.983 24.6054C132.955 25.5777 134.133 26.0638 135.516 26.0638C136.909 26.0638 138.087 25.5777 139.05 24.6054C140.013 23.6332 140.494 22.4133 140.494 20.9456C140.494 19.4686 140.013 18.2439 139.05 17.2717C138.087 16.2995 136.909 15.8134 135.516 15.8134C134.133 15.8134 132.955 16.2995 131.983 17.2717C131.02 18.2439 130.538 19.4686 130.538 20.9456C130.538 22.4133 131.02 23.6332 131.983 24.6054Z" fill="var(--fill-0, #1D283D)"/>
<path d="M120.38 7.30184H123.899V28.8403H120.38V7.30184Z" fill="var(--fill-0, #1D283D)"/>
<path d="M112.941 28.069C111.66 28.7234 110.253 29.0506 108.72 29.0506C107.187 29.0506 105.78 28.7234 104.499 28.069C103.219 27.4146 102.19 26.4658 101.414 25.2224C100.638 23.9698 100.251 22.5441 100.251 20.9456C100.251 19.347 100.638 17.9261 101.414 16.6828C102.19 15.4301 103.219 14.4766 104.499 13.8222C105.78 13.1585 107.187 12.8266 108.72 12.8266C110.253 12.8266 111.66 13.1585 112.941 13.8222C114.222 14.4766 115.25 15.4301 116.026 16.6828C116.811 17.9261 117.204 19.347 117.204 20.9456C117.204 22.5441 116.811 23.9698 116.026 25.2224C115.25 26.4658 114.222 27.4146 112.941 28.069ZM105.186 24.6054C106.159 25.5777 107.337 26.0638 108.72 26.0638C110.113 26.0638 111.291 25.5777 112.254 24.6054C113.217 23.6332 113.698 22.4133 113.698 20.9456C113.698 19.4686 113.217 18.2439 112.254 17.2717C111.291 16.2995 110.113 15.8134 108.72 15.8134C107.337 15.8134 106.159 16.2995 105.186 17.2717C104.224 18.2439 103.742 19.4686 103.742 20.9456C103.742 22.4133 104.224 23.6332 105.186 24.6054Z" fill="var(--fill-0, #1D283D)"/>
<path d="M99.1225 13.051L93.5275 20.9456L99.1225 28.8402H95.1822L90.9754 22.9648L86.7687 28.8402H82.8284L88.4234 20.9456L82.8284 13.051H86.7687L90.9754 18.9123L95.1822 13.051H99.1225Z" fill="var(--fill-0, #1D283D)"/>
<path d="M78.2924 10.7935C77.7035 10.7935 77.1987 10.5878 76.778 10.1765C76.3667 9.75584 76.161 9.25103 76.161 8.66209C76.161 8.09185 76.3667 7.60106 76.778 7.18974C77.1987 6.76907 77.6988 6.55873 78.2784 6.55873C78.8673 6.55873 79.3675 6.76907 79.7788 7.18974C80.1901 7.60106 80.3958 8.09185 80.3958 8.66209C80.3958 9.24169 80.1901 9.74182 79.7788 10.1625C79.3675 10.5832 78.872 10.7935 78.2924 10.7935ZM76.5256 13.0511H80.0452V28.8404H76.5256V13.0511Z" fill="var(--fill-0, #1D283D)"/>
<path d="M65.8332 29.0645C64.459 29.0645 63.2484 28.8262 62.2014 28.3494C61.1638 27.8633 60.4019 27.1949 59.9158 26.3442V34.5894H56.4102V13.0509H59.7615L59.9158 15.5469C60.8412 13.724 62.8137 12.8125 65.8332 12.8125C67.2168 12.8125 68.4835 13.1631 69.6333 13.8642C70.7925 14.556 71.7039 15.5235 72.3677 16.7669C73.0408 18.0102 73.3773 19.4031 73.3773 20.9456C73.3773 22.488 73.0408 23.8809 72.3677 25.1242C71.7039 26.3676 70.7925 27.3351 69.6333 28.0269C68.4835 28.7186 67.2168 29.0645 65.8332 29.0645ZM64.8937 15.8133C63.5195 15.8133 62.3463 16.3041 61.3741 17.2857C60.4019 18.2579 59.9158 19.4779 59.9158 20.9456C59.9158 22.4039 60.3972 23.6238 61.3601 24.6054C62.3323 25.5776 63.5102 26.0637 64.8937 26.0637C66.2773 26.0637 67.4505 25.5776 68.4134 24.6054C69.3762 23.6332 69.8577 22.4132 69.8577 20.9456C69.8577 19.4685 69.3762 18.2439 68.4134 17.2717C67.4505 16.2995 66.2773 15.8133 64.8937 15.8133Z" fill="var(--fill-0, #1D283D)"/>
</g>
</g>
</svg>
