<svg preserveAspectRatio="none" width="100%" height="100%" overflow="visible" style="display: block;" viewBox="0 0 44 44" fill="none" xmlns="http://www.w3.org/2000/svg">
<g id="linkedin">
<rect width="44" height="44" rx="22" fill="var(--fill-0, #F1F5F9)"/>
<path id="Vector" fill-rule="evenodd" clip-rule="evenodd" d="M15.3593 13.0104C15.3208 13.0144 15.1924 13.0358 15.074 13.0579C14.0172 13.2546 13.2717 13.999 13.0575 15.0711C12.9756 15.4812 12.982 16.1577 13.0715 16.5575C13.3032 17.5923 14.0237 18.2965 15.0653 18.5061C15.3494 18.5633 15.7575 18.5845 16.0787 18.5588C16.8332 18.4983 17.3687 18.2709 17.8208 17.8188C18.2728 17.3667 18.5003 16.8312 18.5607 16.0767C18.6091 15.4724 18.516 14.8834 18.2989 14.4201C17.931 13.6349 17.2157 13.1444 16.253 13.0173C16.1078 12.9981 15.5191 12.9936 15.3593 13.0104ZM15.5093 14.4377C14.9177 14.5043 14.5864 14.7926 14.4646 15.3472C14.4212 15.5448 14.4228 16.0186 14.4675 16.2274C14.5662 16.6885 14.8189 16.9574 15.2693 17.0808C15.4838 17.1396 16.051 17.1454 16.2689 17.0909C16.7134 16.98 16.982 16.7114 17.093 16.2669C17.1474 16.049 17.1416 15.4817 17.0829 15.2672C17.0218 15.0443 16.9539 14.9148 16.8247 14.7753C16.6918 14.6317 16.4707 14.5161 16.2395 14.4692C16.0435 14.4295 15.7102 14.4151 15.5093 14.4377ZM15.402 19.5799C14.4207 19.6891 13.5723 20.3759 13.2595 21.3144C13.1203 21.7322 13.1289 21.4727 13.1289 25.2796C13.1289 28.4431 13.1315 28.7246 13.1633 28.8924C13.372 29.9939 14.2393 30.828 15.3366 30.9827C15.5944 31.019 16.0435 30.9959 16.2895 30.9337C16.7763 30.8105 17.1877 30.5737 17.5261 30.222C17.8479 29.8877 18.0508 29.517 18.1836 29.0205L18.2291 28.8505L18.2352 25.3797C18.2419 21.5678 18.2463 21.7257 18.1216 21.344C17.8316 20.4566 17.1006 19.7994 16.2037 19.6198C15.9651 19.572 15.625 19.5551 15.402 19.5799ZM24.9612 19.5699C24.6325 19.598 24.4002 19.6279 24.1905 19.6692C22.5825 19.986 21.2042 20.961 20.3581 22.3802C20.0367 22.9193 19.7968 23.5507 19.6711 24.1888C19.5731 24.6867 19.5701 24.7626 19.5701 26.82V28.7505L19.6154 28.9548C19.8278 29.9142 20.5036 30.6427 21.4291 30.9099C21.7966 31.0159 22.347 31.0297 22.7008 30.9416C23.6887 30.6956 24.3974 29.9763 24.633 28.9805C24.6652 28.8445 24.6696 28.6583 24.6799 26.99L24.6912 25.1496L24.7373 25.0476C24.7952 24.9198 24.9216 24.7945 25.0495 24.7381C25.1616 24.6886 25.3456 24.6788 25.4713 24.7156C25.5918 24.7509 25.7389 24.8744 25.8094 24.9996L25.8714 25.1096L25.8826 26.92C25.8949 28.923 25.8918 28.8727 26.0289 29.276C26.2977 30.0664 26.9483 30.6814 27.7573 30.9098C28.0261 30.9857 28.2315 31.0076 28.5593 30.9953C29.202 30.9712 29.7593 30.734 30.2235 30.2872C30.5728 29.9511 30.8046 29.5496 30.9379 29.0505L30.9913 28.8505L30.9982 26.93C31.003 25.6019 30.9982 24.9324 30.9824 24.7595C30.8031 22.7882 29.6254 21.0645 27.8464 20.1695C27.2593 19.8741 26.6788 19.6969 26.0114 19.6092C25.777 19.5784 25.1407 19.5546 24.9612 19.5699ZM15.4122 21.0303C15.0087 21.128 14.6473 21.511 14.5806 21.9118C14.5641 22.0115 14.5594 22.9546 14.5635 25.3696L14.5691 28.6905L14.6226 28.8281C14.926 29.6089 15.8948 29.8239 16.4788 29.2399C16.6145 29.1042 16.7094 28.9493 16.7726 28.7605C16.8077 28.6557 16.8097 28.4947 16.815 25.3712C16.8211 21.7544 16.8255 21.8943 16.6971 21.6286C16.6002 21.4279 16.3791 21.2076 16.1795 21.1129C15.9395 20.9989 15.6641 20.9693 15.4122 21.0303ZM24.8233 21.0214C24.4375 21.0618 23.9759 21.1844 23.5942 21.3481C22.166 21.9602 21.1781 23.3075 21.0214 24.8566C20.9921 25.1467 20.9929 28.5422 21.0224 28.6845C21.0979 29.0492 21.3987 29.3868 21.7617 29.5142C21.9494 29.5801 22.242 29.588 22.4307 29.5324C22.7998 29.4238 23.0897 29.1377 23.213 28.7605C23.2463 28.6589 23.25 28.5072 23.2612 26.79C23.2748 24.7226 23.2662 24.8505 23.4147 24.4994C23.6627 23.913 24.178 23.4727 24.8112 23.3063C25.0135 23.2531 25.5506 23.2537 25.7614 23.3073C26.1361 23.4026 26.4297 23.5685 26.7027 23.8393C26.9922 24.1264 27.1639 24.4214 27.2672 24.8095C27.3087 24.9657 27.31 25.0142 27.321 26.82L27.3322 28.6705L27.3771 28.8035C27.5059 29.1845 27.8533 29.4828 28.2514 29.5543C28.8187 29.6562 29.3621 29.316 29.5354 28.7505C29.57 28.6376 29.5722 28.5195 29.5722 26.78C29.5722 24.7381 29.5719 24.7326 29.4414 24.2267C28.9078 22.157 26.9513 20.799 24.8233 21.0214Z" fill="var(--fill-0, #324158)"/>
</g>
</svg>
