<svg preserveAspectRatio="none" width="100%" height="100%" overflow="visible" style="display: block;" viewBox="0 0 28 28" fill="none" xmlns="http://www.w3.org/2000/svg">
<g id="DocumentContractLicense">
<path id="Vector" fill-rule="evenodd" clip-rule="evenodd" d="M13.86 1.41873C11.9819 1.46902 9.68537 1.59634 9.10272 1.68249C8.02967 1.84114 7.09481 2.72532 6.85933 3.80433C6.80229 4.06557 6.71863 5.13024 6.64997 6.468C6.47942 9.79188 6.5462 13.4666 6.8369 16.7506C6.87064 17.1315 6.89242 17.4489 6.88534 17.456C6.87826 17.4631 6.6019 17.4825 6.27124 17.4991C4.96824 17.5646 3.12169 17.7095 2.66 17.7824C2.33822 17.8333 2.06657 18.016 1.92444 18.2771C1.76028 18.5788 1.52384 19.7161 1.42912 20.66C1.39157 21.034 1.39166 21.9608 1.42929 22.3101C1.6161 24.0439 2.38689 25.285 3.724 26.0052C4.28327 26.3064 4.93679 26.4894 5.74 26.5697C6.15824 26.6115 22.0797 26.6167 22.344 26.5751C22.9311 26.4828 23.4553 26.3154 23.926 26.0702C25.2089 25.4017 26.0966 24.1991 26.3597 22.7736C26.4182 22.4564 26.4632 21.5428 26.5464 18.984C26.5942 17.5117 26.6115 12.4761 26.5746 10.7631C26.5143 7.97048 26.3571 4.31491 26.2799 3.91126C26.1747 3.36154 25.9277 2.89324 25.5282 2.48598C25.1669 2.11758 24.7325 1.8606 24.2644 1.73827C23.8358 1.62627 21.8427 1.5001 19.362 1.42794C18.5438 1.40414 14.6484 1.39765 13.86 1.41873ZM14.854 3.40486C12.8025 3.44033 9.85838 3.58448 9.41528 3.67116C9.11966 3.72898 8.85024 4.00484 8.80928 4.29159C8.78147 4.48624 8.68476 5.94051 8.6329 6.944C8.5708 8.14548 8.56212 12.0514 8.61888 13.258C8.66622 14.265 8.7764 15.924 8.84789 16.7065C8.87863 17.0428 8.9038 17.3384 8.90389 17.3632C8.904 17.4044 9.10162 17.41 11.081 17.4248C12.2784 17.4337 13.5226 17.4539 13.846 17.4697C16.1436 17.5819 17.9995 17.736 18.2643 17.8366C18.6539 17.9846 18.9041 18.3508 18.9048 18.774C18.905 18.9385 18.8848 19.024 18.7788 19.306C18.4852 20.0868 18.3766 20.8259 18.4503 21.541C18.5481 22.4897 18.8947 23.2504 19.4811 23.8036C19.7103 24.0199 19.8535 24.1221 20.1036 24.248C20.536 24.4658 20.8569 24.5494 21.3886 24.5832C22.3759 24.6459 23.0392 24.4179 23.6628 23.8017C24.0504 23.4187 24.294 22.9516 24.3865 22.414C24.4216 22.2098 24.4838 20.7355 24.5454 18.648C24.6012 16.7574 24.6093 12.0807 24.5598 10.276C24.4981 8.02124 24.3614 4.71439 24.3156 4.368C24.2776 4.08019 24.0836 3.81332 23.8369 3.70924C23.6578 3.6337 21.7368 3.51148 19.684 3.44501C18.7802 3.41575 15.7034 3.39018 14.854 3.40486ZM12.6405 7.27938C12.3466 7.32332 12.1058 7.4828 11.942 7.742C11.8234 7.92963 11.7792 8.10558 11.7928 8.33557C11.8142 8.69534 12.0407 9.0239 12.376 9.18159L12.53 9.254L16.506 9.26251C19.4641 9.26884 20.5183 9.26265 20.6237 9.23832C20.9085 9.17258 21.2246 8.88264 21.3217 8.59802C21.3842 8.41478 21.3763 8.09931 21.3042 7.90406C21.222 7.68141 20.9662 7.42512 20.734 7.33281L20.566 7.266L16.674 7.26211C14.5334 7.25998 12.7183 7.26776 12.6405 7.27938ZM12.4935 12.2397C12.2225 12.3178 11.9537 12.5798 11.8436 12.8729C11.6728 13.3278 11.9054 13.8837 12.362 14.112L12.502 14.182H16.576H20.65L20.8093 14.1038C21.0144 14.0031 21.2293 13.7699 21.306 13.5649C21.3856 13.3522 21.3845 13.049 21.3035 12.8321C21.2198 12.6083 20.9637 12.3522 20.7399 12.2685L20.5779 12.208L16.5819 12.2105C14.1424 12.2121 12.55 12.2234 12.4935 12.2397ZM9.086 19.4212C7.33656 19.4469 5.41825 19.5384 3.97718 19.6649L3.60038 19.698L3.57697 19.81C3.5168 20.0978 3.44044 20.6911 3.41163 21.0948C3.36372 21.7655 3.4389 22.4797 3.60867 22.9665C3.73397 23.3258 3.89178 23.5791 4.15632 23.8454C4.3797 24.0703 4.44511 24.1178 4.704 24.2432C5.02009 24.3962 5.27122 24.4754 5.67 24.5478C5.89663 24.5889 6.50502 24.5946 11.711 24.6037C14.895 24.6093 17.5 24.6094 17.5 24.604C17.5 24.5985 17.4312 24.4895 17.3471 24.3617C16.7292 23.4225 16.4314 22.3602 16.4321 21.098C16.4324 20.6142 16.4929 19.9863 16.5647 19.7219C16.5854 19.6456 16.5644 19.6422 15.736 19.5873C13.7686 19.4569 11.1349 19.3912 9.086 19.4212Z" fill="var(--fill-0, #2B7FFF)"/>
</g>
</svg>
