<svg preserveAspectRatio="none" width="100%" height="100%" overflow="visible" style="display: block;" viewBox="0 0 18.6728 18.6737" fill="none" xmlns="http://www.w3.org/2000/svg">
<path id="Vector" fill-rule="evenodd" clip-rule="evenodd" d="M13.8455 0.00960824C13.2349 0.0828482 12.6767 0.306488 12.2198 0.661048C11.7878 0.996168 9.8989 2.71365 9.6913 2.96003C9.33128 3.38729 9.1557 3.87443 9.15556 4.44643C9.15542 5.06951 9.35896 5.55563 9.86752 6.14677C9.94338 6.23495 10.0166 6.32131 10.0303 6.33865C10.0513 6.36525 10.0206 6.42111 9.83414 6.69567C8.93016 8.02691 8.02614 8.93209 6.71028 9.82353L6.3951 10.037L6.15026 9.83085C5.84648 9.57505 5.70524 9.47853 5.46986 9.36587C4.9661 9.12473 4.4252 9.07463 3.86546 9.21723C3.6546 9.27097 3.30282 9.44389 3.103 9.59203C2.82752 9.79631 1.24382 11.5037 0.699962 12.1827C0.184582 12.8263 -0.0579182 13.5893 0.0117018 14.3483C0.0627618 14.9049 0.201662 15.3107 0.489862 15.7453C0.692902 16.0515 0.983382 16.3296 1.4694 16.6832C1.69156 16.8448 2.04256 17.1089 2.2494 17.27C2.90686 17.7821 3.37628 18.0609 3.9579 18.2844C5.55182 18.8971 7.3351 18.7824 8.84546 17.97C9.2715 17.7409 9.61842 17.4818 10.6555 16.6181C12.7234 14.896 14.021 13.646 15.5163 11.9357C16.4812 10.832 17.4384 9.66431 17.698 9.27421C18.8016 7.61583 18.9801 5.50243 18.1724 3.65681C17.9608 3.17321 17.7314 2.80469 17.2819 2.22643C17.128 2.02843 16.88 1.69993 16.7308 1.49643C16.3875 1.02817 16.261 0.878468 16.0748 0.720108C15.6163 0.330408 15.1089 0.104188 14.5159 0.0252282C14.3233 -0.000411767 13.9932 -0.00811176 13.8455 0.00960824ZM13.7994 1.46563C13.4202 1.55203 13.2291 1.66731 12.7055 2.12551C12.0976 2.65745 10.8921 3.76849 10.7804 3.89981C10.6229 4.08489 10.564 4.29497 10.5966 4.55491C10.6305 4.82509 10.7026 4.93329 11.2649 5.55891C11.6056 5.93789 11.6408 6.00057 11.6519 6.24959C11.6616 6.46735 11.6414 6.52167 11.4121 6.89295C10.3057 8.68487 9.1655 9.88945 7.52086 11.0041C7.11798 11.2771 6.68958 11.5438 6.5715 11.5951C6.39172 11.6732 6.1659 11.6644 5.98118 11.5721C5.93248 11.5478 5.76502 11.4113 5.60904 11.2688C5.21902 10.9124 4.99074 10.7247 4.87956 10.669C4.57612 10.517 4.1745 10.5561 3.93714 10.7608C3.71994 10.9481 2.3362 12.4568 1.88678 12.9964C1.54024 13.4124 1.41706 13.7491 1.44098 14.2149C1.46564 14.695 1.66464 15.0467 2.08698 15.3564C2.33638 15.5393 3.07988 16.0975 3.36448 16.3155C3.62206 16.5128 3.8299 16.6442 4.08986 16.7741C5.43938 17.4485 7.07718 17.3818 8.34546 16.6009C8.62348 16.4297 8.73568 16.3433 9.50546 15.7078C12.0271 13.6261 13.4243 12.2384 15.4475 9.80643C16.1851 8.91981 16.4017 8.64391 16.5711 8.37493C17.307 7.20683 17.4402 5.73089 16.9294 4.40499C16.75 3.93931 16.5868 3.67403 16.0567 2.98643C15.9295 2.82143 15.7069 2.52403 15.5621 2.32553C15.1715 1.79019 14.9658 1.61561 14.5855 1.49655C14.4028 1.43937 13.9866 1.42299 13.7994 1.46563Z" fill="var(--fill-0, white)"/>
</svg>
