<svg width="16" height="16" viewBox="0 0 16 16" fill="none" xmlns="http://www.w3.org/2000/svg">
<path d="M6.7725 11.4975L12.3244 5.94562L11.2219 4.84312L6.7725 9.2925L4.52812 7.04812L3.42562 8.15062L6.7725 11.4975ZM7.875 15.75C6.78562 15.75 5.76187 15.5433 4.80375 15.1298C3.84562 14.7164 3.01219 14.1553 2.30344 13.4466C1.59469 12.7378 1.03359 11.9044 0.620156 10.9462C0.206719 9.98812 0 8.96437 0 7.875C0 6.78562 0.206719 5.76187 0.620156 4.80375C1.03359 3.84562 1.59469 3.01219 2.30344 2.30344C3.01219 1.59469 3.84562 1.03359 4.80375 0.620156C5.76187 0.206719 6.78562 0 7.875 0C8.96437 0 9.98812 0.206719 10.9462 0.620156C11.9044 1.03359 12.7378 1.59469 13.4466 2.30344C14.1553 3.01219 14.7164 3.84562 15.1298 4.80375C15.5433 5.76187 15.75 6.78562 15.75 7.875C15.75 8.96437 15.5433 9.98812 15.1298 10.9462C14.7164 11.9044 14.1553 12.7378 13.4466 13.4466C12.7378 14.1553 11.9044 14.7164 10.9462 15.1298C9.98812 15.5433 8.96437 15.75 7.875 15.75ZM7.875 14.175C9.63375 14.175 11.1234 13.5647 12.3441 12.3441C13.5647 11.1234 14.175 9.63375 14.175 7.875C14.175 6.11625 13.5647 4.62656 12.3441 3.40594C11.1234 2.18531 9.63375 1.575 7.875 1.575C6.11625 1.575 4.62656 2.18531 3.40594 3.40594C2.18531 4.62656 1.575 6.11625 1.575 7.875C1.575 9.63375 2.18531 11.1234 3.40594 12.3441C4.62656 13.5647 6.11625 14.175 7.875 14.175Z" fill="currentColor"/>
</svg>
