<svg preserveAspectRatio="none" width="100%" height="100%" overflow="visible" style="display: block;" viewBox="0 0 16 16" fill="none" xmlns="http://www.w3.org/2000/svg">
<g id="SteeringWheel" clip-path="url(#clip0_0_11)">
<path id="Vector" fill-rule="evenodd" clip-rule="evenodd" d="M7.384 0.545024C5.94413 0.62992 4.71958 0.963936 3.73346 1.54078C2.80046 2.08654 2.08654 2.80046 1.54078 3.73346C0.737984 5.10586 0.396256 6.98723 0.576896 9.04C0.681968 10.2338 1.02662 11.3876 1.54078 12.2665C2.08578 13.1982 2.80147 13.9141 3.73258 14.4587C5.10565 15.2619 7.00518 15.6064 9.048 15.4226C10.2478 15.3147 11.3872 14.9736 12.2674 14.4587C13.5107 13.7314 14.3998 12.6679 14.9247 11.28C15.4399 9.91784 15.602 8.15701 15.3663 6.48229C15.0495 4.2315 13.9967 2.55285 12.2674 1.5413C11.1251 0.873104 9.61862 0.52024 7.952 0.530528C7.754 0.53176 7.4984 0.538272 7.384 0.545024ZM7.44 1.68939C7.4004 1.69262 7.2672 1.70323 7.144 1.71296C5.92648 1.8091 4.81189 2.17032 3.984 2.73706C2.87224 3.49813 2.14829 4.67352 1.84125 6.216C1.72397 6.80523 1.688 7.22384 1.688 8C1.688 8.39794 1.69571 8.712 1.70883 8.848C1.80984 9.89493 2.01885 10.6805 2.39656 11.4329C2.99229 12.6195 3.97022 13.4556 5.29454 13.9105C5.86315 14.1059 6.42522 14.221 7.152 14.2912C7.44224 14.3192 8.55776 14.3192 8.848 14.2912C10.3301 14.1482 11.4282 13.75 12.3264 13.03C13.3629 12.1992 14.0226 10.9133 14.238 9.304C14.3025 8.82277 14.3116 8.66066 14.3116 8C14.3116 7.58734 14.3041 7.27645 14.2909 7.144C14.1858 6.08947 13.9796 5.31645 13.6034 4.56714C13.0077 3.38053 12.0298 2.54443 10.7055 2.08947C10.1546 1.90022 9.6349 1.79072 8.944 1.7183C8.7268 1.69555 7.62434 1.67435 7.44 1.68939ZM7.608 2.58522C7.31523 2.6067 7.07414 2.62954 6.936 2.64885C5.15566 2.89776 3.85938 3.77622 3.15963 5.208C2.74184 6.06286 2.55394 7.03429 2.58086 8.2C2.58594 8.42 2.59715 8.654 2.60579 8.72C2.61442 8.786 2.62974 8.9084 2.63984 8.992C2.7956 10.2813 3.34406 11.4126 4.16746 12.1428C4.96272 12.848 5.92885 13.2443 7.2 13.3868C7.51069 13.4216 8.45141 13.4264 8.736 13.3945C9.4717 13.3123 10.0324 13.1744 10.5722 12.9429C11.9778 12.3403 12.91 11.1707 13.2624 9.568C13.4328 8.79258 13.4688 7.83795 13.3597 6.98282C13.196 5.70003 12.6496 4.58184 11.8325 3.85723C11.0144 3.13173 10.043 2.74272 8.712 2.60768C8.54736 2.59098 7.75051 2.57477 7.608 2.58522ZM7.448 3.74574C6.31395 3.83096 5.41224 4.20741 4.78344 4.85813C4.61493 5.03251 4.352 5.37182 4.352 5.4149C4.352 5.41907 4.38619 5.4191 4.428 5.41496C4.51251 5.40658 5.2671 5.37382 6.312 5.33317C7.1385 5.30102 8.82296 5.29696 9.672 5.32507C10.3625 5.34794 11.0728 5.37435 11.396 5.38917C11.5258 5.39514 11.632 5.39725 11.632 5.39389C11.632 5.34982 11.3894 5.03699 11.2166 4.85813C10.5791 4.19843 9.68955 3.83114 8.52 3.74469C8.26344 3.72573 7.70706 3.72627 7.448 3.74574ZM7.064 6.45867C6.9936 6.46101 6.702 6.47062 6.416 6.48005C5.82709 6.49946 4.59224 6.5525 4.184 6.57592C4.0344 6.58451 3.90378 6.59163 3.89373 6.59176C3.87421 6.59202 3.82349 6.83806 3.78485 7.12C3.75584 7.33165 3.728 7.73066 3.728 7.9348V8.09104L3.94653 8.10152C4.06672 8.10728 4.31115 8.112 4.48971 8.112C4.83179 8.112 5.08742 8.13667 5.328 8.1929C6.23086 8.4039 6.89144 8.95843 7.14387 9.71726C7.26144 10.0707 7.27874 10.2667 7.29115 11.3868L7.30059 12.2375L7.43829 12.2508C7.60907 12.2672 8.46128 12.2672 8.5619 12.2507L8.63582 12.2387L8.64494 11.3553C8.65448 10.4317 8.66586 10.2237 8.72118 9.9613C8.88909 9.16482 9.48553 8.54213 10.344 8.26707C10.6988 8.15341 11.0016 8.11203 11.4794 8.11194C11.6645 8.1119 11.9186 8.10718 12.044 8.10146L12.272 8.09102L12.2718 7.9295C12.2715 7.57946 12.2158 7.03544 12.1471 6.7121L12.1199 6.58419L12.032 6.57294C11.8662 6.55176 10.4102 6.49394 9.288 6.46398C8.76707 6.45008 7.4207 6.44686 7.064 6.45867ZM7.83987 7.04678C7.68922 7.0884 7.54982 7.21174 7.47683 7.368L7.432 7.464V8V8.536L7.47683 8.632C7.55163 8.79214 7.68966 8.91214 7.84739 8.95416C8.1247 9.028 8.39936 8.89707 8.52317 8.632L8.568 8.536V8V7.464L8.52317 7.368C8.39896 7.10208 8.11795 6.96997 7.83987 7.04678ZM3.84941 9.292C3.91934 9.59925 3.98323 9.81104 4.07488 10.0395C4.42939 10.923 5.07899 11.5714 5.96635 11.9275C6.06666 11.9677 6.15136 11.998 6.15461 11.9947C6.16659 11.9828 6.12701 10.4519 6.11173 10.336C6.06544 9.98493 5.90909 9.72874 5.62525 9.53888C5.29462 9.31774 4.95011 9.24846 4.1797 9.24814L3.83939 9.248L3.84941 9.292ZM11.216 9.26482C10.7203 9.2943 10.3538 9.44565 10.0872 9.73093C9.89971 9.93163 9.83329 10.1199 9.80889 10.52C9.78153 10.9688 9.76838 12.016 9.79013 12.016C9.80056 12.016 9.89346 11.9829 9.99654 11.9425C11.093 11.5127 11.8152 10.6655 12.1092 9.464C12.1265 9.3936 12.1451 9.31621 12.1506 9.292L12.1606 9.248L11.7883 9.25046C11.5835 9.25181 11.326 9.25827 11.216 9.26482Z" fill="var(--fill-0, white)"/>
</g>
<defs>
<clipPath id="clip0_0_11">
<rect width="16" height="16" fill="white"/>
</clipPath>
</defs>
</svg>
