<svg width="28" height="28" viewBox="0 0 28 28" fill="none" xmlns="http://www.w3.org/2000/svg">
<path fill-rule="evenodd" clip-rule="evenodd" d="M13.4981 1.43032C12.8019 1.55388 9.96781 2.84695 8.17595 3.85856C6.08136 5.04109 4.20992 6.36862 2.81804 7.65931C1.85173 8.55537 1.62082 8.82733 1.48577 9.22843C1.39533 9.49706 1.37487 9.94655 1.44081 10.2156C1.57437 10.7606 1.9786 11.2433 2.49937 11.4794C2.85175 11.6391 2.93248 11.6475 4.13695 11.6479L5.23595 11.6483V15.3681V19.0878L4.99219 19.1522C3.75968 19.4778 2.78702 20.3172 2.15842 21.5977C1.89525 22.1338 1.73327 22.6179 1.56672 23.3663C1.48281 23.7435 1.47634 24.2592 1.55183 24.5563C1.67542 25.0428 1.9242 25.4731 2.27339 25.8042C2.65102 26.1624 3.04621 26.3783 3.61195 26.5357C3.78597 26.5841 4.24083 26.5863 14 26.5863C23.7591 26.5863 24.2139 26.5841 24.388 26.5357C25.4785 26.2324 26.1979 25.5412 26.4481 24.5563C26.5622 24.1073 26.5039 23.5218 26.2613 22.6803C25.7264 20.8253 24.557 19.5566 23.009 19.1519L22.764 19.0878V15.3681V11.6483L23.863 11.6479C25.0674 11.6475 25.1482 11.6391 25.5005 11.4794C26.0213 11.2433 26.4255 10.7606 26.5591 10.2156C26.6241 9.95027 26.6049 9.49538 26.5178 9.24033C26.4012 8.89853 26.234 8.67504 25.7192 8.17249C25.0055 7.47583 24.3621 6.91762 23.5803 6.31693C21.3667 4.61593 18.5458 3.02931 15.484 1.76301C14.7618 1.46437 14.5999 1.42385 14.084 1.41271C13.8453 1.40755 13.5816 1.41548 13.4981 1.43032ZM13.79 3.42829C13.2587 3.56185 10.5165 4.85001 9.23995 5.56564C7.17588 6.72277 5.46483 7.93914 4.0473 9.2571L3.62864 9.64633L8.8143 9.65341C11.6664 9.65731 16.3335 9.65731 19.1856 9.65341L24.3713 9.64633L23.9526 9.2571C22.1718 7.60138 20.0048 6.15221 17.276 4.79203C16.0596 4.18574 14.5291 3.50716 14.196 3.42649C14.0126 3.38211 13.973 3.38228 13.79 3.42829ZM7.25195 15.3163V18.9843H10.122H12.992V15.3163V11.6483H10.122H7.25195V15.3163ZM15.008 15.3163V18.9843H17.878H20.748V15.3163V11.6483H17.878H15.008V15.3163ZM5.84126 21.0322C5.03822 21.1352 4.36303 21.6501 3.96806 22.4606C3.74809 22.912 3.49995 23.7414 3.49995 24.0253C3.49995 24.2167 3.68142 24.4221 3.96195 24.548C4.06905 24.5961 4.50944 24.5983 14 24.5983C23.4905 24.5983 23.9309 24.5961 24.038 24.548C24.3185 24.4221 24.5 24.2167 24.5 24.0253C24.5 23.8823 24.3661 23.3196 24.2574 23.0056C23.9831 22.2128 23.5742 21.65 23.044 21.3352C22.8089 21.1957 22.4206 21.0673 22.1207 21.0299C21.8251 20.993 6.1289 20.9952 5.84126 21.0322Z" fill="#00C950"/>
</svg>
