<svg width="20" height="20" viewBox="0 0 20 20" fill="none" xmlns="http://www.w3.org/2000/svg">
<path d="M9.99978 2.78418C11.5231 2.78418 12.9279 2.81742 14.3036 2.88184C16.6277 2.99065 18.5105 4.77447 18.7707 7.03153C19.0827 9.73786 19.0827 12.0512 18.7707 14.7575C18.5106 17.0147 16.6277 18.7984 14.3036 18.9072C12.9279 18.9717 11.5231 19.0049 9.99978 19.0049C8.47633 19.0049 7.07117 18.9717 5.69523 18.9072C3.3713 18.7984 1.48839 17.0146 1.22816 14.7575C0.916138 12.0512 0.916132 9.73785 1.22816 7.03153C1.4884 4.77447 3.37128 2.99065 5.69523 2.88184C7.07116 2.81741 8.47631 2.78418 9.99978 2.78418ZM9.99978 4.21275C8.49788 4.21275 7.11507 4.24567 5.7622 4.30901C4.13808 4.38506 2.82772 5.63372 2.64766 7.19545C2.34821 9.79286 2.34821 11.9962 2.64766 14.5936C2.82772 16.1553 4.13806 17.404 5.7622 17.4801C7.11504 17.5434 8.49785 17.5763 9.99978 17.5763C11.5017 17.5763 12.8846 17.5434 14.2374 17.4801C15.8614 17.4038 17.1711 16.1557 17.3512 14.5943V14.5936C17.6507 11.9962 17.6507 9.79288 17.3512 7.19545C17.1712 5.63385 15.8615 4.3852 14.2374 4.30901C12.8846 4.24567 11.5017 4.21275 9.99978 4.21275Z" fill="#90A2B9"/>
<path d="M9.99864 2.78442C11.5221 2.78442 12.9273 2.81766 14.3032 2.88208C16.6271 2.9909 18.51 4.77474 18.7703 7.03177H18.7696C18.8052 7.34048 18.837 7.64448 18.8644 7.94486C18.8827 8.14475 18.8163 8.34347 18.681 8.49173C18.5457 8.63993 18.3543 8.72463 18.1536 8.72471H1.84435C1.64364 8.72471 1.45233 8.63995 1.317 8.49173C1.18167 8.34343 1.11453 8.1448 1.13285 7.94486C1.16037 7.64459 1.19211 7.3406 1.22772 7.03177C1.48797 4.77473 3.37087 2.9909 5.69479 2.88208C7.07056 2.81767 8.47536 2.78443 9.99864 2.78442ZM9.99864 4.213C8.49675 4.213 7.11393 4.24591 5.76106 4.30926C4.13706 4.38541 2.82727 5.63404 2.64722 7.1957C2.64336 7.22921 2.64052 7.26276 2.63676 7.29614H17.3612C17.3575 7.26277 17.3546 7.22921 17.3508 7.1957C17.1707 5.63394 15.8603 4.3853 14.2362 4.30926C12.8834 4.24591 11.5006 4.213 9.99864 4.213Z" fill="#90A2B9"/>
<path d="M5.63965 5.35732V1.70916C5.63965 1.31467 5.95945 0.994873 6.35393 0.994873C6.74842 0.994873 7.06822 1.31467 7.06822 1.70916V5.35732C7.06811 5.75171 6.74836 6.0716 6.35393 6.0716C5.95951 6.0716 5.63976 5.75171 5.63965 5.35732Z" fill="#90A2B9"/>
<path d="M12.9307 5.35732V1.70916C12.9307 1.31467 13.2505 0.994873 13.6449 0.994873C14.0394 0.994873 14.3592 1.31467 14.3592 1.70916V5.35732C14.3591 5.75171 14.0394 6.0716 13.6449 6.0716C13.2505 6.0716 12.9308 5.75171 12.9307 5.35732Z" fill="#90A2B9"/>
</svg>
