<svg width="28" height="28" viewBox="0 0 28 28" fill="none" xmlns="http://www.w3.org/2000/svg">
<g clip-path="url(#clip0_3459_358)">
<path fill-rule="evenodd" clip-rule="evenodd" d="M4.10225 2.69076C2.94739 2.78616 1.89815 3.64103 1.53969 4.77861C1.44049 5.09347 1.21935 6.30632 1.12221 7.06809C0.866601 9.07322 0.859237 13.0067 1.10726 15.042C1.16721 15.5338 1.29556 16.3147 1.40972 16.8821C1.57105 17.684 1.77565 18.1192 2.20705 18.5785C2.50519 18.8959 2.74445 19.0765 3.09425 19.2482C3.45573 19.4256 3.71202 19.4944 4.14425 19.53C4.69011 19.5751 20.0136 19.5496 20.2163 19.5034C20.9682 19.3317 21.578 18.9488 22.0179 18.3722C22.3397 17.9503 22.5081 17.5377 22.6498 16.8241C23.0323 14.8979 23.1171 13.7026 23.0917 10.5993C23.077 8.79818 23.0619 8.40528 22.9729 7.50209C22.8946 6.70792 22.7072 5.57432 22.5517 4.95409C22.373 4.24115 21.9152 3.59508 21.2893 3.17276C20.8813 2.8974 20.4824 2.75231 19.9923 2.70093C19.7508 2.67564 4.40435 2.66579 4.10225 2.69076ZM4.0684 4.74162C3.79081 4.83646 3.54662 5.10005 3.45655 5.40209C3.33612 5.80602 3.10554 7.27585 3.03929 8.06209C2.90976 9.59906 2.90329 12.4219 3.02563 14.0121C3.10554 15.0507 3.37033 16.6567 3.51358 16.9716C3.59965 17.1607 3.79862 17.3575 3.99877 17.4513L4.15825 17.5261H12.0263H19.8943L20.0518 17.4488C20.243 17.3548 20.4489 17.1414 20.5386 16.9442C20.6416 16.7175 20.8674 15.5092 20.9558 14.7121C21.1599 12.8696 21.1597 9.34886 20.9555 7.51609C20.8619 6.67584 20.6441 5.51708 20.5336 5.27077C20.4479 5.07975 20.222 4.85346 20.0273 4.76352L19.8943 4.70209L12.0543 4.69694C4.60407 4.69206 4.207 4.69428 4.0684 4.74162ZM11.9246 5.68209C11.6391 5.77401 11.3627 6.03993 11.2699 6.31209C11.2462 6.38139 11.2191 6.56535 11.2096 6.72086L11.1923 7.00363L10.9932 7.06728C10.206 7.31897 9.57424 7.85875 9.26268 8.54587C9.02437 9.07146 8.97591 9.85501 9.14713 10.4141C9.24874 10.7458 9.49419 11.1374 9.73476 11.3515C10.2061 11.7711 10.715 11.9615 11.8303 12.1358C12.7236 12.2754 13.0918 12.3681 13.1784 12.4753C13.2319 12.5415 13.2501 12.6914 13.2169 12.7922C13.1461 13.0067 12.7515 13.243 12.3215 13.3285C12.1473 13.363 12.0068 13.3713 11.7895 13.3598C11.2848 13.3329 10.9042 13.188 10.5143 12.8742C10.2203 12.6376 10.1181 12.5981 9.80025 12.5981C9.56704 12.5981 9.51502 12.6075 9.37827 12.6747C9.17591 12.7741 8.98291 12.9663 8.88462 13.1665C8.81639 13.3055 8.80625 13.3587 8.80625 13.5787C8.80625 13.8079 8.81479 13.8487 8.89879 14.0192C9.13808 14.5053 10.1262 15.1064 10.9745 15.282C11.0862 15.3051 11.1804 15.3281 11.184 15.333C11.1876 15.338 11.203 15.462 11.2182 15.6086C11.251 15.9254 11.3223 16.0883 11.5147 16.2863C11.9934 16.7792 12.8157 16.6333 13.1265 16.0003C13.1935 15.8639 13.2034 15.8073 13.2119 15.5101L13.2216 15.1741L13.4219 15.0976C14.0805 14.8463 14.6999 14.3189 14.9909 13.7615C15.1531 13.451 15.2088 13.2285 15.2252 12.8255C15.2468 12.2965 15.1833 11.9767 14.9773 11.5761C14.7698 11.1729 14.4643 10.871 14.0339 10.6442C13.5945 10.4125 13.2273 10.3145 12.2223 10.1606C11.6759 10.077 11.4557 10.0295 11.2407 9.94912C11.0633 9.88273 11.0455 9.84432 11.0671 9.57476C11.087 9.32704 11.1955 9.17349 11.4335 9.05634C11.7873 8.88215 12.2833 8.85191 12.7657 8.97511C13.0736 9.05374 13.2374 9.13928 13.4724 9.34421C13.7248 9.56432 13.8504 9.63381 14.0687 9.67419C14.4987 9.75365 14.9285 9.53489 15.1439 9.12704C15.2107 9.00037 15.2183 8.9563 15.2183 8.69209C15.2183 8.42684 15.2109 8.38409 15.1428 8.25501C14.9054 7.80516 14.2212 7.32317 13.4916 7.09189L13.2209 7.00607L13.2116 6.69409C13.2037 6.42918 13.1913 6.35885 13.13 6.22803C13.0389 6.03396 12.8405 5.83385 12.6435 5.73747C12.4522 5.6439 12.1222 5.61847 11.9246 5.68209ZM25.1947 9.03741C24.86 9.1785 24.6392 9.45744 24.5822 9.81122C24.5545 9.9835 24.5497 9.94772 24.7337 10.9461C24.9799 12.2815 25.0595 13.4589 25.0595 15.7621C25.0595 17.913 24.9911 19.0544 24.7902 20.2561C24.6681 20.986 24.5667 21.4462 24.492 21.6094C24.401 21.8083 24.2051 22.004 24.0017 22.0993L23.8423 22.1741L16.0723 22.1826C10.2991 22.189 8.26269 22.1829 8.14825 22.159C7.95108 22.1178 7.79669 22.0282 7.65165 21.8708C7.51321 21.7207 7.44579 21.5912 7.37946 21.3481C7.35216 21.248 7.30708 21.122 7.2793 21.0681C7.21199 20.9375 6.98704 20.7243 6.83808 20.6498C6.3483 20.405 5.74275 20.617 5.49621 21.1195C5.20657 21.7098 5.6637 22.8557 6.4465 23.5017C6.83074 23.8188 7.23291 24.0181 7.72977 24.1377C7.92711 24.1852 8.35363 24.1884 15.7083 24.1974C20.8449 24.2037 23.5969 24.1973 23.8283 24.1783C24.5863 24.1163 25.1196 23.8797 25.655 23.3682C25.9497 23.0866 26.1269 22.8479 26.2919 22.5101C26.4801 22.1246 26.5831 21.7215 26.7535 20.7041C26.9983 19.2425 27.06 18.2482 27.06 15.7621C27.06 12.9654 26.9628 11.7393 26.6047 10.0203C26.5122 9.57616 26.4533 9.43969 26.2788 9.26514C26.0803 9.06673 25.9032 8.99158 25.6063 8.97998C25.3894 8.97153 25.332 8.97954 25.1947 9.03741ZM4.70985 10.16C4.54101 10.2018 4.2917 10.3623 4.19183 10.4934C4.04418 10.6873 3.99471 10.8242 3.98255 11.0721C3.97303 11.2665 3.98183 11.3391 4.03057 11.4684C4.10934 11.6773 4.24365 11.8425 4.43943 11.9712C4.67396 12.1254 4.84879 12.1471 5.65373 12.1222C6.42746 12.0982 6.51571 12.0765 6.76393 11.8497C6.94451 11.6846 7.04979 11.4955 7.08591 11.2714C7.15467 10.8444 6.9356 10.4176 6.54066 10.2092L6.39825 10.1341L5.62825 10.1287C5.07086 10.1247 4.81729 10.1334 4.70985 10.16ZM17.6823 10.1584C17.4124 10.2263 17.1524 10.4444 17.0273 10.7081C16.9645 10.8405 16.9543 10.8994 16.9543 11.1281C16.9543 11.3605 16.9638 11.4135 17.03 11.5483C17.1328 11.7576 17.3099 11.9306 17.5283 12.0351L17.7103 12.1221L18.4844 12.1158C19.1883 12.11 19.2726 12.1042 19.4128 12.0517C20.0169 11.8257 20.2581 11.0986 19.9045 10.5691C19.7886 10.3956 19.6902 10.3086 19.4883 10.2011C19.365 10.1355 19.3456 10.134 18.5923 10.1287C18.0505 10.1248 17.7808 10.1337 17.6823 10.1584Z" fill="#1D283D"/>
</g>
<defs>
<clipPath id="clip0_3459_358">
<rect width="28" height="28" fill="white"/>
</clipPath>
</defs>
</svg>
