<svg width="28" height="28" viewBox="0 0 28 28" fill="none" xmlns="http://www.w3.org/2000/svg">
<path fill-rule="evenodd" clip-rule="evenodd" d="M12.698 2.79099C10.9344 2.81933 9.05281 2.95023 7.69999 3.1387C6.38623 3.32171 4.16689 3.7295 3.75199 3.86412C2.34418 4.32089 1.27659 5.5054 0.988892 6.92987C0.940508 7.16935 0.937988 7.52081 0.937988 13.9999C0.937988 20.4789 0.940508 20.8304 0.988892 21.0699C1.27659 22.4943 2.34524 23.68 3.75199 24.1355C4.01807 24.2216 5.2018 24.4552 6.43999 24.6659C8.81803 25.0705 10.7424 25.2087 14 25.2087C17.258 25.2087 19.1846 25.0703 21.56 24.6658C22.7031 24.4711 23.8611 24.2486 24.1144 24.175C25.1869 23.8636 26.1224 23.108 26.6247 22.1479C26.863 21.6924 26.9839 21.2999 27.0473 20.7766C27.0662 20.6205 27.0759 18.2079 27.0758 13.7206C27.0757 6.36407 27.0813 6.66435 26.9325 6.13291C26.7743 5.5682 26.4518 5.02979 25.9994 4.57496C25.4944 4.06726 24.9695 3.78133 24.262 3.62853C23.7592 3.51992 22.0521 3.27595 20.93 3.15231C19.0647 2.94679 17.4928 2.84685 15.386 2.79993C14.2688 2.77503 13.7905 2.77344 12.698 2.79099ZM12.306 4.80666C9.62737 4.88405 8.28194 5.02864 5.54399 5.53345C4.46403 5.73256 4.23205 5.79542 3.93399 5.96972C3.66085 6.12943 3.29077 6.50875 3.1557 6.76747C2.94735 7.16641 2.93999 7.23283 2.93999 8.71235V10.0239H14H25.06V8.47575C25.06 6.76103 25.0607 6.76912 24.8764 6.39151C24.7079 6.04639 24.3941 5.77274 24.012 5.63753C23.8788 5.59038 22.9507 5.43649 22.092 5.31911C19.4189 4.95374 16.699 4.7814 13.804 4.79397C13.1187 4.79694 12.4446 4.80265 12.306 4.80666ZM2.93999 16.3194C2.93999 20.487 2.94144 20.6046 2.9952 20.8148C3.08158 21.1526 3.2257 21.3983 3.49948 21.6746C3.76842 21.9461 4.02308 22.1095 4.33999 22.2137C4.65177 22.3163 6.68636 22.6884 7.79799 22.8462C9.56882 23.0975 11.5039 23.2115 14 23.2115C16.4961 23.2115 18.4312 23.0975 20.202 22.8462C21.3136 22.6884 23.3482 22.3163 23.66 22.2137C23.9769 22.1095 24.2316 21.9461 24.5005 21.6746C24.7743 21.3983 24.9184 21.1526 25.0048 20.8148C25.0585 20.6046 25.06 20.487 25.06 16.3194V12.0399H14H2.93999V16.3194ZM16.7085 17.1363C16.5144 17.1698 16.338 17.2646 16.1853 17.4172C15.9485 17.654 15.853 17.9536 15.9071 18.2898C15.9598 18.6168 16.1696 18.8865 16.4871 19.0354L16.646 19.1099H18.774H20.902L21.0609 19.0354C21.494 18.8324 21.7254 18.3968 21.6427 17.9406C21.6255 17.8462 21.5857 17.7183 21.5542 17.6564C21.4655 17.4827 21.2224 17.2625 21.0363 17.1874L20.874 17.1219L18.858 17.1176C17.7492 17.1152 16.7819 17.1236 16.7085 17.1363Z" fill="#1D283D"/>
</svg>
