<svg width="20" height="20" viewBox="0 0 20 20" fill="none" xmlns="http://www.w3.org/2000/svg">
<g clip-path="url(#clip0_3321_1684)">
<path fill-rule="evenodd" clip-rule="evenodd" d="M18.406 0.697047C18.253 0.749947 18.1831 0.803227 17.8198 1.14377C16.4289 2.44751 15.5743 3.66851 14.8617 5.36991C14.7833 5.55691 14.7077 5.73569 14.6936 5.76719L14.668 5.82445L14.0119 5.14921C13.651 4.77783 13.3305 4.45267 13.2995 4.42663C13.1081 4.26555 12.7968 4.22513 12.5613 4.33081C12.4033 4.40173 12.2401 4.57323 12.1815 4.72997C12.1024 4.94119 12.1385 5.22201 12.2671 5.39625C12.3769 5.54513 14.489 7.70213 14.5794 7.75775C14.7005 7.83229 14.7988 7.85965 14.9459 7.85979C15.1081 7.85995 15.2121 7.82923 15.3392 7.74363C15.4815 7.64775 15.5761 7.51961 15.6473 7.32617C16.0739 6.16679 16.2879 5.65495 16.6116 5.01877C16.9047 4.44269 17.1969 3.98467 17.5797 3.50089C17.8724 3.13099 18.1362 2.84657 18.6768 2.31803C18.9566 2.04453 19.2068 1.78941 19.2329 1.75107C19.2589 1.71273 19.2947 1.62493 19.3123 1.55597C19.4093 1.17735 19.1813 0.787507 18.8055 0.689647C18.656 0.650707 18.5336 0.652967 18.406 0.697047ZM8.17976 4.65333C7.08624 4.68279 6.08086 4.75423 5.25976 4.86083C4.48006 4.96203 2.91666 5.24325 2.64976 5.33027C1.98028 5.54859 1.35678 6.05393 1.0255 6.64671C0.844141 6.97125 0.736242 7.28965 0.688922 7.63991C0.646662 7.95273 0.646662 16.0071 0.688922 16.3199C0.848122 17.4983 1.79104 18.4802 3.00976 18.7368C3.59634 18.8603 4.7238 19.0499 5.33976 19.1286C7.44396 19.3974 10.8401 19.4114 13.0698 19.1604C13.7591 19.0829 15.4312 18.8034 15.8253 18.6999C16.4902 18.5253 17.112 18.0916 17.5137 17.5223C17.728 17.2186 17.9016 16.8015 17.9749 16.4144C18.0073 16.2428 18.0098 15.954 18.0098 12.2799V8.32991L17.9479 8.19991C17.8756 8.04807 17.7526 7.91805 17.6107 7.84331C17.5201 7.79563 17.4882 7.79017 17.2998 7.79005C17.1209 7.78993 17.0759 7.79673 16.9965 7.83585C16.8471 7.90947 16.7282 8.02781 16.6555 8.17545L16.5898 8.30889L16.5835 8.82439L16.5773 9.33991H9.33854H2.09976V8.59311C2.09976 7.91841 2.10352 7.83161 2.13872 7.69397C2.2581 7.22723 2.61688 6.84903 3.07976 6.70203C3.20896 6.66099 4.12502 6.48775 4.72196 6.39145C6.067 6.17449 7.03486 6.10349 8.92976 6.08279L10.1098 6.06991L10.2233 6.01671C10.5326 5.87169 10.6979 5.56061 10.6388 5.23471C10.6098 5.07475 10.5577 4.97599 10.4407 4.85895C10.3248 4.74303 10.2262 4.69053 10.0705 4.66173C9.96518 4.64227 8.78484 4.63703 8.17976 4.65333ZM2.09976 13.4467C2.09976 16.0354 2.10092 16.118 2.1392 16.2677C2.20432 16.5223 2.30126 16.6841 2.51848 16.9004C2.82792 17.2086 2.98416 17.2754 3.7087 17.4095C5.90906 17.8167 7.17858 17.918 9.76976 17.8934C11.2052 17.8797 11.9414 17.8431 12.8698 17.739C13.5027 17.6681 15.0977 17.4039 15.4586 17.3103C15.9492 17.1829 16.3468 16.8208 16.5133 16.3497L16.5698 16.1899L16.5752 13.4849L16.5806 10.7799H9.34018H2.09976V13.4467ZM11.9198 13.9628C11.6441 14.0084 11.4068 14.2544 11.361 14.5418C11.3082 14.8731 11.4687 15.1725 11.7763 15.3167L11.8898 15.3699H13.4098H14.9298L15.052 15.3134C15.2055 15.2425 15.3414 15.1055 15.4128 14.9499C15.4596 14.848 15.4678 14.8041 15.4671 14.6589C15.4661 14.4465 15.4092 14.3075 15.2638 14.162C15.1415 14.0397 15.0411 13.9875 14.8772 13.9609C14.7182 13.9351 12.0768 13.9368 11.9198 13.9628Z" fill="#90A2B9"/>
</g>
<defs>
<clipPath id="clip0_3321_1684">
<rect width="20" height="20" fill="white"/>
</clipPath>
</defs>
</svg>
