<svg width="20" height="20" viewBox="0 0 20 20" fill="none" xmlns="http://www.w3.org/2000/svg">
<path fill-rule="evenodd" clip-rule="evenodd" d="M9.90025 1.01349C8.55873 1.04941 6.91837 1.14035 6.50219 1.20189C5.73573 1.31521 5.06797 1.94677 4.89977 2.71749C4.85903 2.90409 4.79927 3.66457 4.75023 4.62011C4.62841 6.99431 4.67611 9.61911 4.88375 11.9648C4.90785 12.2369 4.92341 12.4636 4.91835 12.4687C4.91329 12.4737 4.71589 12.4876 4.47971 12.4995C3.54899 12.5463 2.23003 12.6498 1.90025 12.7019C1.67041 12.7382 1.47637 12.8687 1.37485 13.0552C1.25759 13.2706 1.08871 14.083 1.02105 14.7572C0.994234 15.0244 0.994294 15.6864 1.02117 15.9359C1.15461 17.1743 1.70517 18.0609 2.66025 18.5753C3.05973 18.7904 3.52653 18.9211 4.10025 18.9785C4.39899 19.0083 15.7715 19.012 15.9603 18.9823C16.3796 18.9164 16.754 18.7969 17.0903 18.6217C18.0066 18.1441 18.6407 17.2852 18.8286 16.267C18.8704 16.0404 18.9026 15.3878 18.962 13.5601C18.9961 12.5085 19.0085 8.91161 18.9821 7.68805C18.9391 5.69331 18.8268 3.08219 18.7716 2.79387C18.6964 2.40121 18.52 2.06671 18.2347 1.77581C17.9766 1.51267 17.6663 1.32911 17.332 1.24173C17.0258 1.16173 15.6022 1.07161 13.8303 1.02007C13.2458 1.00307 10.4634 0.99843 9.90025 1.01349ZM10.6103 2.43215C9.14489 2.45749 7.04195 2.56045 6.72545 2.62237C6.51429 2.66367 6.32185 2.86071 6.29259 3.06553C6.27273 3.20457 6.20365 4.24333 6.16661 4.96011C6.12225 5.81831 6.11605 8.60825 6.15659 9.47011C6.19041 10.1894 6.26911 11.3744 6.32017 11.9333C6.34213 12.1736 6.36011 12.3847 6.36017 12.4024C6.36025 12.4318 6.50141 12.4358 7.91525 12.4464C8.77051 12.4528 9.65925 12.4672 9.89025 12.4785C11.5314 12.5586 12.8571 12.6687 13.0462 12.7405C13.3245 12.8463 13.5032 13.1078 13.5037 13.4101C13.5039 13.5276 13.4894 13.5886 13.4137 13.7901C13.204 14.3478 13.1264 14.8757 13.179 15.3865C13.2489 16.0642 13.4965 16.6076 13.9153 17.0027C14.0791 17.1572 14.1813 17.2302 14.36 17.3201C14.6688 17.4757 14.898 17.5354 15.2778 17.5595C15.9831 17.6043 16.4568 17.4415 16.9023 17.0013C17.1791 16.7277 17.3531 16.3941 17.4192 16.0101C17.4443 15.8643 17.4887 14.8112 17.5327 13.3201C17.5725 11.9697 17.5783 8.62921 17.543 7.34011C17.4989 5.72957 17.4013 3.36753 17.3686 3.12011C17.3414 2.91453 17.2029 2.72391 17.0266 2.64957C16.8987 2.59561 15.5266 2.50831 14.0603 2.46083C13.4147 2.43993 11.217 2.42167 10.6103 2.43215ZM9.02915 5.19967C8.81925 5.23105 8.64727 5.34497 8.53023 5.53011C8.44551 5.66413 8.41395 5.78981 8.42371 5.95409C8.43897 6.21107 8.60073 6.44575 8.84025 6.55839L8.95025 6.61011L11.7903 6.61619C13.9032 6.62071 14.6562 6.61629 14.7314 6.59891C14.9349 6.55195 15.1607 6.34485 15.23 6.14155C15.2747 6.01067 15.269 5.78533 15.2175 5.64587C15.1589 5.48683 14.9761 5.30377 14.8103 5.23783L14.6903 5.19011L11.9103 5.18733C10.3813 5.18581 9.08475 5.19137 9.02915 5.19967ZM8.92417 8.74277C8.73063 8.79855 8.53859 8.98565 8.45995 9.19507C8.33795 9.51995 8.50409 9.91703 8.83025 10.0801L8.93025 10.1301H11.8403H14.7503L14.8641 10.0742C15.0106 10.0023 15.164 9.83575 15.2188 9.68929C15.2757 9.53739 15.2749 9.32085 15.217 9.16587C15.1573 9.00603 14.9743 8.82309 14.8145 8.76335L14.6988 8.72011L11.8445 8.72191C10.102 8.72301 8.96451 8.73113 8.92417 8.74277ZM6.49025 13.8724C5.24065 13.8908 3.87043 13.9561 2.84109 14.0465L2.57195 14.0701L2.55523 14.1501C2.51225 14.3557 2.45771 14.7795 2.43713 15.0678C2.40291 15.5469 2.45661 16.057 2.57787 16.4047C2.66737 16.6614 2.78009 16.8423 2.96905 17.0325C3.12861 17.1932 3.17533 17.2271 3.36025 17.3167C3.58603 17.426 3.76541 17.4826 4.05025 17.5343C4.21213 17.5636 4.64669 17.5676 8.36525 17.5742C10.6395 17.5782 12.5003 17.5783 12.5003 17.5744C12.5003 17.5705 12.4511 17.4926 12.391 17.4013C11.9497 16.7305 11.737 15.9717 11.7375 15.0701C11.7377 14.7245 11.7809 14.2761 11.8322 14.0872C11.847 14.0327 11.832 14.0302 11.2403 13.991C9.83495 13.8979 7.95375 13.851 6.49025 13.8724Z" fill="#90A2B9"/>
</svg>
