<svg width="28" height="28" viewBox="0 0 28 28" fill="none" xmlns="http://www.w3.org/2000/svg">
<g clip-path="url(#clip0_3459_274)">
<path fill-rule="evenodd" clip-rule="evenodd" d="M12.838 0.840319C11.242 0.900239 8.84286 1.07112 8.16204 1.17341C6.13534 1.47788 4.40136 2.68972 3.59437 4.36569C3.30527 4.96609 3.20035 5.39023 3.06811 6.49369C2.72631 9.34518 2.70615 11.0669 2.98369 13.7037C3.06478 14.474 3.15096 15.1393 3.21024 15.4525C3.30776 15.9679 3.59406 16.6644 3.90396 17.1402C4.85381 18.5988 6.51698 19.582 8.41404 19.8065C8.94819 19.8697 10.4613 19.9843 11.774 20.0608C12.6234 20.1104 14.6134 20.1261 15.498 20.0903C16.8544 20.0354 19.0157 19.8822 19.6827 19.7936C20.4464 19.6922 21.0691 19.5044 21.77 19.1642C23.0758 18.5304 24.0846 17.4785 24.554 16.2613C24.7517 15.7487 24.8248 15.4059 24.932 14.4877C25.2368 11.8772 25.2854 10.3783 25.1289 8.41169C25.047 7.38115 24.8739 5.87959 24.7922 5.49042C24.5869 4.51255 24.1081 3.64483 23.368 2.90932C22.3755 1.92305 21.0881 1.32511 19.544 1.13331C19.0911 1.07703 17.5048 0.957359 16.352 0.892455C15.6536 0.853143 13.3907 0.819571 12.838 0.840319ZM12.628 2.85632C12.5433 2.86181 12.1905 2.8797 11.844 2.89611C10.4328 2.96289 8.64456 3.11392 8.20533 3.20343C7.47147 3.35298 6.71875 3.7183 6.23329 4.16056L6.06853 4.31064L6.27529 4.5086C7.5849 5.76258 9.56512 7.42138 11.074 8.52848C12.1262 9.30041 12.3905 9.47104 12.7727 9.62515C13.2091 9.80105 13.4786 9.85036 14 9.84957C14.6044 9.84865 14.9348 9.77601 15.442 9.53239C16.0216 9.25404 18.033 7.74294 19.614 6.39815C20.3787 5.74774 21.8974 4.38134 21.9181 4.32517C21.932 4.28754 21.6252 4.02543 21.3589 3.8473C20.9096 3.54672 20.3908 3.33069 19.8238 3.208C19.4536 3.12792 18.1831 3.01388 16.478 2.9077C15.8345 2.86763 13.0318 2.83022 12.628 2.85632ZM5.1237 6.21705C5.12353 6.2306 5.09867 6.43973 5.06849 6.68176C4.87758 8.21199 4.80736 9.21719 4.80573 10.4417C4.80411 11.677 4.87419 12.6949 5.06893 14.2637C5.16363 15.0265 5.18452 15.1466 5.26443 15.3878C5.64162 16.5263 6.83394 17.4746 8.23204 17.7479C8.73108 17.8455 10.5415 17.9914 12.2495 18.0717C13.0413 18.109 14.9588 18.109 15.7505 18.0717C17.1412 18.0063 19.1693 17.8514 19.614 17.7766C20.4729 17.6322 21.1993 17.2908 21.8347 16.733C22.3112 16.3147 22.6677 15.7349 22.8063 15.1528C22.8828 14.8315 23.0517 13.3468 23.1462 12.1637C23.213 11.3282 23.2131 9.60412 23.1465 8.77569C23.0805 7.95526 22.9475 6.68563 22.8876 6.30455L22.8711 6.19941L22.7225 6.33255C20.7204 8.12606 19.7114 8.96631 18.326 9.99372C16.974 10.9964 16.4952 11.2974 15.8778 11.533C14.7606 11.9593 13.4025 11.9787 12.264 11.5846C11.6032 11.3559 10.9861 10.9733 9.59004 9.92674C8.35921 9.00406 7.2188 8.06653 6.01141 6.98478C5.13182 6.19672 5.12406 6.19003 5.1237 6.21705ZM8.91244 21.8181C8.61018 21.9261 8.35529 22.1774 8.27311 22.4485C8.21115 22.6529 8.12785 23.2362 8.08918 23.7366C8.03234 24.4721 8.1092 25.6487 8.25094 26.2129C8.45052 27.0074 9.48641 27.239 9.99248 26.6022C10.2232 26.3119 10.2533 26.1174 10.1609 25.5164C10.1036 25.1439 10.0948 24.9873 10.0958 24.3577C10.0969 23.7487 10.1071 23.5663 10.1585 23.2419C10.2303 22.7897 10.2337 22.6687 10.18 22.4917C10.0568 22.0858 9.68641 21.7987 9.25714 21.7765C9.11275 21.7689 9.01803 21.7804 8.91244 21.8181ZM13.746 21.8042C13.4549 21.8867 13.2133 22.0957 13.0798 22.3803L13.006 22.5377V24.3717V26.2057L13.0811 26.3658C13.1866 26.5909 13.3764 26.7838 13.5875 26.8802C13.7357 26.9479 13.7979 26.96 14 26.96C14.2022 26.96 14.2644 26.9479 14.4126 26.8802C14.6236 26.7838 14.8135 26.5909 14.919 26.3658L14.994 26.2057V24.3711V22.5365L14.903 22.3517C14.737 22.0145 14.4279 21.8039 14.0642 21.7803C13.9538 21.7731 13.8203 21.7831 13.746 21.8042ZM18.522 21.8069C18.2261 21.9008 18.0111 22.0813 17.8747 22.3505C17.8046 22.4888 17.794 22.5409 17.794 22.7477C17.794 22.8786 17.819 23.1369 17.8495 23.3217C17.9347 23.8374 17.9295 24.9268 17.8391 25.5164C17.747 26.1159 17.7772 26.3122 18.0054 26.5994C18.1843 26.8245 18.4979 26.9757 18.7859 26.9757C19.191 26.9757 19.6141 26.6695 19.7265 26.2949C19.8292 25.9528 19.936 24.9719 19.936 24.3717C19.936 23.7715 19.8292 22.7906 19.7265 22.4485C19.5838 21.9728 18.9924 21.6578 18.522 21.8069Z" fill="#1D283D"/>
</g>
<defs>
<clipPath id="clip0_3459_274">
<rect width="28" height="28" fill="white"/>
</clipPath>
</defs>
</svg>
