<svg width="20" height="20" viewBox="0 0 20 20" fill="none" xmlns="http://www.w3.org/2000/svg">
<g clip-path="url(#clip0_3321_1693)">
<path fill-rule="evenodd" clip-rule="evenodd" d="M9.22995 0.681235C7.43011 0.787355 5.89943 1.20488 4.66677 1.92594C3.50053 2.60814 2.60813 3.50053 1.92593 4.66677C0.922435 6.38227 0.495274 8.73399 0.721074 11.3C0.852414 12.7923 1.28323 14.2344 1.92593 15.3331C2.60717 16.4978 3.50179 17.3925 4.66567 18.0733C6.38201 19.0773 8.75643 19.5079 11.31 19.2783C12.8098 19.1434 14.234 18.717 15.3342 18.0733C16.8884 17.1642 17.9997 15.8349 18.6559 14.1C19.2999 12.3973 19.5024 10.1962 19.2078 8.10281C18.8119 5.28933 17.4959 3.19102 15.3342 1.92658C13.9064 1.09134 12.0232 0.650255 9.93995 0.663115C9.69245 0.664655 9.37295 0.672795 9.22995 0.681235ZM9.29995 2.1117C9.25045 2.11574 9.08395 2.129 8.92995 2.14116C7.40805 2.26134 6.01481 2.71285 4.97995 3.42127C3.59025 4.37261 2.68531 5.84186 2.30151 7.76995C2.15491 8.50649 2.10995 9.02975 2.10995 9.99995C2.10995 10.4974 2.11959 10.89 2.13599 11.06C2.26225 12.3686 2.52351 13.3506 2.99565 14.291C3.74031 15.7743 4.96273 16.8194 6.61813 17.3881C7.32889 17.6323 8.03147 17.7763 8.93995 17.8639C9.30275 17.8989 10.6972 17.8989 11.06 17.8639C12.9126 17.6852 14.2852 17.1875 15.408 16.2875C16.7036 15.249 17.5282 13.6415 17.7975 11.63C17.878 11.0284 17.8895 10.8258 17.8895 9.99995C17.8895 9.48413 17.8801 9.09551 17.8636 8.92995C17.7323 7.61179 17.4745 6.64551 17.0043 5.70887C16.2596 4.22561 15.0372 3.1805 13.3818 2.6118C12.6932 2.37524 12.0436 2.23836 11.18 2.14784C10.9085 2.1194 9.53037 2.0929 9.29995 2.1117ZM9.50995 3.23148C9.14399 3.25834 8.84263 3.28688 8.66995 3.31102C6.44453 3.62216 4.82417 4.72023 3.94949 6.50995C3.42725 7.57853 3.19237 8.79282 3.22603 10.25C3.23237 10.525 3.24639 10.8175 3.25719 10.9C3.26797 10.9825 3.28713 11.1355 3.29975 11.24C3.49445 12.8516 4.18003 14.2657 5.20927 15.1784C6.20335 16.06 7.41101 16.5554 8.99995 16.7335C9.38831 16.777 10.5642 16.7829 10.92 16.7431C11.8396 16.6403 12.5405 16.4679 13.2152 16.1786C14.9722 15.4253 16.1375 13.9634 16.5779 11.96C16.791 10.9907 16.8359 9.79739 16.6995 8.72847C16.4949 7.12499 15.812 5.72725 14.7906 4.82149C13.768 3.91461 12.5537 3.42835 10.89 3.25955C10.6842 3.23867 9.68809 3.21842 9.50995 3.23148ZM9.30995 4.68213C7.89239 4.78865 6.76525 5.25921 5.97925 6.07261C5.76861 6.2906 5.43995 6.71473 5.43995 6.76857C5.43995 6.77379 5.48269 6.77383 5.53495 6.76865C5.64059 6.75817 6.58383 6.71723 7.88995 6.66641C8.92307 6.62623 11.0287 6.62115 12.09 6.65629C12.9531 6.68488 13.841 6.71789 14.245 6.73641C14.4072 6.74387 14.54 6.74651 14.54 6.74231C14.5399 6.68723 14.2367 6.2962 14.0207 6.07261C13.2238 5.24799 12.1119 4.78887 10.65 4.68081C10.3293 4.65711 9.63377 4.65779 9.30995 4.68213ZM8.82995 8.07329C8.74195 8.07621 8.37745 8.08823 8.01995 8.10001C7.28381 8.12427 5.74025 8.19057 5.22995 8.21985C5.04295 8.23059 4.87967 8.23949 4.86711 8.23965C4.84271 8.23997 4.77931 8.54753 4.73101 8.89995C4.69475 9.16451 4.65995 9.66327 4.65995 9.91845V10.1138L4.93311 10.1269C5.08335 10.1341 5.38889 10.14 5.61209 10.14C6.03969 10.14 6.35923 10.1708 6.65995 10.2411C7.78853 10.5048 8.61425 11.198 8.92979 12.1465C9.07675 12.5883 9.09837 12.8333 9.11389 14.2334L9.12569 15.2968L9.29781 15.3134C9.51129 15.3339 10.5766 15.3339 10.7023 15.3134L10.7947 15.2983L10.8061 14.1941C10.8181 13.0396 10.8323 12.7796 10.9014 12.4516C11.1113 11.456 11.8569 10.6776 12.93 10.3338C13.3734 10.1917 13.752 10.14 14.3492 10.1399C14.5806 10.1398 14.8982 10.1339 15.055 10.1268L15.34 10.1137L15.3398 9.91183C15.3393 9.47427 15.2697 8.79425 15.1838 8.39007L15.1499 8.23019L15.0399 8.21613C14.8327 8.18965 13.0127 8.11737 11.61 8.07993C10.9588 8.06255 9.27583 8.05853 8.82995 8.07329ZM9.79979 8.80843C9.61147 8.86045 9.43723 9.01463 9.34599 9.20995L9.28995 9.32996V9.99995V10.67L9.34599 10.79C9.43949 10.9901 9.61203 11.1401 9.80919 11.1927C10.1558 11.285 10.4992 11.1213 10.6539 10.79L10.71 10.67V9.99995V9.32996L10.6539 9.20995C10.4987 8.87755 10.1474 8.71241 9.79979 8.80843ZM4.81171 11.615C4.89913 11.999 4.97899 12.2638 5.09355 12.5493C5.53669 13.6537 6.34869 14.4642 7.45789 14.9093C7.58327 14.9596 7.68915 14.9974 7.69321 14.9934C7.70819 14.9784 7.65871 13.0648 7.63961 12.92C7.58175 12.4811 7.38631 12.1609 7.03151 11.9236C6.61823 11.6471 6.18759 11.5605 5.22457 11.5601L4.79919 11.56L4.81171 11.615ZM14.02 11.581C13.4003 11.6178 12.9422 11.807 12.609 12.1636C12.3746 12.4145 12.2916 12.6498 12.2611 13.15C12.2269 13.711 12.2104 15.02 12.2376 15.02C12.2507 15.02 12.3668 14.9786 12.4956 14.9281C13.8662 14.3908 14.769 13.3318 15.1365 11.83C15.1581 11.742 15.1813 11.6452 15.1882 11.615L15.2007 11.56L14.7353 11.563C14.4794 11.5647 14.1575 11.5728 14.02 11.581Z" fill="white"/>
</g>
<defs>
<clipPath id="clip0_3321_1693">
<rect width="20" height="20" fill="white"/>
</clipPath>
</defs>
</svg>
