<svg width="20" height="20" viewBox="0 0 20 20" fill="none" xmlns="http://www.w3.org/2000/svg">
<g clip-path="url(#clip0_3321_1703)">
<path fill-rule="evenodd" clip-rule="evenodd" d="M9.22995 0.681235C7.43011 0.787355 5.89943 1.20488 4.66677 1.92594C3.50053 2.60814 2.60813 3.50053 1.92593 4.66677C0.922435 6.38227 0.495274 8.73399 0.721074 11.3C0.852414 12.7923 1.28323 14.2344 1.92593 15.3331C2.60717 16.4978 3.50179 17.3925 4.66567 18.0733C6.38201 19.0773 8.75643 19.5079 11.31 19.2783C12.8098 19.1434 14.234 18.717 15.3342 18.0733C16.8884 17.1642 17.9997 15.8349 18.6559 14.1C19.2999 12.3973 19.5024 10.1962 19.2078 8.10281C18.8119 5.28933 17.4959 3.19102 15.3342 1.92658C13.9064 1.09134 12.0232 0.650255 9.93995 0.663115C9.69245 0.664655 9.37295 0.672795 9.22995 0.681235ZM9.29995 2.1117C9.25045 2.11574 9.08395 2.129 8.92995 2.14116C7.40805 2.26134 6.01481 2.71285 4.97995 3.42127C3.59025 4.37261 2.68531 5.84186 2.30151 7.76995C2.15491 8.50649 2.10995 9.02975 2.10995 9.99995C2.10995 10.8054 2.12295 11.0358 2.20193 11.63C2.37445 12.928 2.80097 14.1138 3.42127 15.02C3.56785 15.2341 3.83155 15.5599 4.03479 15.778L4.19135 15.946L4.53065 15.6063C5.17323 14.963 5.72729 14.5595 6.54519 14.1392L6.84041 13.9875L6.64385 13.8546C5.63591 13.1727 4.95469 12.113 4.69317 10.82C4.50695 9.89929 4.50221 8.77599 4.68069 7.85995C4.98927 6.27613 5.89661 5.06095 7.24995 4.41905C7.93319 4.09499 8.65873 3.92821 9.59917 3.87907C11.0382 3.80387 12.3439 4.10719 13.29 4.73645C14.5196 5.55434 15.1961 6.76267 15.3913 8.48995C15.4561 9.06297 15.4282 10.0001 15.3285 10.5999C15.0974 11.9906 14.3963 13.1373 13.3406 13.8515L13.1439 13.9846L13.3827 14.1021C14.1945 14.5017 14.9231 15.0332 15.5478 15.6816L15.8056 15.9492L15.9636 15.7796C16.1683 15.56 16.4317 15.2345 16.5786 15.02C17.1998 14.1125 17.6226 12.9368 17.7975 11.63C17.878 11.0284 17.8895 10.8258 17.8895 9.99995C17.8895 9.48413 17.8801 9.09551 17.8636 8.92995C17.7323 7.61179 17.4745 6.64551 17.0043 5.70887C16.2596 4.22561 15.0372 3.1805 13.3818 2.6118C12.6932 2.37524 12.0436 2.23836 11.18 2.14784C10.9085 2.1194 9.53037 2.0929 9.29995 2.1117ZM9.44995 5.32045C8.35509 5.41809 7.56763 5.74705 6.97791 6.35313C6.44699 6.89879 6.16207 7.54794 6.02683 8.51995C5.97795 8.87123 5.97795 9.74867 6.02683 10.1C6.10213 10.6412 6.21757 11.054 6.40105 11.438C6.69537 12.0542 7.19681 12.5676 7.79901 12.8693C8.50035 13.2207 9.47347 13.3767 10.481 13.2993C11.5841 13.2146 12.3634 12.8991 12.9712 12.2912C13.3144 11.9481 13.531 11.6087 13.7058 11.14C14.0952 10.0959 14.0953 8.52309 13.7059 7.47995C13.5308 7.01105 13.3144 6.67187 12.9712 6.32853C12.4236 5.78065 11.7591 5.48123 10.8 5.35027C10.5254 5.31279 9.73235 5.29527 9.44995 5.32045ZM8.18683 7.65957C7.97533 7.70449 7.75549 7.89293 7.67999 8.09401C7.62547 8.23919 7.60473 8.58493 7.63783 8.79643C7.67745 9.04945 7.81221 9.24239 8.02903 9.35655C8.11961 9.40423 8.15147 9.40969 8.33995 9.40981C8.52269 9.40993 8.56293 9.40357 8.64995 9.36081C8.78467 9.29459 8.93081 9.14423 8.99607 9.00467C9.04499 8.90003 9.05033 8.86447 9.05685 8.59995C9.06731 8.17523 9.02495 8.03067 8.83591 7.84597C8.67477 7.68853 8.40931 7.61229 8.18683 7.65957ZM11.4454 7.66951C11.3512 7.69597 11.246 7.75271 11.1584 7.82419C11.0833 7.88547 10.9806 8.04763 10.9498 8.15331C10.9235 8.24381 10.918 8.33281 10.9233 8.57935C10.9298 8.88513 10.9312 8.89351 10.9957 9.02441C11.0684 9.17203 11.1873 9.29041 11.3367 9.36401C11.4151 9.40265 11.4617 9.40995 11.63 9.40995C11.8046 9.40995 11.8439 9.40329 11.94 9.35745C12.0719 9.29449 12.2068 9.16407 12.2712 9.03719C12.3868 8.80961 12.39 8.27755 12.2772 8.04417C12.2161 7.91773 12.063 7.76827 11.9341 7.70927C11.7974 7.64669 11.5874 7.62961 11.4454 7.66951ZM8.43295 10.2022C8.21543 10.2358 7.98603 10.412 7.89489 10.6156C7.83069 10.759 7.82305 11.0173 7.87883 11.1578C7.94527 11.3253 8.05227 11.4747 8.23875 11.6605C8.57101 11.9915 8.94991 12.1894 9.46995 12.3035C9.63235 12.3391 10.3476 12.3391 10.51 12.3035C11.2262 12.1463 11.7959 11.7558 12.0636 11.2383C12.1258 11.1181 12.13 11.0973 12.13 10.91C12.13 10.7315 12.1239 10.6977 12.0741 10.5962C11.9566 10.357 11.7021 10.1967 11.4395 10.1965C11.1937 10.1964 10.9943 10.3011 10.8384 10.5121C10.6552 10.7601 10.4639 10.8659 10.14 10.8983C9.70965 10.9415 9.35103 10.81 9.16145 10.5398C8.97855 10.279 8.71793 10.1583 8.43295 10.2022ZM9.28995 14.7928C8.11883 14.9322 7.01271 15.3904 6.11129 16.1098C5.88195 16.2928 5.61703 16.5344 5.47219 16.6926L5.35991 16.8153L5.40593 16.8455C5.47561 16.8911 5.92503 17.1142 6.12199 17.2009C6.71261 17.4608 7.58441 17.6922 8.36995 17.7976C8.95971 17.8767 9.19295 17.89 9.99995 17.89C10.807 17.89 11.0402 17.8767 11.63 17.7976C12.4155 17.6922 13.2873 17.4608 13.8779 17.2009C14.0749 17.1142 14.5243 16.8911 14.594 16.8455L14.64 16.8153L14.5277 16.6926C14.3829 16.5344 14.118 16.2928 13.8886 16.1098C12.9765 15.3819 11.8703 14.9272 10.68 14.7909C10.3426 14.7523 9.62237 14.7533 9.28995 14.7928Z" fill="white"/>
</g>
<defs>
<clipPath id="clip0_3321_1703">
<rect width="20" height="20" fill="white"/>
</clipPath>
</defs>
</svg>
