<svg width="20" height="20" viewBox="0 0 20 20" fill="none" xmlns="http://www.w3.org/2000/svg">
<g clip-path="url(#clip0_3321_1676)">
<path fill-rule="evenodd" clip-rule="evenodd" d="M6.96037 0.680659C5.97863 0.773859 5.22753 1.06802 4.59913 1.60542C4.05935 2.06704 3.66513 2.72958 3.46795 3.5065C3.30643 4.143 3.27547 5.07232 3.39225 5.78C3.67629 7.5014 4.81809 8.63778 6.54753 8.92032C6.92671 8.98226 7.42517 9.00576 7.82821 8.9807C8.72555 8.92488 9.40431 8.71974 10.0004 8.32422C10.8554 7.75682 11.3677 6.92928 11.5752 5.78C11.6241 5.5089 11.6276 5.44894 11.629 4.86C11.6299 4.42794 11.6219 4.17344 11.6035 4.05C11.4566 3.06712 11.1272 2.36308 10.5415 1.77992C10.2482 1.48786 10.0073 1.31096 9.66037 1.13284C9.24319 0.918659 8.79355 0.782879 8.26037 0.710059C7.98563 0.672539 7.22667 0.655379 6.96037 0.680659ZM7.05037 2.11208C6.25373 2.22348 5.84329 2.39404 5.45321 2.77576C5.12903 3.093 4.93199 3.49168 4.81611 4.0649C4.77545 4.26604 4.77059 4.3475 4.77059 4.83C4.77059 5.31132 4.77551 5.39426 4.81577 5.5933C5.02321 6.61898 5.56727 7.21084 6.52037 7.44768C6.92741 7.54882 7.45501 7.58386 7.90325 7.5395C8.59817 7.47076 9.10451 7.26656 9.48779 6.90052C9.92481 6.48316 10.1446 5.93738 10.2011 5.12888C10.2579 4.3157 10.1013 3.5753 9.76695 3.07698C9.44437 2.59618 8.91561 2.28144 8.22037 2.15638C8.04381 2.12462 7.88813 2.1137 7.55037 2.10934C7.30837 2.10624 7.08337 2.10746 7.05037 2.11208ZM7.15037 10.1523C5.27475 10.2265 3.58077 10.7435 2.03199 11.7144C1.69975 11.9227 1.51675 12.0612 1.33929 12.2388C0.631391 12.9473 0.464971 13.9695 0.911911 14.8642C1.25575 15.5526 1.93321 16.1042 2.71201 16.3299C3.15421 16.4581 2.89805 16.45 6.53037 16.45H9.83037L9.93037 16.4C10.0667 16.3318 10.2119 16.1829 10.2766 16.0447C10.3225 15.9468 10.3304 15.9036 10.3304 15.75C10.3304 15.5962 10.3225 15.5532 10.2763 15.4546C10.2126 15.3187 10.067 15.1701 9.92891 15.1L9.83037 15.05L6.62037 15.0382C3.16495 15.0254 3.33747 15.0309 3.03993 14.9247C2.58819 14.7635 2.27015 14.465 2.13991 14.08C2.10411 13.9742 2.09775 13.92 2.10569 13.789C2.12875 13.4085 2.35295 13.1715 3.08629 12.7522C5.63993 11.2922 8.74733 11.1926 11.3704 12.4867C11.9563 12.7757 12.4366 13.0761 12.6111 13.2624C12.735 13.3947 12.7826 13.4726 12.8419 13.64C12.9011 13.8071 12.9542 13.8917 13.0601 13.9874C13.243 14.1526 13.4909 14.2147 13.7115 14.1505C13.9482 14.0817 14.0811 13.9684 14.1846 13.7472C14.2659 13.5735 14.2684 13.3935 14.1927 13.162C14.0153 12.619 13.6823 12.211 13.1021 11.8255C11.7029 10.896 9.98069 10.3064 8.30037 10.1817C7.98873 10.1585 7.38353 10.1431 7.15037 10.1523ZM18.3868 11.9771C18.2266 12.0325 18.0957 12.1456 17.4694 12.77C16.7417 13.4956 16.3307 13.9841 15.8874 14.65C15.4027 15.3782 14.9564 16.2544 14.5854 17.2066L14.5478 17.3031L13.9019 16.6366C13.1648 15.8759 13.0849 15.7994 12.9676 15.7407C12.7871 15.6506 12.514 15.6514 12.3351 15.7427C12.2124 15.8053 12.074 15.946 12.0089 16.0744C11.9564 16.1781 11.9504 16.2096 11.9504 16.38C11.9504 16.6597 11.9851 16.7221 12.3527 17.1028C14.1342 18.9481 14.3845 19.199 14.5028 19.2581C14.8357 19.4244 15.2318 19.3138 15.431 18.9989C15.4557 18.9597 15.5276 18.7842 15.5907 18.6089C16.0225 17.4089 16.4611 16.4416 16.8963 15.73C17.3648 14.9638 17.9654 14.2517 18.8113 13.4591C19.1312 13.1594 19.2099 13.0746 19.2584 12.9777C19.4162 12.6619 19.3283 12.2945 19.0437 12.0807C18.8594 11.9422 18.6043 11.9019 18.3868 11.9771Z" fill="#90A2B9"/>
</g>
<defs>
<clipPath id="clip0_3321_1676">
<rect width="20" height="20" fill="white"/>
</clipPath>
</defs>
</svg>
