<svg preserveAspectRatio="none" width="100%" height="100%" overflow="visible" style="display: block;" viewBox="0 0 28 28" fill="none" xmlns="http://www.w3.org/2000/svg">
<g id="CarsTrafficJam" clip-path="url(#clip0_0_8)">
<path id="Vector" fill-rule="evenodd" clip-rule="evenodd" d="M16.282 0.952644C15.581 0.984676 14.6112 1.0596 14.4496 1.09427C14.1715 1.15391 13.9278 1.35489 13.7732 1.652C13.7175 1.7591 13.7076 1.82 13.7068 2.058C13.7061 2.3081 13.7143 2.35483 13.7834 2.49553C13.8693 2.67033 14.0719 2.87613 14.2453 2.96458C14.4338 3.06074 14.6396 3.0774 15.1337 3.03654C16.7065 2.90648 18.6904 2.90744 20.286 3.03904C20.8316 3.08403 20.9709 3.11534 21.2232 3.24985C21.6118 3.45696 21.7915 3.73425 22.1293 4.648C22.3567 5.26316 22.7358 6.51042 22.7032 6.53612C22.6982 6.54013 22.6258 6.57997 22.5424 6.62463C22.2402 6.78661 22.0751 7.01142 22.008 7.35249C21.9476 7.65943 22.0406 7.95155 22.28 8.20758C22.4426 8.38135 22.6267 8.46614 22.9648 8.52295C23.49 8.6112 23.88 8.77391 24.2383 9.05422C24.4278 9.20251 24.6493 9.46042 24.7434 9.64239C24.9296 10.0026 25.0596 10.9605 25.0599 11.9749C25.06 12.4841 25.0326 12.6179 24.859 12.9566C24.6394 13.3847 24.6182 13.684 24.7838 14.0157C25.077 14.6026 25.8892 14.74 26.3673 14.2835C26.5404 14.1183 26.8096 13.6098 26.9177 13.244C27.0548 12.78 27.0622 12.7108 27.0587 11.914C27.0553 11.1243 27.0121 10.5637 26.9045 9.912C26.7111 8.74045 26.1422 7.88799 25.0987 7.20586C24.885 7.06616 24.8702 7.05012 24.8527 6.93764C24.8158 6.70222 24.607 5.83002 24.4821 5.39C24.2274 4.49324 23.7544 3.20628 23.5357 2.81509C23.0758 1.99276 22.2923 1.40109 21.3438 1.15987C21.0829 1.09354 20.5366 1.03564 19.642 0.97944C18.9991 0.939064 16.9394 0.922628 16.282 0.952644ZM12.222 6.13561C11.453 6.17571 10.771 6.2398 10.6467 6.28365C10.385 6.37596 10.1731 6.57854 10.0439 6.86C9.99986 6.95576 9.98581 7.04385 9.98525 7.22714C9.98458 7.44335 9.9939 7.48734 10.0754 7.65293C10.1984 7.9028 10.4089 8.08976 10.6655 8.17715L10.8569 8.24228L11.4974 8.19451C12.6685 8.10718 13.9059 8.07845 14.9335 8.11474C16.035 8.15366 16.9181 8.21783 17.148 8.27565C17.4985 8.36382 17.8415 8.60213 18.0331 8.89067C18.107 9.00194 18.4394 9.85068 18.6154 10.3775C18.766 10.8284 18.9848 11.5999 18.9829 11.6737C18.9822 11.699 18.92 11.747 18.8373 11.7859C18.6485 11.8745 18.4813 12.0448 18.3797 12.2515C18.3068 12.4 18.298 12.4467 18.298 12.684C18.2981 12.9224 18.3065 12.9667 18.38 13.1118C18.4711 13.2919 18.6648 13.4886 18.8379 13.5769C18.9005 13.6088 19.0567 13.6533 19.1849 13.6757C19.7228 13.7697 20.0181 13.8743 20.3416 14.0855C20.7502 14.3523 21.037 14.719 21.1506 15.12C21.2459 15.4565 21.3217 16.1453 21.3508 16.94C21.3733 17.5547 21.3386 17.7502 21.1368 18.1448L20.9868 18.438L20.9864 18.718C20.9861 18.9617 20.9954 19.018 21.0586 19.152C21.1551 19.3564 21.3375 19.5337 21.5584 19.6375C21.7109 19.7092 21.7715 19.7221 21.9504 19.7209C22.4227 19.7179 22.7186 19.4922 22.9981 18.922C23.3101 18.2857 23.3661 17.9551 23.3434 16.8863C23.3134 15.4785 23.1584 14.5605 22.8459 13.9392C22.5449 13.3409 22.0112 12.7671 21.385 12.3685C21.2656 12.2925 21.168 12.2252 21.168 12.2189C21.168 12.1485 20.9336 11.1516 20.8172 10.7265C20.5694 9.82257 20.1285 8.58446 19.8764 8.08478C19.4207 7.18178 18.5165 6.50112 17.4918 6.28975C17.2534 6.24058 16.5071 6.17683 15.652 6.13262C15.0168 6.09974 12.874 6.10162 12.222 6.13561ZM9.114 10.2667C8.38561 10.2911 7.25561 10.3701 6.93 10.4194C6.21267 10.5282 5.52325 10.8807 4.99649 11.4082C4.5843 11.8209 4.38998 12.1557 4.05292 13.034C3.69712 13.9612 3.38582 15.0085 3.19152 15.932C3.14457 16.1553 3.09912 16.3609 3.09056 16.389C3.08199 16.417 3.00367 16.4851 2.91648 16.5403C2.26951 16.9499 1.71142 17.5611 1.41618 18.1833C1.15937 18.7244 1.02729 19.4113 0.952504 20.594C0.871136 21.8812 0.964096 22.4997 1.34532 23.2074C1.80754 24.0656 2.63346 24.7217 3.58957 24.9903L3.74914 25.0351L3.75757 25.6846C3.76575 26.3156 3.76804 26.3384 3.83827 26.4881C3.91964 26.6615 4.12737 26.8841 4.28103 26.9625C4.69028 27.1713 5.24616 27.0533 5.52504 26.6984C5.70598 26.4682 5.72471 26.3865 5.74 25.7609L5.754 25.1877L5.992 25.1945C6.1229 25.1982 6.671 25.2139 7.21 25.2296C9.01849 25.282 13.9752 25.2539 14.679 25.1872L14.812 25.1746L14.8126 25.6003C14.8135 26.3103 14.8693 26.5196 15.1262 26.7767C15.4997 27.1506 16.0657 27.1677 16.4942 26.8181C16.5973 26.7339 16.7428 26.5066 16.7838 26.3654C16.8178 26.2484 16.828 26.0783 16.828 25.6266V25.0399L17.143 24.9359C18.4008 24.5207 19.3018 23.5267 19.5775 22.2498C19.6909 21.7251 19.6447 20.2674 19.484 19.2923C19.4029 18.8005 19.3153 18.5172 19.1248 18.13C18.8062 17.4825 18.2879 16.9266 17.6207 16.5165L17.4556 16.4151L17.4039 16.1385C17.2688 15.4152 16.9081 14.138 16.6167 13.3509C16.2012 12.2282 15.9992 11.8567 15.568 11.422C15.0442 10.8939 14.3923 10.5524 13.678 10.4319C12.9052 10.3015 10.5871 10.2176 9.114 10.2667ZM8.652 12.2953C7.94674 12.3304 7.19664 12.4 7.05323 12.4436C6.71594 12.5462 6.35673 12.8247 6.2071 13.0996C6.09336 13.3086 5.79149 14.0991 5.60669 14.672C5.43152 15.215 5.275 15.7843 5.2953 15.8046C5.30186 15.8112 5.48335 15.7987 5.69862 15.777C7.13087 15.6322 8.62758 15.5616 10.276 15.5609C11.9417 15.5603 13.5265 15.6344 14.8801 15.7763C15.0813 15.7974 15.2512 15.8097 15.2575 15.8036C15.2794 15.7822 15.0864 15.1014 14.8969 14.532C14.6899 13.91 14.4577 13.3082 14.3434 13.0973C14.1957 12.825 13.8349 12.5457 13.4988 12.4437C13.0419 12.305 10.2034 12.2181 8.652 12.2953ZM9.604 17.5746C7.80573 17.6038 5.16121 17.8105 4.63084 17.9633C3.80615 18.2009 3.23753 18.7558 3.09711 19.46C2.97441 20.0752 2.89526 21.5367 2.96629 21.8754C3.07888 22.4122 3.56611 22.9067 4.13258 23.0588C4.31077 23.1067 5.12767 23.1531 6.902 23.2161C8.20823 23.2625 12.355 23.2627 13.65 23.2164C15.3777 23.1546 16.2719 23.1043 16.4347 23.0598C16.7285 22.9795 16.941 22.852 17.1803 22.6125C17.4253 22.3674 17.5232 22.2006 17.6011 21.896C17.6784 21.5941 17.6329 20.4745 17.5102 19.656C17.4113 18.9965 17.1284 18.57 16.5612 18.2255C16.1732 17.9897 15.8696 17.9096 15.036 17.8228C13.3253 17.6446 11.2188 17.5484 9.604 17.5746ZM5.0157 19.6302C4.73116 19.6861 4.44934 19.9046 4.312 20.1758C4.25054 20.2971 4.242 20.3499 4.242 20.608C4.242 20.8661 4.25054 20.9189 4.312 21.0402C4.39494 21.204 4.60933 21.4271 4.75524 21.5016C4.95614 21.6041 5.15477 21.6209 6.04867 21.6112L6.90337 21.602L7.08812 21.511C7.308 21.4027 7.48028 21.2262 7.58218 21.0049C7.68667 20.7779 7.68698 20.4388 7.58288 20.2126C7.44548 19.9142 7.2009 19.7108 6.89212 19.6381C6.71098 19.5955 5.22427 19.5892 5.0157 19.6302ZM13.6975 19.6288C13.408 19.6883 13.1219 19.9161 12.995 20.188C12.8937 20.4051 12.8799 20.7281 12.9626 20.9483C13.0399 21.1543 13.174 21.3209 13.3665 21.4503C13.597 21.6052 13.7502 21.6232 14.742 21.6117L15.582 21.602L15.7531 21.5229C15.9329 21.4399 16.134 21.2546 16.2315 21.0823C16.5055 20.598 16.2773 19.9353 15.7531 19.6931L15.582 19.614L14.7 19.609C14.2149 19.6063 13.7638 19.6152 13.6975 19.6288Z" fill="var(--fill-0, #2B7FFF)"/>
</g>
<defs>
<clipPath id="clip0_0_8">
<rect width="28" height="28" fill="white"/>
</clipPath>
</defs>
</svg>
