<svg width="20" height="14" viewBox="0 0 20 14" fill="none" xmlns="http://www.w3.org/2000/svg">
<path fill-rule="evenodd" clip-rule="evenodd" d="M12.934 0.0506183C12.675 0.145692 12.5331 0.289204 12.4327 0.557414C12.3695 0.726399 12.3866 0.995361 12.4721 1.17465C12.5613 1.36186 12.6822 1.47139 12.9739 1.62925C13.7291 2.03785 14.3833 2.49203 15.0934 3.10072C16.0409 3.91297 16.9021 4.85978 17.6027 5.85958L17.8184 6.16744L9.21471 6.17894C2.43568 6.18797 0.594198 6.19643 0.531715 6.21878C0.41901 6.25908 0.248288 6.38913 0.163281 6.49942C-0.0563083 6.78432 -0.054176 7.22028 0.168257 7.50993C0.238647 7.60158 0.408482 7.72603 0.53327 7.77741C0.599351 7.80462 1.90099 7.81112 9.21428 7.82081L17.8176 7.83221L17.6349 8.09447C16.8309 9.2489 15.7984 10.3505 14.6921 11.2343C14.197 11.6298 13.6015 12.0253 13.0301 12.3383C12.8605 12.4312 12.6798 12.5487 12.6287 12.5994C12.4924 12.7344 12.4122 12.9181 12.3993 13.1246C12.3863 13.333 12.4185 13.4596 12.5291 13.6354C12.6262 13.7896 12.7547 13.8878 12.9455 13.9538C13.2087 14.0449 13.3616 14.0112 13.8138 13.7627C14.988 13.1173 16.0199 12.3216 17.1111 11.2198C18.2815 10.0382 19.1411 8.87419 19.8149 7.55855C20.0967 7.00838 20.0817 6.90366 19.5956 6.03061C18.953 4.87645 18.1669 3.84783 17.1109 2.77931C16.0276 1.68327 15.0068 0.895772 13.8162 0.237642C13.3633 -0.0126655 13.2004 -0.0472152 12.934 0.0506183Z" fill="#F1F5F9"/>
</svg>
