<svg width="160" height="64" viewBox="0 0 160 64" fill="none" xmlns="http://www.w3.org/2000/svg">
<path d="M9.25977 12.6267C18.591 10.0993 28.3488 10.081 37.8303 12.6262L38.923 12.9193V27.2672C35.6207 22.29 29.9673 19.0083 23.5467 19.0083C17.1261 19.0083 11.4727 22.29 8.17041 27.2672V12.9221L9.25977 12.6267Z" fill="url(#paint0_linear_2891_575)"/>
<path d="M29.2207 38.5834C30.45 38.6847 32.2846 39.2805 33.1925 40.853L36.3043 46.2433H36.5969V44.9921C36.5969 44.4469 36.9847 43.9745 37.5222 43.8828C38.8671 43.6534 39.6533 43.632 41.1361 43.9737C41.7035 44.1044 42.5546 44.5411 42.5546 45.6759C42.5546 46.8331 41.7035 47.0807 41.1361 47.0739H38.8665V47.9455C39.2447 47.9455 40.0013 48.1724 40.0013 49.0803C40.0013 50.2151 40.5687 56.4565 37.448 59.2935V62.1305C37.448 62.7572 36.9399 63.2652 36.3132 63.2652H33.1925C32.5657 63.2652 32.0577 62.7572 32.0577 62.1305V60.1446H15.0357V62.1305C15.0357 62.7572 14.5276 63.2652 13.9009 63.2652H10.7802C10.1535 63.2652 9.64541 62.7572 9.64541 62.1305V59.2935C6.52472 56.4565 7.09211 50.2151 7.09211 49.0803C7.09211 48.1724 7.84865 47.9455 8.22691 47.9455V47.0739H5.95732C5.38992 47.0807 4.53882 46.8331 4.53882 45.6759C4.53882 44.5411 5.38992 44.1044 5.95732 43.9737C7.44009 43.632 8.2263 43.6534 9.57116 43.8828C10.1087 43.9745 10.4965 44.4469 10.4965 44.9921V46.2433H10.7891L13.9009 40.853C14.8087 39.2805 16.3596 38.6847 17.589 38.5834H29.2207Z" fill="#18427E"/>
<path d="M19.8586 56.542H27.802V54.8398H28.9368V57.9609H18.7239V54.8398H19.8586V56.542ZM10.6174 49.6123L17.5627 50.7695C17.85 50.8174 18.0013 51.1375 17.8557 51.3896L16.3547 53.9893C15.915 54.5206 14.5821 55.3212 12.7668 54.2734L10.0627 52.7119C9.80469 52.5629 9.64575 52.2873 9.64575 51.9893V50.4346C9.64596 49.9192 10.109 49.5276 10.6174 49.6123ZM37.0442 49.6123C37.5526 49.5277 38.0147 49.9192 38.0149 50.4346V51.9893C38.0149 52.2873 37.856 52.5629 37.5979 52.7119L34.8948 54.2725C33.0791 55.3207 31.7456 54.5206 31.3059 53.9893L29.8049 51.3896C29.6594 51.1375 29.8107 50.8174 30.0979 50.7695L37.0442 49.6123ZM29.5042 40.002C30.8659 40.002 31.8094 41.0053 32.1106 41.5068L34.5334 45.7031C34.694 45.9812 34.4932 46.3291 34.1721 46.3291H13.4885C13.1677 46.3288 12.9678 45.982 13.1282 45.7041L15.551 41.5068C15.8522 41.0054 16.7949 40.0021 18.1565 40.002H29.5042Z" fill="white"/>
<path d="M23.5467 22.4125C31.8509 22.4125 38.5828 29.1444 38.5828 37.4486C38.5828 39.1654 38.2937 40.8145 37.7638 42.3513L37.274 42.4289C36.831 42.5045 36.4348 42.6889 36.1065 42.9497L36.014 42.7902C36.7173 41.1508 37.1078 39.3454 37.1078 37.4486C37.1078 29.9592 31.0361 23.8876 23.5467 23.8876C16.0573 23.8876 9.98564 29.9592 9.98564 37.4486C9.98564 39.3451 10.3753 41.1505 11.0783 42.7896L10.9864 42.9497C10.6875 42.7123 10.3325 42.5379 9.93688 42.4516L9.81941 42.4289L9.32904 42.3513C8.79922 40.8146 8.51063 39.1653 8.51063 37.4486C8.51063 29.1444 15.2425 22.4125 23.5467 22.4125Z" fill="black"/>
<path d="M23.5467 22.4125C31.8509 22.4125 38.5828 29.1444 38.5828 37.4486C38.5828 39.1654 38.2937 40.8145 37.7638 42.3513L37.274 42.4289C36.831 42.5045 36.4348 42.6889 36.1065 42.9497L36.014 42.7902C36.7173 41.1508 37.1078 39.3454 37.1078 37.4486C37.1078 29.9592 31.0361 23.8876 23.5467 23.8876C16.0573 23.8876 9.98564 29.9592 9.98564 37.4486C9.98564 39.3451 10.3753 41.1505 11.0783 42.7896L10.9864 42.9497C10.6875 42.7123 10.3325 42.5379 9.93688 42.4516L9.81941 42.4289L9.32904 42.3513C8.79922 40.8146 8.51063 39.1653 8.51063 37.4486C8.51063 29.1444 15.2425 22.4125 23.5467 22.4125Z" fill="url(#paint1_radial_2891_575)"/>
<path d="M23.5467 17.8734C34.3578 17.8734 43.122 26.6375 43.122 37.4486C43.122 39.3298 42.8554 41.1487 42.3601 42.8705C42.039 42.6998 41.7256 42.5959 41.4674 42.5364C41.2886 42.4952 41.1177 42.4588 40.9532 42.4267C41.4047 40.8451 41.647 39.1751 41.647 37.4486C41.647 27.4523 33.5431 19.3484 23.5467 19.3484C13.5503 19.3484 5.44645 27.4523 5.44645 37.4486C5.44645 39.1751 5.68818 40.8451 6.13963 42.4267C5.97535 42.4588 5.80459 42.4952 5.62598 42.5364C5.36766 42.5959 5.05401 42.6997 4.73277 42.8705C4.23747 41.1487 3.97144 39.3298 3.97144 37.4486C3.97144 26.6375 12.7356 17.8734 23.5467 17.8734Z" fill="black"/>
<path d="M23.5467 17.8734C34.3578 17.8734 43.122 26.6375 43.122 37.4486C43.122 39.3298 42.8554 41.1487 42.3601 42.8705C42.039 42.6998 41.7256 42.5959 41.4674 42.5364C41.2886 42.4952 41.1177 42.4588 40.9532 42.4267C41.4047 40.8451 41.647 39.1751 41.647 37.4486C41.647 27.4523 33.5431 19.3484 23.5467 19.3484C13.5503 19.3484 5.44645 27.4523 5.44645 37.4486C5.44645 39.1751 5.68818 40.8451 6.13963 42.4267C5.97535 42.4588 5.80459 42.4952 5.62598 42.5364C5.36766 42.5959 5.05401 42.6997 4.73277 42.8705C4.23747 41.1487 3.97144 39.3298 3.97144 37.4486C3.97144 26.6375 12.7356 17.8734 23.5467 17.8734Z" fill="url(#paint2_radial_2891_575)"/>
<path d="M23.5467 26.3843C29.6573 26.3843 34.611 31.338 34.611 37.4486C34.611 38.2907 34.516 39.1106 34.3378 39.8989C33.9815 39.3436 33.5468 38.8917 33.075 38.5252C33.1145 38.1718 33.136 37.8126 33.136 37.4486C33.136 32.1527 28.8426 27.8594 23.5467 27.8594C18.2508 27.8594 13.9574 32.1527 13.9574 37.4486C13.9574 37.7964 13.9762 38.1399 14.0123 38.4781C13.5486 38.855 13.1187 39.3229 12.7545 39.8983C12.5764 39.1103 12.4824 38.2905 12.4824 37.4486C12.4824 31.338 17.4361 26.3843 23.5467 26.3843Z" fill="black"/>
<path d="M23.5467 26.3843C29.6573 26.3843 34.611 31.338 34.611 37.4486C34.611 38.2907 34.516 39.1106 34.3378 39.8989C33.9815 39.3436 33.5468 38.8917 33.075 38.5252C33.1145 38.1718 33.136 37.8126 33.136 37.4486C33.136 32.1527 28.8426 27.8594 23.5467 27.8594C18.2508 27.8594 13.9574 32.1527 13.9574 37.4486C13.9574 37.7964 13.9762 38.1399 14.0123 38.4781C13.5486 38.855 13.1187 39.3229 12.7545 39.8983C12.5764 39.1103 12.4824 38.2905 12.4824 37.4486C12.4824 31.338 17.4361 26.3843 23.5467 26.3843Z" fill="url(#paint3_radial_2891_575)"/>
<path d="M23.5467 30.3561C27.4286 30.3561 30.5812 33.4748 30.6375 37.3433C30.1651 37.2166 29.7208 37.1446 29.342 37.1134L29.2816 37.1084H29.1531C28.9772 34.1645 26.5348 31.8312 23.5467 31.8312C20.5586 31.8312 18.1162 34.1645 17.9403 37.1084H17.5281L17.4677 37.1134C17.1477 37.1398 16.8067 37.1942 16.4559 37.2802C16.5454 33.4409 19.6859 30.3561 23.5467 30.3561Z" fill="black"/>
<path d="M23.5467 30.3561C27.4286 30.3561 30.5812 33.4748 30.6375 37.3433C30.1651 37.2166 29.7208 37.1446 29.342 37.1134L29.2816 37.1084H29.1531C28.9772 34.1645 26.5348 31.8312 23.5467 31.8312C20.5586 31.8312 18.1162 34.1645 17.9403 37.1084H17.5281L17.4677 37.1134C17.1477 37.1398 16.8067 37.1942 16.4559 37.2802C16.5454 33.4409 19.6859 30.3561 23.5467 30.3561Z" fill="url(#paint4_radial_2891_575)"/>
<path d="M23.5467 33.7605C25.4689 33.7605 27.047 35.231 27.2187 37.1084H25.7337C25.57 36.0478 24.6531 35.2355 23.5467 35.2355C22.4403 35.2355 21.5234 36.0478 21.3597 37.1084H19.8747C20.0464 35.231 21.6245 33.7605 23.5467 33.7605Z" fill="black"/>
<path d="M23.5467 33.7605C25.4689 33.7605 27.047 35.231 27.2187 37.1084H25.7337C25.57 36.0478 24.6531 35.2355 23.5467 35.2355C22.4403 35.2355 21.5234 36.0478 21.3597 37.1084H19.8747C20.0464 35.231 21.6245 33.7605 23.5467 33.7605Z" fill="url(#paint5_radial_2891_575)"/>
<path d="M47.6611 12.1992H47.6689V27.9209C48.1989 28.188 48.5615 28.7308 48.5615 29.3574C48.5615 29.9293 48.2594 30.4313 47.8037 30.7178L49.7607 36.0303H44.0869L46.0439 30.7178C45.5884 30.4313 45.2861 29.9292 45.2861 29.3574C45.2861 28.7306 45.6495 28.1879 46.1797 27.9209V12.8867L40.3984 15.5703V11.7871L38.2129 11.2012C28.481 8.58885 18.4579 8.60726 8.87402 11.2031L6.69531 11.793V15.3076L0 12.1992L23.8311 0L47.6611 12.1992Z" fill="#D9D9D9"/>
<path d="M47.6611 12.1992H47.6689V27.9209C48.1989 28.188 48.5615 28.7308 48.5615 29.3574C48.5615 29.9293 48.2594 30.4313 47.8037 30.7178L49.7607 36.0303H44.0869L46.0439 30.7178C45.5884 30.4313 45.2861 29.9292 45.2861 29.3574C45.2861 28.7306 45.6495 28.1879 46.1797 27.9209V12.8867L40.3984 15.5703V11.7871L38.2129 11.2012C28.481 8.58885 18.4579 8.60726 8.87402 11.2031L6.69531 11.793V15.3076L0 12.1992L23.8311 0L47.6611 12.1992Z" fill="url(#paint6_linear_2891_575)"/>
<path d="M58.8703 48.2282C56.0008 48.2282 53.7866 47.5391 52.2275 46.1608C50.676 44.775 49.9003 42.6172 49.9003 39.6874C49.9003 37.797 50.258 36.2116 50.9735 34.9312C51.689 33.6434 52.7284 32.6793 54.0916 32.0391C55.4548 31.3989 57.1042 31.0789 59.0398 31.0789C59.8005 31.0789 60.516 31.1203 61.1863 31.2031C61.8566 31.286 62.5307 31.4178 63.2085 31.5985V33.7111C61.9131 33.3722 60.5762 33.2028 59.198 33.2028C56.9988 33.2028 55.3456 33.7224 54.2384 34.7618C53.1388 35.8011 52.589 37.428 52.589 39.6422C52.589 41.9168 53.1313 43.5624 54.2158 44.5792C55.3079 45.5959 56.9084 46.1043 59.0172 46.1043C59.7553 46.1043 60.4595 46.0553 61.1298 45.9574C61.8001 45.8595 62.493 45.6976 63.2085 45.4717V47.5956C61.8604 48.0173 60.4143 48.2282 58.8703 48.2282Z" fill="#18427E"/>
<path d="M65.5072 48.0136V31.2935H68.0604V38.3317H77.584V31.2935H80.1372V48.0136H77.584V40.5573H68.0604V48.0136H65.5072Z" fill="#18427E"/>
<path d="M83.8106 48.0136V31.2935H86.3638V48.0136H83.8106Z" fill="#18427E"/>
<path d="M102.505 31.2935H104.923V48.0136H102.325L92.4621 34.8183V48.0136H90.0444V31.2935H92.6428L102.505 44.4888V31.2935Z" fill="#18427E"/>
<path d="M116.125 48.2282C114.446 48.2282 112.985 47.9081 111.742 47.2679C110.507 46.6277 109.55 45.6675 108.872 44.3871C108.202 43.1067 107.867 41.5289 107.867 39.6535C107.867 37.7782 108.206 36.2003 108.884 34.9199C109.569 33.6396 110.529 32.6793 111.765 32.0391C113 31.3989 114.453 31.0789 116.125 31.0789C117.812 31.0789 119.274 31.3989 120.509 32.0391C121.744 32.6793 122.697 33.6434 123.367 34.9312C124.045 36.2116 124.384 37.7857 124.384 39.6535C124.384 41.5214 124.041 43.0954 123.356 44.3758C122.678 45.6562 121.721 46.6202 120.486 47.2679C119.251 47.9081 117.797 48.2282 116.125 48.2282ZM116.125 46.1382C117.91 46.1382 119.296 45.6148 120.283 44.5679C121.269 43.5135 121.763 41.8979 121.763 39.7213C121.763 37.492 121.266 35.8426 120.271 34.7731C119.285 33.7036 117.903 33.1689 116.125 33.1689C114.355 33.1689 112.973 33.6961 111.979 34.7505C110.985 35.7974 110.488 37.4091 110.488 39.5857C110.488 41.8301 110.981 43.4833 111.968 44.5453C112.955 45.6072 114.34 46.1382 116.125 46.1382Z" fill="#18427E"/>
<path d="M134.826 48.2282C133.146 48.2282 131.685 47.9081 130.443 47.2679C129.207 46.6277 128.251 45.6675 127.573 44.3871C126.903 43.1067 126.568 41.5289 126.568 39.6535C126.568 37.7782 126.907 36.2003 127.584 34.9199C128.27 33.6396 129.23 32.6793 130.465 32.0391C131.7 31.3989 133.154 31.0789 134.826 31.0789C136.513 31.0789 137.974 31.3989 139.209 32.0391C140.444 32.6793 141.397 33.6434 142.068 34.9312C142.745 36.2116 143.084 37.7857 143.084 39.6535C143.084 41.5214 142.742 43.0954 142.056 44.3758C141.378 45.6562 140.422 46.6202 139.187 47.2679C137.952 47.9081 136.498 48.2282 134.826 48.2282ZM134.826 46.1382C136.611 46.1382 137.997 45.6148 138.983 44.5679C139.97 43.5135 140.463 41.8979 140.463 39.7213C140.463 37.492 139.966 35.8426 138.972 34.7731C137.985 33.7036 136.603 33.1689 134.826 33.1689C133.056 33.1689 131.674 33.6961 130.68 34.7505C129.686 35.7974 129.189 37.4091 129.189 39.5857C129.189 41.8301 129.682 43.4833 130.669 44.5453C131.655 45.6072 133.041 46.1382 134.826 46.1382Z" fill="#18427E"/>
<path d="M157.119 48.0136L151.233 40.5573H148.567V48.0136H146.014V31.2935H148.567V38.3317H151.256L156.701 31.2935H159.492L153.222 39.3937L160 48.0136H157.119Z" fill="#18427E"/>
<path d="M51.1724 54.688C51.8713 54.688 52.4708 54.8145 52.9709 55.0676C53.471 55.3207 53.8536 55.6852 54.1187 56.1612C54.3838 56.6372 54.5164 57.2036 54.5164 57.8603C54.5164 58.511 54.3838 59.0744 54.1187 59.5504C53.8536 60.0204 53.471 60.3819 52.9709 60.6349C52.4708 60.882 51.8713 61.0055 51.1724 61.0055H49.3015V54.688H51.1724ZM51.1724 60.4813C52.052 60.4813 52.7208 60.2523 53.1788 59.7944C53.6427 59.3305 53.8747 58.6858 53.8747 57.8603C53.8747 57.0288 53.6427 56.3811 53.1788 55.9172C52.7208 55.4472 52.052 55.2122 51.1724 55.2122H49.9342V60.4813H51.1724Z" fill="#18427E"/>
<path d="M56.7673 56.9475C56.9059 56.6402 57.1167 56.4022 57.3999 56.2335C57.6891 56.0648 58.0416 55.9804 58.4574 55.9804V56.6402H58.2856C57.8277 56.6402 57.4602 56.7637 57.183 57.0107C56.9059 57.2578 56.7673 57.6705 56.7673 58.2489V61.0055H56.1346V56.0708H56.7673V56.9475Z" fill="#18427E"/>
<path d="M60.1773 55.1399C60.0508 55.1399 59.9423 55.0947 59.8519 55.0043C59.7616 54.914 59.7164 54.8025 59.7164 54.6699C59.7164 54.5374 59.7616 54.4289 59.8519 54.3446C59.9423 54.2542 60.0508 54.209 60.1773 54.209C60.3038 54.209 60.4123 54.2542 60.5027 54.3446C60.593 54.4289 60.6382 54.5374 60.6382 54.6699C60.6382 54.8025 60.593 54.914 60.5027 55.0043C60.4123 55.0947 60.3038 55.1399 60.1773 55.1399ZM60.4936 56.0708V61.0055H59.861V56.0708H60.4936Z" fill="#18427E"/>
<path d="M64.1315 60.3909L65.7945 56.0708H66.4633L64.484 61.0055H63.77L61.7907 56.0708H62.4685L64.1315 60.3909Z" fill="#18427E"/>
<path d="M68.089 55.1399C67.9624 55.1399 67.854 55.0947 67.7636 55.0043C67.6732 54.914 67.628 54.8025 67.628 54.6699C67.628 54.5374 67.6732 54.4289 67.7636 54.3446C67.854 54.2542 67.9624 54.209 68.089 54.209C68.2155 54.209 68.3239 54.2542 68.4143 54.3446C68.5047 54.4289 68.5499 54.5374 68.5499 54.6699C68.5499 54.8025 68.5047 54.914 68.4143 55.0043C68.3239 55.0947 68.2155 55.1399 68.089 55.1399ZM68.4053 56.0708V61.0055H67.7726V56.0708H68.4053Z" fill="#18427E"/>
<path d="M72.6035 55.9804C73.194 55.9804 73.676 56.1642 74.0496 56.5317C74.4231 56.8933 74.6099 57.4205 74.6099 58.1134V61.0055H73.9863V58.1857C73.9863 57.6494 73.8507 57.2397 73.5796 56.9565C73.3145 56.6733 72.95 56.5317 72.486 56.5317C72.01 56.5317 71.6304 56.6824 71.3473 56.9836C71.0641 57.2849 70.9225 57.7278 70.9225 58.3122V61.0055H70.2898V56.0708H70.9225V56.9113C71.0791 56.6101 71.3051 56.3811 71.6003 56.2245C71.8955 56.0618 72.2299 55.9804 72.6035 55.9804Z" fill="#18427E"/>
<path d="M78.5307 55.9985C78.9946 55.9985 79.3983 56.107 79.7417 56.3239C80.0852 56.5408 80.3322 56.8149 80.4828 57.1463V56.0708H81.1155V61.132C81.1155 61.5839 81.0161 61.9846 80.8172 62.334C80.6244 62.6835 80.3533 62.9516 80.0038 63.1384C79.6544 63.3312 79.2567 63.4276 78.8108 63.4276C78.1782 63.4276 77.651 63.277 77.2292 62.9757C76.8135 62.6745 76.5544 62.2648 76.4519 61.7466H77.0756C77.184 62.09 77.3889 62.3642 77.6901 62.569C77.9974 62.7739 78.371 62.8763 78.8108 62.8763C79.1302 62.8763 79.4164 62.807 79.6694 62.6684C79.9225 62.5359 80.1213 62.3371 80.2659 62.0719C80.4105 61.8068 80.4828 61.4935 80.4828 61.132V59.9119C80.3262 60.2493 80.0761 60.5295 79.7327 60.7524C79.3953 60.9693 78.9946 61.0778 78.5307 61.0778C78.0788 61.0778 77.6721 60.9723 77.3105 60.7615C76.9551 60.5506 76.6749 60.2523 76.47 59.8667C76.2712 59.4811 76.1718 59.0352 76.1718 58.5291C76.1718 58.023 76.2712 57.5801 76.47 57.2005C76.6749 56.8149 76.9551 56.5197 77.3105 56.3148C77.6721 56.1039 78.0788 55.9985 78.5307 55.9985ZM80.4828 58.5381C80.4828 58.1405 80.4015 57.791 80.2388 57.4898C80.0761 57.1885 79.8532 56.9565 79.57 56.7938C79.2928 56.6312 78.9856 56.5498 78.6481 56.5498C78.2987 56.5498 77.9854 56.6281 77.7082 56.7848C77.431 56.9415 77.2111 57.1704 77.0484 57.4717C76.8918 57.7669 76.8135 58.1194 76.8135 58.5291C76.8135 58.9328 76.8918 59.2883 77.0484 59.5956C77.2111 59.8968 77.431 60.1288 77.7082 60.2915C77.9854 60.4481 78.2987 60.5265 78.6481 60.5265C78.9856 60.5265 79.2928 60.4451 79.57 60.2825C79.8532 60.1198 80.0761 59.8878 80.2388 59.5865C80.4015 59.2853 80.4828 58.9358 80.4828 58.5381Z" fill="#18427E"/>
<path d="M87.8597 61.0687C87.444 61.0687 87.0764 60.9964 86.7571 60.8518C86.4438 60.7072 86.1967 60.5054 86.016 60.2463C85.8352 59.9872 85.7388 59.698 85.7268 59.3787H86.3956C86.4257 59.686 86.5613 59.9571 86.8023 60.1921C87.0433 60.421 87.3958 60.5355 87.8597 60.5355C88.2875 60.5355 88.6249 60.4271 88.8719 60.2101C89.125 59.9872 89.2515 59.707 89.2515 59.3696C89.2515 59.0985 89.1822 58.8816 89.0437 58.7189C88.9051 58.5502 88.7334 58.4267 88.5285 58.3483C88.3236 58.264 88.0405 58.1736 87.6789 58.0772C87.2572 57.9627 86.9228 57.8513 86.6757 57.7428C86.4287 57.6344 86.2178 57.4657 86.0431 57.2367C85.8684 57.0077 85.781 56.6974 85.781 56.3058C85.781 55.9804 85.8653 55.6912 86.0341 55.4382C86.2028 55.1791 86.4408 54.9772 86.748 54.8326C87.0553 54.688 87.4078 54.6157 87.8055 54.6157C88.3899 54.6157 88.8599 54.7603 89.2154 55.0495C89.5769 55.3327 89.7848 55.7003 89.839 56.1521H89.1521C89.1099 55.8931 88.9683 55.6641 88.7273 55.4653C88.4863 55.2604 88.161 55.158 87.7512 55.158C87.3717 55.158 87.0553 55.2604 86.8023 55.4653C86.5492 55.6641 86.4227 55.9383 86.4227 56.2877C86.4227 56.5528 86.492 56.7667 86.6306 56.9294C86.7691 57.0921 86.9408 57.2156 87.1457 57.3C87.3566 57.3843 87.6398 57.4747 87.9953 57.5711C88.405 57.6856 88.7364 57.8001 88.9894 57.9145C89.2425 58.023 89.4564 58.1917 89.6311 58.4207C89.8059 58.6496 89.8932 58.9569 89.8932 59.3425C89.8932 59.6378 89.8149 59.9179 89.6582 60.183C89.5016 60.4481 89.2696 60.662 88.9623 60.8247C88.655 60.9874 88.2875 61.0687 87.8597 61.0687Z" fill="#18427E"/>
<path d="M91.2784 58.5381C91.2784 58.026 91.3808 57.5801 91.5857 57.2005C91.7906 56.8149 92.0737 56.5197 92.4353 56.3148C92.7968 56.1039 93.2095 55.9985 93.6734 55.9985C94.282 55.9985 94.7821 56.1491 95.1737 56.4504C95.5714 56.7517 95.8275 57.1614 95.9419 57.6795H95.2641C95.1798 57.3241 94.996 57.0469 94.7128 56.8481C94.4356 56.6432 94.0892 56.5408 93.6734 56.5408C93.342 56.5408 93.0438 56.6161 92.7787 56.7667C92.5136 56.9174 92.3027 57.1433 92.146 57.4446C91.9954 57.7398 91.9201 58.1043 91.9201 58.5381C91.9201 58.972 91.9954 59.3395 92.146 59.6408C92.3027 59.942 92.5136 60.168 92.7787 60.3186C93.0438 60.4692 93.342 60.5445 93.6734 60.5445C94.0892 60.5445 94.4356 60.4451 94.7128 60.2463C94.996 60.0414 95.1798 59.7583 95.2641 59.3967H95.9419C95.8275 59.9029 95.5714 60.3096 95.1737 60.6168C94.7761 60.9241 94.276 61.0778 93.6734 61.0778C93.2095 61.0778 92.7968 60.9754 92.4353 60.7705C92.0737 60.5596 91.7906 60.2644 91.5857 59.8848C91.3808 59.4992 91.2784 59.0503 91.2784 58.5381Z" fill="#18427E"/>
<path d="M99.9121 55.9804C100.286 55.9804 100.62 56.0588 100.915 56.2154C101.217 56.3721 101.452 56.6131 101.62 56.9384C101.795 57.2578 101.882 57.6494 101.882 58.1134V61.0055H101.259V58.1857C101.259 57.6494 101.123 57.2397 100.852 56.9565C100.587 56.6733 100.222 56.5317 99.7585 56.5317C99.2825 56.5317 98.9029 56.6824 98.6197 56.9836C98.3365 57.2849 98.1949 57.7278 98.1949 58.3122V61.0055H97.5623V54.3175H98.1949V56.9113C98.3516 56.6161 98.5805 56.3871 98.8818 56.2245C99.1891 56.0618 99.5325 55.9804 99.9121 55.9804Z" fill="#18427E"/>
<path d="M105.893 61.0778C105.43 61.0778 105.011 60.9754 104.637 60.7705C104.27 60.5596 103.977 60.2644 103.761 59.8848C103.55 59.4992 103.444 59.0503 103.444 58.5381C103.444 58.026 103.553 57.5801 103.77 57.2005C103.986 56.8149 104.282 56.5197 104.655 56.3148C105.029 56.1039 105.448 55.9985 105.912 55.9985C106.375 55.9985 106.794 56.1039 107.168 56.3148C107.547 56.5197 107.843 56.8149 108.054 57.2005C108.27 57.5801 108.379 58.026 108.379 58.5381C108.379 59.0443 108.27 59.4901 108.054 59.8757C107.837 60.2614 107.538 60.5596 107.159 60.7705C106.779 60.9754 106.357 61.0778 105.893 61.0778ZM105.893 60.5265C106.219 60.5265 106.52 60.4542 106.797 60.3096C107.074 60.1589 107.297 59.936 107.466 59.6408C107.641 59.3395 107.728 58.972 107.728 58.5381C107.728 58.1043 107.644 57.7398 107.475 57.4446C107.306 57.1433 107.083 56.9204 106.806 56.7758C106.529 56.6251 106.228 56.5498 105.903 56.5498C105.577 56.5498 105.276 56.6251 104.999 56.7758C104.722 56.9204 104.499 57.1433 104.33 57.4446C104.167 57.7398 104.086 58.1043 104.086 58.5381C104.086 58.972 104.167 59.3395 104.33 59.6408C104.499 59.936 104.719 60.1589 104.99 60.3096C105.267 60.4542 105.568 60.5265 105.893 60.5265Z" fill="#18427E"/>
<path d="M112.144 61.0778C111.68 61.0778 111.261 60.9754 110.888 60.7705C110.52 60.5596 110.228 60.2644 110.011 59.8848C109.8 59.4992 109.695 59.0503 109.695 58.5381C109.695 58.026 109.803 57.5801 110.02 57.2005C110.237 56.8149 110.532 56.5197 110.906 56.3148C111.279 56.1039 111.698 55.9985 112.162 55.9985C112.626 55.9985 113.045 56.1039 113.418 56.3148C113.798 56.5197 114.093 56.8149 114.304 57.2005C114.521 57.5801 114.629 58.026 114.629 58.5381C114.629 59.0443 114.521 59.4901 114.304 59.8757C114.087 60.2614 113.789 60.5596 113.409 60.7705C113.03 60.9754 112.608 61.0778 112.144 61.0778ZM112.144 60.5265C112.469 60.5265 112.771 60.4542 113.048 60.3096C113.325 60.1589 113.548 59.936 113.717 59.6408C113.891 59.3395 113.979 58.972 113.979 58.5381C113.979 58.1043 113.894 57.7398 113.726 57.4446C113.557 57.1433 113.334 56.9204 113.057 56.7758C112.78 56.6251 112.478 56.5498 112.153 56.5498C111.828 56.5498 111.526 56.6251 111.249 56.7758C110.972 56.9204 110.749 57.1433 110.581 57.4446C110.418 57.7398 110.337 58.1043 110.337 58.5381C110.337 58.972 110.418 59.3395 110.581 59.6408C110.749 59.936 110.969 60.1589 111.24 60.3096C111.517 60.4542 111.819 60.5265 112.144 60.5265Z" fill="#18427E"/>
<path d="M116.867 54.3175V61.0055H116.235V54.3175H116.867Z" fill="#18427E"/>
<path d="M121.395 57.8422C121.395 57.2216 121.53 56.6673 121.801 56.1793C122.072 55.6852 122.443 55.3026 122.913 55.0315C123.383 54.7543 123.907 54.6157 124.486 54.6157C125.191 54.6157 125.793 54.7844 126.293 55.1218C126.799 55.4532 127.167 55.9232 127.396 56.5317H126.655C126.474 56.1039 126.197 55.7695 125.823 55.5285C125.456 55.2875 125.01 55.167 124.486 55.167C124.022 55.167 123.603 55.2755 123.229 55.4924C122.862 55.7093 122.573 56.0226 122.362 56.4323C122.151 56.836 122.045 57.306 122.045 57.8422C122.045 58.3785 122.151 58.8484 122.362 59.2521C122.573 59.6558 122.862 59.9661 123.229 60.183C123.603 60.3999 124.022 60.5084 124.486 60.5084C125.01 60.5084 125.456 60.3909 125.823 60.1559C126.197 59.9149 126.474 59.5835 126.655 59.1618H127.396C127.167 59.7643 126.799 60.2312 126.293 60.5626C125.787 60.894 125.184 61.0597 124.486 61.0597C123.907 61.0597 123.383 60.9241 122.913 60.653C122.443 60.3758 122.072 59.9932 121.801 59.5052C121.53 59.0172 121.395 58.4628 121.395 57.8422Z" fill="#18427E"/>
<path d="M128.819 58.5291C128.819 58.023 128.918 57.5801 129.117 57.2005C129.322 56.8149 129.602 56.5197 129.958 56.3148C130.319 56.1039 130.726 55.9985 131.178 55.9985C131.648 55.9985 132.052 56.107 132.389 56.3239C132.732 56.5408 132.979 56.8179 133.13 57.1554V56.0708H133.763V61.0055H133.13V59.9119C132.973 60.2493 132.723 60.5295 132.38 60.7524C132.043 60.9693 131.639 61.0778 131.169 61.0778C130.723 61.0778 130.319 60.9723 129.958 60.7615C129.602 60.5506 129.322 60.2523 129.117 59.8667C128.918 59.4811 128.819 59.0352 128.819 58.5291ZM133.13 58.5381C133.13 58.1405 133.049 57.791 132.886 57.4898C132.723 57.1885 132.5 56.9565 132.217 56.7938C131.94 56.6312 131.633 56.5498 131.295 56.5498C130.946 56.5498 130.633 56.6281 130.355 56.7848C130.078 56.9415 129.858 57.1704 129.696 57.4717C129.539 57.7669 129.461 58.1194 129.461 58.5291C129.461 58.9328 129.539 59.2883 129.696 59.5956C129.858 59.8968 130.078 60.1288 130.355 60.2915C130.633 60.4481 130.946 60.5265 131.295 60.5265C131.633 60.5265 131.94 60.4451 132.217 60.2825C132.5 60.1198 132.723 59.8878 132.886 59.5865C133.049 59.2853 133.13 58.9358 133.13 58.5381Z" fill="#18427E"/>
<path d="M136.292 54.3175V61.0055H135.659V54.3175H136.292Z" fill="#18427E"/>
<path d="M140.246 55.9985C140.71 55.9985 141.113 56.107 141.457 56.3239C141.8 56.5408 142.047 56.8149 142.198 57.1463V56.0708H142.831V61.132C142.831 61.5839 142.731 61.9846 142.532 62.334C142.34 62.6835 142.068 62.9516 141.719 63.1384C141.37 63.3312 140.972 63.4276 140.526 63.4276C139.893 63.4276 139.366 63.277 138.944 62.9757C138.529 62.6745 138.27 62.2648 138.167 61.7466H138.791C138.899 62.09 139.104 62.3642 139.405 62.569C139.713 62.7739 140.086 62.8763 140.526 62.8763C140.845 62.8763 141.132 62.807 141.385 62.6684C141.638 62.5359 141.836 62.3371 141.981 62.0719C142.126 61.8068 142.198 61.4935 142.198 61.132V59.9119C142.041 60.2493 141.791 60.5295 141.448 60.7524C141.11 60.9693 140.71 61.0778 140.246 61.0778C139.794 61.0778 139.387 60.9723 139.026 60.7615C138.67 60.5506 138.39 60.2523 138.185 59.8667C137.986 59.4811 137.887 59.0352 137.887 58.5291C137.887 58.023 137.986 57.5801 138.185 57.2005C138.39 56.8149 138.67 56.5197 139.026 56.3148C139.387 56.1039 139.794 55.9985 140.246 55.9985ZM142.198 58.5381C142.198 58.1405 142.117 57.791 141.954 57.4898C141.791 57.1885 141.568 56.9565 141.285 56.7938C141.008 56.6312 140.701 56.5498 140.363 56.5498C140.014 56.5498 139.701 56.6281 139.423 56.7848C139.146 56.9415 138.926 57.1704 138.764 57.4717C138.607 57.7669 138.529 58.1194 138.529 58.5291C138.529 58.9328 138.607 59.2883 138.764 59.5956C138.926 59.8968 139.146 60.1288 139.423 60.2915C139.701 60.4481 140.014 60.5265 140.363 60.5265C140.701 60.5265 141.008 60.4451 141.285 60.2825C141.568 60.1198 141.791 59.8878 141.954 59.5865C142.117 59.2853 142.198 58.9358 142.198 58.5381Z" fill="#18427E"/>
<path d="M144.438 58.5291C144.438 58.023 144.537 57.5801 144.736 57.2005C144.941 56.8149 145.221 56.5197 145.576 56.3148C145.938 56.1039 146.345 55.9985 146.796 55.9985C147.266 55.9985 147.67 56.107 148.008 56.3239C148.351 56.5408 148.598 56.8179 148.749 57.1554V56.0708H149.381V61.0055H148.749V59.9119C148.592 60.2493 148.342 60.5295 147.999 60.7524C147.661 60.9693 147.257 61.0778 146.787 61.0778C146.342 61.0778 145.938 60.9723 145.576 60.7615C145.221 60.5506 144.941 60.2523 144.736 59.8667C144.537 59.4811 144.438 59.0352 144.438 58.5291ZM148.749 58.5381C148.749 58.1405 148.667 57.791 148.505 57.4898C148.342 57.1885 148.119 56.9565 147.836 56.7938C147.559 56.6312 147.251 56.5498 146.914 56.5498C146.565 56.5498 146.251 56.6281 145.974 56.7848C145.697 56.9415 145.477 57.1704 145.314 57.4717C145.158 57.7669 145.079 58.1194 145.079 58.5291C145.079 58.9328 145.158 59.2883 145.314 59.5956C145.477 59.8968 145.697 60.1288 145.974 60.2915C146.251 60.4481 146.565 60.5265 146.914 60.5265C147.251 60.5265 147.559 60.4451 147.836 60.2825C148.119 60.1198 148.342 59.8878 148.505 59.5865C148.667 59.2853 148.749 58.9358 148.749 58.5381Z" fill="#18427E"/>
<path d="M151.91 56.9475C152.049 56.6402 152.26 56.4022 152.543 56.2335C152.832 56.0648 153.184 55.9804 153.6 55.9804V56.6402H153.429C152.971 56.6402 152.603 56.7637 152.326 57.0107C152.049 57.2578 151.91 57.6705 151.91 58.2489V61.0055H151.278V56.0708H151.91V56.9475Z" fill="#18427E"/>
<path d="M159.071 56.0708L156.143 63.3282H155.483L156.441 60.9784L154.416 56.0708H155.112L156.793 60.2825L158.42 56.0708H159.071Z" fill="#18427E"/>
<defs>
<linearGradient id="paint0_linear_2891_575" x1="23.5467" y1="12.1993" x2="23.5467" y2="22.4124" gradientUnits="userSpaceOnUse">
<stop stop-color="#84D9FD"/>
<stop offset="1" stop-color="#007EC4"/>
</linearGradient>
<radialGradient id="paint1_radial_2891_575" cx="0" cy="0" r="1" gradientUnits="userSpaceOnUse" gradientTransform="translate(23.5467 37.4486) rotate(90) scale(19.5753 19.5753)">
<stop stop-color="#007EC4"/>
<stop offset="1" stop-color="#84D9FD"/>
</radialGradient>
<radialGradient id="paint2_radial_2891_575" cx="0" cy="0" r="1" gradientUnits="userSpaceOnUse" gradientTransform="translate(23.5467 37.4486) rotate(90) scale(19.5753 19.5753)">
<stop stop-color="#007EC4"/>
<stop offset="1" stop-color="#84D9FD"/>
</radialGradient>
<radialGradient id="paint3_radial_2891_575" cx="0" cy="0" r="1" gradientUnits="userSpaceOnUse" gradientTransform="translate(23.5467 37.4486) rotate(90) scale(19.5753 19.5753)">
<stop stop-color="#007EC4"/>
<stop offset="1" stop-color="#84D9FD"/>
</radialGradient>
<radialGradient id="paint4_radial_2891_575" cx="0" cy="0" r="1" gradientUnits="userSpaceOnUse" gradientTransform="translate(23.5467 37.4486) rotate(90) scale(19.5753 19.5753)">
<stop stop-color="#007EC4"/>
<stop offset="1" stop-color="#84D9FD"/>
</radialGradient>
<radialGradient id="paint5_radial_2891_575" cx="0" cy="0" r="1" gradientUnits="userSpaceOnUse" gradientTransform="translate(23.5467 37.4486) rotate(90) scale(19.5753 19.5753)">
<stop stop-color="#007EC4"/>
<stop offset="1" stop-color="#84D9FD"/>
</radialGradient>
<linearGradient id="paint6_linear_2891_575" x1="46.5261" y1="-8.22739" x2="46.5261" y2="33.7607" gradientUnits="userSpaceOnUse">
<stop stop-color="#7BD7FF"/>
<stop offset="1" stop-color="#007EC4"/>
</linearGradient>
</defs>
</svg>
