<svg width="15" height="15" viewBox="0 0 15 15" fill="none" xmlns="http://www.w3.org/2000/svg">
<path fill-rule="evenodd" clip-rule="evenodd" d="M6.85428 0.0147147C5.4144 0.0996107 4.18986 0.433627 3.20373 1.01047C2.27074 1.55623 1.55682 2.27015 1.01106 3.20315C0.20826 4.57555 -0.133468 6.45692 0.0471721 8.50969C0.152244 9.70353 0.4969 10.8573 1.01106 11.7362C1.55605 12.6679 2.27175 13.3838 3.20285 13.9284C4.57592 14.7316 6.47546 15.0761 8.51828 14.8923C9.71812 14.7844 10.8575 14.4433 11.7377 13.9284C12.981 13.2011 13.8701 12.1376 14.395 10.7497C14.9102 9.38753 15.0723 7.6267 14.8366 5.95198C14.5198 3.70119 13.467 2.02254 11.7377 1.01099C10.5954 0.342795 9.0889 -0.0100693 7.42228 0.000218728C7.22428 0.00145073 6.96868 0.00796271 6.85428 0.0147147ZM6.91028 1.15908C6.87068 1.16231 6.73748 1.17292 6.61428 1.18265C5.39676 1.27879 4.28216 1.64001 3.45428 2.20675C2.34252 2.96782 1.61856 4.14321 1.31152 5.68569C1.19424 6.27492 1.15828 6.69353 1.15828 7.46969C1.15828 7.86763 1.16599 8.18169 1.17911 8.31769C1.28012 9.36462 1.48912 10.1502 1.86684 10.9026C2.46256 12.0892 3.4405 12.9253 4.76482 13.3802C5.33343 13.5755 5.89549 13.6907 6.62228 13.7609C6.91252 13.7889 8.02804 13.7889 8.31828 13.7609C9.8004 13.6179 10.8985 13.2197 11.7967 12.4997C12.8332 11.6689 13.4929 10.383 13.7083 8.77369C13.7727 8.29246 13.7819 8.13035 13.7819 7.46969C13.7819 7.05703 13.7744 6.74614 13.7612 6.61369C13.6561 5.55916 13.4499 4.78614 13.0737 4.03683C12.478 2.85022 11.5001 2.01412 10.1757 1.55916C9.62487 1.36991 9.10517 1.26041 8.41428 1.18799C8.19708 1.16524 7.09461 1.14404 6.91028 1.15908ZM7.29111 3.71595C7.1044 3.79273 6.97831 3.94745 6.94189 4.14441C6.93109 4.20291 6.92695 4.8127 6.92984 5.91959L6.93428 7.60569L6.97215 7.70169C7.00783 7.79211 7.07104 7.85886 8.06015 8.85028C9.18791 9.98068 9.17645 9.97064 9.36575 9.99632C9.61786 10.0305 9.85879 9.90238 9.96477 9.67769C10.0008 9.60128 10.0063 9.56863 10.0063 9.42969C10.0063 9.29387 10.0005 9.25761 9.96797 9.18969C9.93783 9.12675 9.73239 8.91185 9.00397 8.18137L8.07828 7.25307L8.07802 5.72537C8.07783 4.48806 8.0736 4.17998 8.05584 4.10446C8.0308 3.99803 7.94748 3.86798 7.85997 3.79876C7.70431 3.67564 7.47152 3.64174 7.29111 3.71595Z" fill="#1D283D"/>
</svg>
