<svg preserveAspectRatio="none" width="100%" height="100%" overflow="visible" style="display: block;" viewBox="0 0 14 14" fill="none" xmlns="http://www.w3.org/2000/svg">
<g id="DiagonalLineArrowUpperRight" clip-path="url(#clip0_0_5)">
<path id="Vector" fill-rule="evenodd" clip-rule="evenodd" d="M9.128 0.835408C8.26326 0.882896 7.57982 0.997122 6.89408 1.20877C6.68602 1.27298 6.62085 1.30635 6.54489 1.38757C6.29451 1.65525 6.39184 2.06928 6.73588 2.2C6.84449 2.24127 6.96333 2.23643 7.133 2.18383C7.68349 2.01319 8.16997 1.9192 8.813 1.85927C9.11911 1.83074 10.1339 1.83558 10.4425 1.86705C10.7015 1.89346 10.9688 1.9304 11.1752 1.96834L11.3013 1.99153L6.10075 7.19426C1.39374 11.9032 0.897022 12.4043 0.867216 12.474C0.817544 12.5901 0.819966 12.7586 0.87297 12.8745C0.92197 12.9817 1.01739 13.0768 1.127 13.1275C1.24089 13.1802 1.40981 13.1825 1.526 13.1328C1.59569 13.103 2.09681 12.6063 6.80574 7.89925L12.0085 2.69865L12.0317 2.82478C12.0695 3.0309 12.1065 3.29833 12.133 3.5575C12.1647 3.86795 12.1693 4.88183 12.1404 5.187C12.079 5.83535 11.9949 6.27635 11.8273 6.8285C11.778 6.99091 11.7717 7.02751 11.7761 7.1225C11.7869 7.35767 11.9457 7.53823 12.1852 7.58771C12.3359 7.61884 12.4878 7.57172 12.6124 7.45514C12.6927 7.38 12.7241 7.31913 12.789 7.11203C13.3017 5.47686 13.3016 3.34523 12.7888 1.715C12.6802 1.36991 12.6269 1.31751 12.271 1.20638C11.4605 0.953288 10.509 0.82166 9.541 0.82873C9.3562 0.830074 9.17035 0.833084 9.128 0.835408Z" fill="var(--fill-0, white)"/>
</g>
<defs>
<clipPath id="clip0_0_5">
<rect width="14" height="14" fill="white"/>
</clipPath>
</defs>
</svg>
