<svg width="16" height="16" viewBox="0 0 16 16" fill="none" xmlns="http://www.w3.org/2000/svg">
<g clip-path="url(#clip0_4057_1535)">
<path d="M7.99995 0.53064C9.8413 0.53064 11.7266 1.06525 13.0714 2.18856C14.5872 3.45474 15.3511 5.49074 15.457 7.50999C15.5629 9.52988 15.0174 11.6459 13.7712 13.1093C12.4057 14.7128 10.1677 15.4693 7.99995 15.4693C5.83218 15.4692 3.59416 14.7128 2.22875 13.1093C0.982609 11.6459 0.436991 9.52984 0.542919 7.50999C0.648815 5.49081 1.41279 3.45475 2.92852 2.18856C4.2733 1.06528 6.15865 0.530665 7.99995 0.53064ZM7.99995 1.6735C6.35354 1.67352 4.7507 2.15577 3.66122 3.0658C2.45948 4.06973 1.77885 5.76367 1.6841 7.5697C1.58941 9.37526 2.08746 11.1801 3.09928 12.3683C4.18534 13.6436 6.05752 14.3264 7.99995 14.3264C9.94245 14.3264 11.8151 13.6437 12.9012 12.3683C13.913 11.1801 14.4105 9.37521 14.3158 7.5697C14.221 5.76361 13.5405 4.06972 12.3387 3.0658C11.2492 2.15574 9.6464 1.6735 7.99995 1.6735Z" fill="#62748E"/>
<path d="M7.68607 10.6364V8.00024C7.68608 7.72973 7.46663 7.51029 7.19611 7.51029H6.66933C6.35374 7.51029 6.0979 7.25445 6.0979 6.93886C6.0979 6.62327 6.35374 6.36743 6.66933 6.36743H7.19611C8.09782 6.36743 8.82896 7.09853 8.82893 8.00024V10.6364C8.82893 10.952 8.57304 11.2078 8.2575 11.2078C7.94191 11.2078 7.68607 10.952 7.68607 10.6364Z" fill="#62748E"/>
<path d="M6.53185 10.3517C7.71622 10.0226 8.81399 10.0226 9.99837 10.3517C10.3024 10.4362 10.4801 10.7514 10.3957 11.0554C10.3112 11.3594 9.99655 11.5376 9.69257 11.4533C8.70834 11.1797 7.82188 11.1797 6.83765 11.4533C6.53364 11.5377 6.21847 11.3594 6.13397 11.0554C6.0496 10.7514 6.22786 10.4362 6.53185 10.3517Z" fill="#62748E"/>
<path d="M7.70166 4.86169V4.51906C7.70166 4.20347 7.9575 3.94763 8.27309 3.94763C8.58868 3.94763 8.84452 4.20347 8.84452 4.51906V4.86169C8.84447 5.17724 8.58865 5.43312 8.27309 5.43312C7.95753 5.43312 7.70171 5.17724 7.70166 4.86169Z" fill="#62748E"/>
</g>
<defs>
<clipPath id="clip0_4057_1535">
<rect width="16" height="16" fill="white"/>
</clipPath>
</defs>
</svg>
