<svg preserveAspectRatio="none" width="100%" height="100%" overflow="visible" style="display: block;" viewBox="0 0 16 16" fill="none" xmlns="http://www.w3.org/2000/svg">
<g id="LocationPin">
<path id="Vector" fill-rule="evenodd" clip-rule="evenodd" d="M7.56 0.538016C7.3744 0.552752 7.02229 0.59456 6.896 0.616864C5.76677 0.816288 4.74762 1.30192 3.872 2.05784C3.69835 2.20774 3.33366 2.57456 3.18186 2.752C2.37192 3.69874 1.82354 4.93086 1.65794 6.176C1.59074 6.68126 1.57202 7.40966 1.61435 7.872C1.7265 9.09662 2.0767 10.155 2.66637 11.0514C3.24469 11.9306 4.19525 12.9901 5.104 13.7684C5.78877 14.3549 6.81834 15.1142 7.144 15.273C7.68707 15.5376 8.31293 15.5376 8.856 15.273C9.1799 15.1151 10.2101 14.3553 10.896 13.7683C11.7577 13.0309 12.6137 12.0886 13.251 11.176C13.8826 10.2715 14.2763 9.1221 14.3855 7.864C14.4108 7.57342 14.4107 6.83602 14.3854 6.56C14.2537 5.12142 13.7566 3.89736 12.8583 2.8C12.6821 2.58475 12.1723 2.08602 11.9367 1.8985C11.0003 1.15298 9.93813 0.708944 8.752 0.56712C8.54578 0.542464 7.74907 0.523008 7.56 0.538016ZM7.56 1.68923C7.5336 1.69274 7.4364 1.7036 7.344 1.71336C7.11846 1.7372 6.8192 1.79658 6.576 1.86574C4.98602 2.3179 3.70083 3.52552 3.0957 5.136C2.51203 6.68933 2.64507 8.66502 3.42973 10.0966C3.56509 10.3436 3.6776 10.5135 3.90614 10.816C4.81179 12.0149 5.76626 12.9213 7.2133 13.9566C7.65683 14.274 7.75581 14.3196 8 14.3196C8.23846 14.3196 8.34787 14.2701 8.76302 13.9741C10.1339 12.9967 11.1171 12.0776 11.9752 10.9712C12.4872 10.3111 12.722 9.89218 12.9364 9.256C13.3435 8.04853 13.3729 6.64269 13.0157 5.46426C12.8592 4.94773 12.635 4.47366 12.3271 4.008C12.1215 3.69702 11.9369 3.47235 11.6563 3.19152C11.2118 2.74666 10.7911 2.44512 10.248 2.18203C9.75507 1.94328 9.27786 1.79819 8.72232 1.71818C8.56144 1.69501 7.68147 1.67309 7.56 1.68923ZM7.55317 4.85739C6.56915 5.00062 5.90762 5.60966 5.71216 6.55234C5.61632 7.01454 5.63934 7.58994 5.77134 8.032C5.97872 8.72643 6.52314 9.24534 7.23966 9.4315C7.81283 9.58043 8.55491 9.54056 9.05379 9.33406C9.70563 9.06422 10.1459 8.51045 10.2939 7.77432C10.339 7.54974 10.3569 7.19746 10.3365 6.93536C10.3075 6.56323 10.2456 6.30754 10.1182 6.0341C9.81214 5.37693 9.22592 4.96744 8.43286 4.85682C8.21432 4.82634 7.7645 4.82664 7.55317 4.85739ZM7.792 5.98467C7.12666 6.04445 6.80013 6.43664 6.80013 7.176C6.80013 7.84346 7.05733 8.2164 7.60152 8.33795C7.81243 8.38506 8.18603 8.38541 8.39507 8.33869C8.94123 8.21664 9.19978 7.84306 9.19978 7.176C9.19978 6.6379 9.02387 6.27776 8.68 6.11186C8.52101 6.03515 8.39565 6.00259 8.18664 5.98374C8.00491 5.96736 7.98429 5.96741 7.792 5.98467Z" fill="currentColor"/>
</g>
</svg>
