<svg preserveAspectRatio="none" width="100%" height="100%" overflow="visible" style="display: block;" viewBox="0 0 16 16" fill="none" xmlns="http://www.w3.org/2000/svg">
<g id="MailSendEnvelope">
<path id="Vector" fill-rule="evenodd" clip-rule="evenodd" d="M7.448 1.59347C6.22773 1.63378 4.67677 1.73747 4.1153 1.81629C2.45598 2.04922 1.11592 3.19651 0.817088 4.64C0.757472 4.92802 0.637216 5.98766 0.584688 6.688C0.511616 7.66221 0.511552 8.3593 0.584496 9.32C0.636688 10.0077 0.758752 11.0782 0.817088 11.36C1.06557 12.5603 2.02278 13.561 3.342 13.9995C3.74909 14.1348 4.02346 14.1851 4.65242 14.2396C6.79411 14.425 8.17501 14.4521 9.952 14.3433C10.7352 14.2953 11.5958 14.2243 11.8847 14.1837C13.1123 14.0114 14.1975 13.3288 14.786 12.359C14.9806 12.0383 15.1157 11.7008 15.1827 11.368C15.2431 11.0684 15.3617 10.0172 15.4156 9.304C15.4883 8.34262 15.4882 7.65989 15.4153 6.688C15.3634 5.99549 15.2418 4.92386 15.1829 4.64C14.9853 3.68642 14.3283 2.83787 13.3827 2.31502C12.9349 2.06746 12.3945 1.88786 11.88 1.81563C11.4708 1.75819 10.1179 1.65787 9.192 1.6163C8.8128 1.59928 7.70941 1.58483 7.448 1.59347ZM7.064 2.75368C6.06024 2.79005 4.48149 2.9105 4.12941 2.9776C3.70755 3.058 3.2987 3.22251 2.96 3.44816C2.81026 3.54794 2.496 3.81272 2.496 3.83912C2.496 3.85517 3.11939 4.43203 3.528 4.79411C4.54128 5.692 5.53787 6.48478 6.50582 7.16296C7.06907 7.55757 7.43642 7.68621 8 7.68621C8.56363 7.68621 8.93106 7.55752 9.49418 7.1629C10.4612 6.4852 11.4599 5.69075 12.472 4.79406C12.88 4.43262 13.504 3.85518 13.504 3.83912C13.504 3.81272 13.1897 3.54794 13.04 3.44816C12.7915 3.28262 12.4532 3.12782 12.152 3.04186C11.8713 2.96174 11.5462 2.92194 10.576 2.84886C9.21128 2.7461 8.10299 2.71606 7.064 2.75368ZM1.93002 4.93915C1.89245 5.06397 1.76504 6.25618 1.70891 7.008C1.67707 7.43434 1.68192 8.65058 1.7173 9.112C1.76765 9.76906 1.87058 10.7157 1.92896 11.0589C2.0084 11.5257 2.26883 11.9736 2.664 12.323C3.05795 12.6712 3.57051 12.9159 4.12941 13.0224C4.66683 13.1248 6.89443 13.2637 8 13.2637C9.10557 13.2637 11.3332 13.1248 11.8706 13.0224C12.7775 12.8496 13.5316 12.3249 13.8859 11.6203C14.0205 11.3525 14.0624 11.1847 14.1272 10.6547C14.3595 8.75368 14.3763 7.65643 14.1991 5.968C14.1572 5.56824 14.0778 4.95325 14.0653 4.93093C14.0568 4.91573 13.966 4.98952 13.7505 5.18678C12.5969 6.24254 11.4643 7.16728 10.3588 7.95586C9.68139 8.43902 9.40373 8.5857 8.91238 8.71982C8.3411 8.87579 7.6589 8.87579 7.08762 8.71982C6.60462 8.58797 6.32694 8.44277 5.67635 7.98186C4.61757 7.23174 3.4004 6.23971 2.264 5.20069C1.9227 4.88864 1.94093 4.90291 1.93002 4.93915Z" fill="currentColor"/>
</g>
</svg>
