<svg preserveAspectRatio="none" width="100%" height="100%" overflow="visible" style="display: block;" viewBox="0 0 16 16" fill="none" xmlns="http://www.w3.org/2000/svg">
<g id="Phone" clip-path="url(#clip0_0_18)">
<path id="Vector" fill-rule="evenodd" clip-rule="evenodd" d="M11.608 0.538544C11.1195 0.597136 10.673 0.776048 10.3074 1.0597C9.96189 1.32779 8.45075 2.70178 8.28467 2.89888C7.99666 3.24069 7.85619 3.6304 7.85608 4.088C7.85597 4.58646 8.0188 4.97536 8.42565 5.44827C8.48634 5.51882 8.54494 5.5879 8.55589 5.60178C8.57266 5.62306 8.54811 5.66774 8.39894 5.88739C7.67576 6.95238 6.95254 7.67653 5.89986 8.38968L5.64771 8.5605L5.45184 8.39554C5.20882 8.1909 5.09582 8.11368 4.90752 8.02355C4.50451 7.83064 4.07179 7.79056 3.624 7.90464C3.45531 7.94763 3.17389 8.08597 3.01403 8.20448C2.79365 8.3679 1.52669 9.73379 1.0916 10.2771C0.679296 10.7919 0.485296 11.4023 0.540992 12.0095C0.58184 12.4548 0.69296 12.7794 0.92352 13.1271C1.08595 13.372 1.31834 13.5946 1.70715 13.8774C1.88488 14.0067 2.16568 14.218 2.33115 14.3469C2.85712 14.7566 3.23266 14.9796 3.69795 15.1584C4.97309 15.6485 6.39971 15.5568 7.608 14.9069C7.94883 14.7236 8.22637 14.5163 9.056 13.8254C10.7103 12.4476 11.7484 11.4476 12.9446 10.0794C13.7166 9.19643 14.4824 8.2623 14.6901 7.95022C15.5729 6.62352 15.7157 4.9328 15.0696 3.4563C14.9003 3.06942 14.7167 2.77461 14.3571 2.312C14.234 2.1536 14.0356 1.8908 13.9163 1.728C13.6417 1.35339 13.5404 1.23363 13.3914 1.10694C13.0247 0.795184 12.6187 0.614208 12.1444 0.55104C11.9903 0.530528 11.7262 0.524368 11.608 0.538544ZM11.5712 1.70336C11.2678 1.77248 11.1149 1.8647 10.696 2.23126C10.2097 2.65682 9.24534 3.54565 9.15594 3.6507C9.02995 3.79877 8.9828 3.96683 9.00891 4.17478C9.03605 4.39093 9.09368 4.47749 9.54358 4.97798C9.81614 5.28117 9.84424 5.33131 9.85314 5.53053C9.86093 5.70474 9.84472 5.74819 9.66133 6.04522C8.77616 7.47875 7.86403 8.44242 6.54832 9.33413C6.22602 9.55258 5.8833 9.76594 5.78883 9.80696C5.64501 9.86941 5.46435 9.86238 5.31658 9.78858C5.27762 9.76912 5.14365 9.65992 5.01886 9.5459C4.70685 9.2608 4.52422 9.11066 4.43528 9.0661C4.19253 8.94448 3.87123 8.97578 3.68134 9.13954C3.50758 9.28938 2.40059 10.4963 2.04106 10.928C1.76382 11.2608 1.66528 11.5301 1.68442 11.9028C1.70414 12.2869 1.86334 12.5682 2.20122 12.816C2.40074 12.9623 2.99554 13.4089 3.22322 13.5833C3.42928 13.7411 3.59555 13.8462 3.80352 13.9501C4.88314 14.4896 6.19338 14.4363 7.208 13.8116C7.43042 13.6746 7.52018 13.6055 8.136 13.0971C10.1533 11.4317 11.2711 10.3216 12.8897 8.376C13.4797 7.6667 13.653 7.44598 13.7885 7.2308C14.3773 6.29632 14.4838 5.11557 14.0752 4.05485C13.9316 3.6823 13.801 3.47008 13.377 2.92C13.2752 2.788 13.0972 2.55008 12.9813 2.39128C12.6688 1.96301 12.5043 1.82334 12.2 1.7281C12.0539 1.68235 11.7209 1.66925 11.5712 1.70336Z" fill="var(--fill-0, #1D283D)"/>
</g>
<defs>
<clipPath id="clip0_0_18">
<rect width="16" height="16" fill="white"/>
</clipPath>
</defs>
</svg>
