<svg preserveAspectRatio="none" width="100%" height="100%" overflow="visible" style="display: block;" viewBox="0 0 44 44" fill="none" xmlns="http://www.w3.org/2000/svg">
<g id="PiggyBank">
<path id="Vector" fill-rule="evenodd" clip-rule="evenodd" d="M28.93 2.2279C27.3736 2.4622 26.1938 2.80614 25.102 3.34382C24.1764 3.79975 23.4888 4.27777 22.8129 4.93535L22.5038 5.23609L22.1749 5.19002C21.6396 5.11509 19.4222 5.086 18.6669 5.14404C17.0969 5.26469 15.547 5.57352 14.1038 6.05334C11.6997 6.85265 9.51223 8.10867 7.69661 9.7324L7.26898 10.1148L7.00867 9.8424C6.2465 9.04482 5.7358 8.24072 5.21809 7.02319C4.99343 6.49484 4.56025 6.15815 3.97641 6.05814C3.26766 5.93674 2.55191 6.36821 2.28576 7.07727C2.13721 7.473 2.17606 7.9086 2.41102 8.48228C2.96107 9.82516 3.71963 10.9688 4.80053 12.085L5.19077 12.4879L4.85782 12.9863C3.63726 14.8131 2.78753 16.9162 2.42471 19.008C2.24171 20.0631 2.222 20.3284 2.222 21.736C2.222 23.1428 2.24154 23.4059 2.4244 24.464C2.70736 26.1011 3.4071 28.0458 4.18264 29.3506C4.26092 29.4822 4.32366 29.6098 4.32208 29.634C4.32054 29.6582 4.13996 30.455 3.92084 31.4046C3.34242 33.9117 3.33753 33.9383 3.31179 34.7391C3.28579 35.5478 3.33296 35.9926 3.52282 36.729C4.0058 38.6021 5.30917 40.2084 7.06961 41.1C7.51634 41.3263 8.22703 41.5708 8.8 41.6955C9.38362 41.8224 10.7715 41.8128 11.4033 41.6775C12.7574 41.3874 13.8541 40.7931 14.8302 39.8204C15.3323 39.3201 15.8156 38.6769 16.0736 38.1656L16.1868 37.9412L16.5964 38.0208C18.2302 38.3386 20.6696 38.4252 22.3131 38.2239L22.7802 38.1667L22.9039 38.3883C23.1707 38.8666 23.5372 39.3359 24.0227 39.8207C24.9668 40.7638 26.01 41.3428 27.324 41.6531C27.8945 41.7878 29.0229 41.84 29.626 41.7597C31.077 41.5662 32.387 40.9394 33.437 39.9363C34.744 38.6876 35.4998 36.9912 35.5641 35.1619L35.574 34.8817L37.576 33.8631C38.6771 33.3028 39.7067 32.7573 39.864 32.651C40.6722 32.1045 41.3261 31.18 41.6552 30.118L41.778 29.722V25.344C41.778 20.9895 41.7775 20.9641 41.6824 20.6082C41.3977 19.5419 40.7496 18.5886 39.8951 17.9788C39.2877 17.5454 38.4483 17.2251 37.785 17.1735C37.5974 17.1589 37.4276 17.1252 37.4077 17.0985C37.3877 17.0718 37.3462 16.9609 37.3155 16.852C37.2031 16.4542 36.7667 15.4056 36.4488 14.7697C35.7271 13.3261 34.9071 12.139 33.7781 10.9036C33.5195 10.6206 33.308 10.356 33.308 10.3154C33.308 10.2749 33.4202 9.57576 33.5573 8.76185C33.7842 7.41448 33.8064 7.22291 33.8057 6.622C33.8051 6.05519 33.789 5.90212 33.6923 5.5381C33.2674 3.93906 32.1578 2.76434 30.6603 2.3283C30.412 2.25597 30.1916 2.23142 29.7 2.22125C29.3491 2.21399 29.0026 2.21698 28.93 2.2279ZM29.0226 5.412C27.9624 5.59258 27.2242 5.82278 26.4401 6.21729C25.6341 6.62279 25.1453 7.01228 24.4301 7.81867C24.1857 8.09433 24.0448 8.21159 23.8325 8.31609C23.4557 8.50159 23.2041 8.518 22.4275 8.40778C19.5273 7.99625 16.5704 8.37236 13.9326 9.48829C11.7409 10.4154 10.0382 11.6563 8.41355 13.5101C7.07876 15.0332 6.03702 17.126 5.61229 19.1375C5.29531 20.6388 5.26513 22.3429 5.52842 23.87C5.78596 25.3638 6.38612 26.9382 7.19902 28.2523C7.58415 28.8749 7.63132 29.005 7.62797 29.436C7.62564 29.7422 7.60078 29.874 7.49065 30.163C7.33405 30.5743 6.52753 34.0681 6.457 34.641C6.27708 36.1021 7.18876 37.7099 8.54278 38.3193C9.85063 38.908 11.3104 38.7118 12.3939 37.8018C12.9771 37.312 13.3492 36.7209 13.5748 35.926C13.6366 35.7082 13.73 35.4414 13.7823 35.3331C14.0001 34.8823 14.5138 34.5444 15.0387 34.5069C15.2853 34.4892 15.4525 34.5159 16.0532 34.6689C17.4832 35.0331 18.5976 35.1727 20.086 35.1742C21.2476 35.1754 21.8589 35.1252 23.001 34.935C23.9774 34.7724 24.2486 34.8065 24.7168 35.1509C24.9933 35.3542 25.1374 35.5828 25.3436 36.1448C25.6288 36.9224 25.9326 37.37 26.4837 37.8246C27.4047 38.5842 28.638 38.8415 29.788 38.5139C31.1489 38.1264 32.1734 36.9248 32.3863 35.4666C32.4298 35.1688 32.4293 34.9843 32.3836 34.5364C32.3141 33.8542 32.3396 33.5691 32.4995 33.2425C32.7208 32.7907 32.8233 32.7272 35.549 31.3518C37.9176 30.1569 38.0746 30.0703 38.2765 29.8495C38.6771 29.4111 38.6514 29.7007 38.666 25.4606C38.6744 23.0194 38.6631 21.642 38.6333 21.4809C38.5451 21.0036 38.2341 20.5926 37.8224 20.4091C37.6201 20.3191 37.509 20.3069 36.696 20.2856C35.8107 20.2624 35.7892 20.2596 35.5324 20.1336C35.2306 19.9854 34.9382 19.7112 34.8063 19.4526C34.7559 19.3537 34.6357 18.9764 34.5391 18.6141C34.0714 16.8586 33.3461 15.4034 32.1961 13.913C31.9969 13.655 31.482 13.0831 31.0517 12.6423C30.2062 11.7761 30.0797 11.5896 30.028 11.1316C30.0067 10.9433 30.0753 10.4389 30.3391 8.844C30.708 6.61426 30.7237 6.39544 30.5407 6.03702C30.4135 5.78789 30.1724 5.52508 29.996 5.44306C29.7606 5.33372 29.526 5.32624 29.0226 5.412ZM15.1181 12.2522C14.9751 12.3114 14.787 12.4166 14.7001 12.4861C14.492 12.6523 14.2294 13.0435 14.1708 13.2745C14.0933 13.5799 14.1136 14.0049 14.2191 14.2873C14.3499 14.6371 14.7503 15.038 15.114 15.1829L15.378 15.2882L17.6354 15.303C18.9026 15.3113 20.0454 15.2993 20.2405 15.2757C20.6682 15.224 20.9445 15.0952 21.2217 14.8183C21.9941 14.0466 21.7624 12.7498 20.768 12.2803L20.526 12.166L17.952 12.1553L15.378 12.1447L15.1181 12.2522ZM29.7656 17.687C29.2922 17.7575 28.8161 18.1186 28.6041 18.568L28.49 18.81V20.636V22.462L28.5953 22.66C28.7644 22.9778 28.901 23.1321 29.1757 23.3155C29.9536 23.8349 31.0255 23.5268 31.4504 22.6615L31.57 22.418V20.614C31.57 18.8533 31.5677 18.805 31.4741 18.6025C31.2759 18.1733 30.7912 17.7784 30.3796 17.7106C30.0525 17.6568 29.9856 17.6543 29.7656 17.687Z" fill="var(--fill-0, #005DBE)"/>
</g>
</svg>
