<svg preserveAspectRatio="none" width="100%" height="100%" overflow="visible" style="display: block;" viewBox="0 0 44 44" fill="none" xmlns="http://www.w3.org/2000/svg">
<g id="Seatbelt">
<path id="Vector" fill-rule="evenodd" clip-rule="evenodd" d="M20.3746 1.50194C17.0845 1.77188 14.5847 3.18701 13.0572 5.64432C11.7269 7.78448 11.2714 11.1069 11.8858 14.19C12.4858 17.2011 14.3457 19.5206 17.0524 20.6335C18.0031 21.0244 19.0674 21.2716 20.2957 21.3866C21.0121 21.4538 22.9079 21.4168 23.5207 21.3237C25.4933 21.0242 27.0145 20.4024 28.271 19.3821C30.2995 17.7349 31.3576 15.4433 31.5552 12.2698C31.6396 10.9131 31.5203 9.52164 31.2124 8.272C30.3148 4.62937 27.6642 2.24039 23.8437 1.63082C22.7788 1.46089 21.4683 1.41218 20.3746 1.50194ZM20.284 4.68675C16.6375 5.13836 14.784 7.4107 14.784 11.4294C14.784 12.5728 14.9142 13.4879 15.2023 14.369C15.8773 16.4337 17.4397 17.7278 19.74 18.1272C21.1339 18.3693 22.8094 18.3165 24.09 17.9903C25.8982 17.5297 27.186 16.4247 27.8666 14.7499C28.5593 13.0449 28.6101 10.3687 27.9853 8.48478C27.7023 7.63127 27.2941 6.95957 26.6897 6.35259C25.734 5.3929 24.461 4.84933 22.7387 4.66558C22.1672 4.6046 20.856 4.61591 20.284 4.68675ZM40.04 14.4144C39.9311 14.4537 39.7628 14.5392 39.666 14.6044C39.5692 14.6696 36.5695 16.8798 33 19.5159C29.3024 22.2466 26.4721 24.3078 26.422 24.3064C26.3736 24.3052 26.0568 24.2617 25.718 24.2098C22.3627 23.6959 18.6729 23.8398 15.266 24.6174C12.1837 25.321 8.98053 26.6565 6.29539 28.3576C5.5858 28.8072 4.48448 29.574 4.11233 29.8777C2.95482 30.8223 2.19085 32.0817 1.90727 33.5131C1.80356 34.0364 1.80382 35.0719 1.90775 35.6324C2.22609 37.3488 3.27914 38.94 4.75152 39.9297C5.09027 40.1574 5.18945 40.2456 5.16696 40.2994C5.0024 40.6927 4.97706 41.037 5.0857 41.4028C5.36162 42.3319 6.41274 42.8097 7.25274 42.3878C7.51256 42.2573 41.3413 17.3116 41.6375 17.032C41.7296 16.9451 41.8682 16.7457 41.9455 16.5889C42.0721 16.3321 42.086 16.2645 42.086 15.9069C42.086 15.5574 42.0706 15.4788 41.9576 15.2484C41.7931 14.9135 41.5103 14.6317 41.1926 14.4861C40.8726 14.3395 40.3397 14.3063 40.04 14.4144ZM40.1717 22.3931C40.1111 22.4116 39.9923 22.4624 39.9077 22.5059C39.7014 22.6123 16.6118 39.655 16.3985 39.8584C16.3064 39.9461 16.1678 40.1463 16.0905 40.3032C15.9633 40.5614 15.9502 40.626 15.9517 40.9852C15.9531 41.3287 15.9697 41.4147 16.0751 41.6255C16.3822 42.2393 16.9766 42.5889 17.6249 42.5369C18.0208 42.5051 18.2701 42.3704 19.1809 41.6962L19.9919 41.096L27.3429 41.0956C34.7123 41.0953 35.3248 41.0841 36.058 40.9367C38.0633 40.5336 39.9073 39.0936 40.7602 37.2647C41.1855 36.3527 41.3746 35.5339 41.3742 34.606C41.3735 32.9174 40.7326 31.422 39.5069 30.249C39.1353 29.8935 38.4199 29.3531 37.587 28.7987C37.3389 28.6337 37.136 28.4849 37.136 28.4681C37.136 28.4513 38.1338 27.701 39.3534 26.8007C40.573 25.9004 41.6425 25.0942 41.73 25.0092C42.1604 24.5912 42.3042 23.7884 42.0426 23.2639C41.844 22.8659 41.464 22.5331 41.0738 22.4157C40.8509 22.3487 40.3585 22.3363 40.1717 22.3931ZM20.218 27.0906C16.5412 27.2849 12.7333 28.3755 9.42625 30.1814C8.18721 30.8579 6.8988 31.69 6.10271 32.3278C4.96734 33.2372 4.66695 34.6474 5.32686 35.97C5.80153 36.9214 6.61839 37.5499 7.74633 37.8316L8.07866 37.9146L15.3945 32.5135C19.4182 29.5429 22.722 27.1006 22.7365 27.0862C22.7624 27.0602 20.7253 27.0638 20.218 27.0906ZM29.3749 34.1669C26.643 36.1841 24.3863 37.8561 24.3599 37.8825C24.3254 37.917 25.8415 37.9268 29.7891 37.9178C35.2576 37.9053 35.2665 37.9051 35.6017 37.8098C36.8184 37.4638 37.7416 36.5679 38.1097 35.376C38.2626 34.881 38.2534 34.2063 38.0873 33.7264C37.8355 32.9993 37.4622 32.5637 36.507 31.8826C35.9271 31.4691 35.0419 30.8953 34.584 30.6362L34.342 30.4992L29.3749 34.1669Z" fill="currentColor"/>
</g>
</svg>
