<svg preserveAspectRatio="none" width="100%" height="100%" overflow="visible" style="display: block;" viewBox="0 0 28 28" fill="none" xmlns="http://www.w3.org/2000/svg">
<g id="SmileyVeryHappy1" clip-path="url(#clip0_0_4)">
<path id="Vector" fill-rule="evenodd" clip-rule="evenodd" d="M12.922 0.953792C10.4022 1.10236 8.25927 1.68689 6.53355 2.69637C4.90081 3.65145 3.65145 4.90081 2.69637 6.53355C1.29147 8.93525 0.693448 12.2277 1.00957 15.82C1.19344 17.9092 1.79659 19.9283 2.69637 21.4665C3.65011 23.0969 4.90258 24.3496 6.53201 25.3027C8.93488 26.7083 12.2591 27.3111 15.834 26.9896C17.9337 26.8008 19.9276 26.2038 21.468 25.3027C23.6438 24.03 25.1996 22.1689 26.1183 19.74C27.0199 17.3562 27.3035 14.2748 26.891 11.344C26.3367 7.40513 24.4943 4.46748 21.468 2.69727C19.469 1.52793 16.8326 0.91042 13.916 0.928424C13.5695 0.93058 13.1222 0.941976 12.922 0.953792ZM13.02 2.95644C12.9507 2.96209 12.7176 2.98066 12.502 2.99768C10.3713 3.16593 8.4208 3.79806 6.972 4.78985C5.02642 6.12172 3.7595 8.17866 3.22218 10.878C3.01694 11.9092 2.954 12.6417 2.954 14C2.954 14.6964 2.9675 15.246 2.99046 15.484C3.16722 17.3161 3.53298 18.6909 4.19398 20.0075C5.2365 22.0841 6.94789 23.5472 9.26545 24.3434C10.2605 24.6852 11.2441 24.8868 12.516 25.0095C13.0239 25.0585 14.9761 25.0585 15.484 25.0095C18.0777 24.7593 19.9993 24.0626 21.5713 22.8025C23.385 21.3486 24.5396 19.0982 24.9166 16.282C25.0293 15.4398 25.0453 15.1561 25.0453 14C25.0453 13.2779 25.0321 12.7338 25.009 12.502C24.8252 10.6566 24.4643 9.30378 23.806 7.99249C22.7635 5.91592 21.0521 4.45276 18.7345 3.65658C17.7705 3.32539 16.8611 3.13376 15.652 3.00703C15.2719 2.96722 13.3426 2.93012 13.02 2.95644ZM8.74152 9.3394C7.92406 9.48872 7.1568 9.9535 6.745 10.5488C6.50112 10.9014 6.44526 11.1563 6.54046 11.4819C6.62567 11.7733 6.79546 11.9748 7.084 12.127C7.19216 12.1841 7.24962 12.1936 7.49 12.1937C7.73844 12.194 7.7875 12.1854 7.9254 12.1177C8.07677 12.0433 8.13593 11.9907 8.4173 11.6801C8.74544 11.3179 9.3413 11.1925 9.84102 11.3806C10.0922 11.4752 10.2091 11.5602 10.3894 11.7799C10.6593 12.1086 10.9117 12.2267 11.2919 12.2023C11.8469 12.1667 12.2354 11.7165 12.2024 11.1472C12.1844 10.8363 12.0531 10.5984 11.704 10.244C11.2291 9.762 10.6794 9.47766 9.95372 9.33881C9.67907 9.28626 9.03073 9.28659 8.74152 9.3394ZM18.1215 9.3394C17.294 9.49057 16.5022 9.97402 16.102 10.5725C15.9174 10.8485 15.8656 11.0133 15.8823 11.2728C15.9152 11.7851 16.298 12.1716 16.8024 12.2019C17.1916 12.2253 17.4325 12.1091 17.7114 11.7635C17.9655 11.4486 18.289 11.3024 18.732 11.3024C19.175 11.3024 19.4985 11.4486 19.7526 11.7635C20.0315 12.1091 20.2724 12.2253 20.6616 12.2019C21.166 12.1716 21.5488 11.7851 21.5817 11.2728C21.5984 11.0133 21.5466 10.8485 21.362 10.5725C20.9552 9.96422 20.1648 9.48662 19.3183 9.33766C19.0291 9.28676 18.4047 9.28768 18.1215 9.3394ZM7.87536 15.7322C7.66797 15.8053 7.51657 15.9188 7.3892 16.0966C7.19312 16.3705 7.14487 16.6938 7.25256 17.0126C7.33376 17.2531 7.64187 17.8756 7.81474 18.1485C8.67191 19.5019 10.008 20.433 11.6832 20.8444C12.8928 21.1415 14.3439 21.1938 15.638 20.9871C17.6243 20.6698 19.2188 19.6744 20.1853 18.1485C20.3581 17.8756 20.6662 17.2531 20.7474 17.0126C20.8555 16.6928 20.8069 16.3705 20.6091 16.0943C20.3246 15.697 19.8076 15.5705 19.3629 15.7895C19.1115 15.9132 18.969 16.0854 18.8044 16.4643C18.3595 17.4883 17.6516 18.194 16.6306 18.6315C16.1922 18.8194 15.746 18.9383 15.078 19.0453C14.7725 19.0942 13.2275 19.0942 12.922 19.0453C12.2627 18.9397 11.8132 18.8207 11.3779 18.6365C10.3626 18.207 9.64051 17.4883 9.19562 16.4643C9.03053 16.0843 8.88871 15.9134 8.63506 15.7885C8.40204 15.6738 8.10404 15.6517 7.87536 15.7322Z" fill="currentColor"/>
</g>
<defs>
<clipPath id="clip0_0_4">
<rect width="28" height="28" fill="currentColor"/>
</clipPath>
</defs>
</svg>
