<svg preserveAspectRatio="none" width="100%" height="100%" overflow="visible" style="display: block;" viewBox="0 0 28 28" fill="none" xmlns="http://www.w3.org/2000/svg">
<g id="SteeringWheel" clip-path="url(#clip0_0_6)">
<path id="Vector" fill-rule="evenodd" clip-rule="evenodd" d="M12.922 0.953792C10.4022 1.10236 8.25927 1.68689 6.53355 2.69637C4.90081 3.65145 3.65145 4.90081 2.69637 6.53355C1.29147 8.93525 0.693448 12.2277 1.00957 15.82C1.19344 17.9092 1.79659 19.9283 2.69637 21.4665C3.65011 23.0969 4.90258 24.3496 6.53201 25.3027C8.93488 26.7083 12.2591 27.3111 15.834 26.9896C17.9337 26.8008 19.9276 26.2038 21.468 25.3027C23.6438 24.03 25.1996 22.1689 26.1183 19.74C27.0199 17.3562 27.3035 14.2748 26.891 11.344C26.3367 7.40513 24.4943 4.46748 21.468 2.69727C19.469 1.52793 16.8326 0.91042 13.916 0.928424C13.5695 0.93058 13.1222 0.941976 12.922 0.953792ZM13.02 2.95644C12.9507 2.96209 12.7176 2.98066 12.502 2.99768C10.3713 3.16593 8.4208 3.79806 6.972 4.78985C5.02642 6.12172 3.7595 8.17866 3.22218 10.878C3.01694 11.9092 2.954 12.6417 2.954 14C2.954 14.6964 2.9675 15.246 2.99046 15.484C3.16722 17.3161 3.53298 18.6909 4.19398 20.0075C5.2365 22.0841 6.94789 23.5472 9.26545 24.3434C10.2605 24.6852 11.2441 24.8868 12.516 25.0095C13.0239 25.0585 14.9761 25.0585 15.484 25.0095C18.0777 24.7593 19.9993 24.0626 21.5713 22.8025C23.385 21.3486 24.5396 19.0982 24.9166 16.282C25.0293 15.4398 25.0453 15.1561 25.0453 14C25.0453 13.2779 25.0321 12.7338 25.009 12.502C24.8252 10.6566 24.4643 9.30378 23.806 7.99249C22.7635 5.91592 21.0521 4.45276 18.7345 3.65658C17.7705 3.32539 16.8611 3.13376 15.652 3.00703C15.2719 2.96722 13.3426 2.93012 13.02 2.95644ZM13.314 4.52413C12.8017 4.56173 12.3798 4.60169 12.138 4.63548C9.02241 5.07108 6.75391 6.60839 5.52936 9.114C4.79822 10.61 4.46939 12.31 4.51651 14.35C4.52539 14.735 4.54502 15.1445 4.56014 15.26C4.57523 15.3755 4.60205 15.5897 4.61972 15.736C4.8923 17.9924 5.85211 19.972 7.29305 21.2498C8.68476 22.484 10.3755 23.1776 12.6 23.4269C13.1437 23.4878 14.79 23.4961 15.288 23.4405C16.5755 23.2965 17.5567 23.0551 18.5013 22.6502C20.9611 21.5955 22.5926 19.5488 23.2092 16.744C23.5075 15.387 23.5704 13.7164 23.3794 12.2199C23.0929 9.97506 22.1369 8.01822 20.707 6.75016C19.2753 5.48052 17.5752 4.79976 15.246 4.56344C14.9579 4.53421 13.5634 4.50584 13.314 4.52413ZM13.034 6.55505C11.0494 6.70418 9.47142 7.36296 8.37102 8.50172C8.07612 8.8069 7.616 9.40069 7.616 9.47607C7.616 9.48338 7.67584 9.48343 7.749 9.47618C7.8969 9.46151 9.21743 9.40419 11.046 9.33304C12.4924 9.27679 15.4402 9.26968 16.926 9.31888C18.1344 9.35889 19.3775 9.40512 19.943 9.43104C20.1702 9.44149 20.356 9.44518 20.356 9.4393C20.356 9.36219 19.9315 8.81474 19.629 8.50172C18.5134 7.34726 16.9567 6.70449 14.91 6.5532C14.461 6.52002 13.4873 6.52098 13.034 6.55505ZM12.362 11.3027C12.2388 11.3068 11.7285 11.3236 11.228 11.3401C10.1974 11.374 8.03642 11.4669 7.322 11.5079C7.0602 11.5229 6.83161 11.5354 6.81402 11.5356C6.77986 11.536 6.6911 11.9666 6.62348 12.46C6.57272 12.8304 6.524 13.5286 6.524 13.8859V14.1593L6.90642 14.1777C7.11676 14.1877 7.54452 14.196 7.857 14.196C8.45564 14.196 8.90299 14.2392 9.324 14.3376C10.904 14.7068 12.06 15.6773 12.5018 17.0052C12.7075 17.6237 12.7378 17.9667 12.7595 19.9268L12.776 21.4156L13.017 21.4388C13.3159 21.4676 14.8072 21.4675 14.9833 21.4388L15.1127 21.4177L15.1287 19.8718C15.1453 18.2555 15.1652 17.8916 15.2621 17.4323C15.5559 16.0384 16.5997 14.9487 18.102 14.4674C18.7228 14.2685 19.2528 14.1961 20.0889 14.1959C20.4129 14.1958 20.8576 14.1876 21.077 14.1775L21.476 14.1593L21.4757 13.8766C21.4751 13.264 21.3776 12.312 21.2574 11.7462L21.2099 11.5223L21.0559 11.5027C20.7658 11.4656 18.2178 11.3644 16.254 11.312C15.3424 11.2876 12.9862 11.282 12.362 11.3027ZM13.7198 12.3319C13.4561 12.4047 13.2122 12.6206 13.0845 12.894L13.006 13.062V14V14.938L13.0845 15.106C13.2154 15.3863 13.4569 15.5963 13.7329 15.6698C14.2182 15.799 14.6989 15.5699 14.9155 15.106L14.994 14.938V14V13.062L14.9155 12.894C14.6982 12.4286 14.2064 12.1974 13.7198 12.3319ZM6.73646 16.261C6.85885 16.7987 6.97066 17.1693 7.13104 17.569C7.75144 19.1152 8.88824 20.2499 10.4411 20.873C10.6166 20.9435 10.7649 20.9964 10.7706 20.9908C10.7915 20.9698 10.7223 18.2908 10.6955 18.088C10.6145 17.4736 10.3409 17.0253 9.84418 16.693C9.26559 16.3061 8.6627 16.1848 7.31447 16.1843L6.71894 16.184L6.73646 16.261ZM19.628 16.2134C18.7605 16.265 18.1191 16.5299 17.6527 17.0291C17.3245 17.3804 17.2083 17.7098 17.1656 18.41C17.1177 19.1955 17.0947 21.028 17.1327 21.028C17.151 21.028 17.3135 20.9701 17.494 20.8994C19.4128 20.1472 20.6766 18.6645 21.1912 16.562C21.2213 16.4388 21.2539 16.3034 21.2635 16.261L21.2811 16.184L20.6295 16.1883C20.2712 16.1907 19.8205 16.202 19.628 16.2134Z" fill="currentColor"/>
</g>
<defs>
<clipPath id="clip0_0_6">
<rect width="28" height="28" fill="currentColor"/>
</clipPath>
</defs>
</svg>
