<svg preserveAspectRatio="none" width="100%" height="100%" overflow="visible" style="display: block;" viewBox="0 0 16 16" fill="none" xmlns="http://www.w3.org/2000/svg">
  <path d="M7.99992 0.5C3.85779 0.5 0.499922 3.85786 0.499922 8C0.499922 12.1421 3.85779 15.5 7.99992 15.5C12.1421 15.5 15.4999 12.1421 15.4999 8C15.4999 3.85786 12.1421 0.5 7.99992 0.5Z" stroke="currentColor" />
  <path d="M11.0532 7.65385C11.2444 8.26495 11.8216 8.65385 12.4329 8.65385H14.2692C14.6137 8.65385 14.8851 8.37342 14.8152 8.03614C14.1947 5.04048 11.5371 2.78845 8.35785 2.78845C5.17871 2.78845 2.52111 5.04048 1.90059 8.03614C1.83074 8.37342 2.10209 8.65385 2.44663 8.65385H4.28295C4.89418 8.65385 5.47129 8.26495 5.66249 7.65385C6.02692 6.48901 7.10488 5.63461 8.35785 5.63461C9.61083 5.63461 10.6888 6.48901 11.0532 7.65385Z" stroke="currentColor" />
  <path d="M6.29498 10.8076C6.29498 9.7206 7.17655 8.83904 8.26354 8.83904H8.45215C9.53913 8.83904 10.4207 9.7206 10.4207 10.8076V14.2858C10.4207 14.5286 10.2239 14.7254 9.98112 14.7254H6.73454C6.49178 14.7254 6.29498 14.5286 6.29498 14.2858V10.8076Z" fill="currentColor" stroke="currentColor" />
</svg>
