<svg preserveAspectRatio="none" width="100%" height="100%" overflow="visible" style="display: block;" viewBox="0 0 16 16" fill="none" xmlns="http://www.w3.org/2000/svg">
<g id="Web" clip-path="url(#clip0_0_14)">
<path id="Vector" fill-rule="evenodd" clip-rule="evenodd" d="M7.384 0.545024C5.94413 0.62992 4.71958 0.963936 3.73346 1.54078C2.80046 2.08654 2.08654 2.80046 1.54078 3.73346C0.737984 5.10586 0.396256 6.98723 0.576896 9.04C0.681968 10.2338 1.02662 11.3876 1.54078 12.2665C2.08578 13.1982 2.80147 13.9141 3.73258 14.4587C5.10565 15.2619 7.00518 15.6064 9.048 15.4226C10.2478 15.3147 11.3872 14.9736 12.2674 14.4587C13.5107 13.7314 14.3998 12.6679 14.9247 11.28C15.4399 9.91784 15.602 8.15701 15.3663 6.48229C15.0495 4.2315 13.9967 2.55285 12.2674 1.5413C11.1251 0.873104 9.61862 0.52024 7.952 0.530528C7.754 0.53176 7.4984 0.538272 7.384 0.545024ZM6.328 1.81765C5.42538 1.98706 4.61563 2.30467 3.984 2.73706C2.77029 3.56792 2.01477 4.90048 1.76968 6.64259C1.72803 6.93858 1.68667 7.372 1.6989 7.38424C1.70296 7.38829 1.94698 7.37752 2.24114 7.3603C2.69856 7.33352 3.45066 7.29995 4.61846 7.25418L4.89291 7.24342L4.90246 7.19571C4.90771 7.16947 4.91202 7.1111 4.91203 7.066C4.91208 6.94178 4.97042 6.36808 5.01531 6.05024C5.23435 4.49986 5.73758 3.08275 6.45221 2.004C6.57938 1.81203 6.59794 1.77621 6.56963 1.77731C6.55114 1.77803 6.4424 1.79618 6.328 1.81765ZM9.54779 2.004C10.2663 3.08858 10.7792 4.54077 10.9914 6.09101C11.0317 6.38525 11.0879 6.95296 11.088 7.066C11.088 7.1111 11.0923 7.16947 11.0975 7.19571L11.1071 7.24342L11.3815 7.25419C12.5414 7.2997 13.3014 7.33365 13.7589 7.36037C14.053 7.37755 14.2971 7.38824 14.3012 7.38413C14.3053 7.38 14.3001 7.27749 14.2896 7.15632C14.1466 5.50642 13.6164 4.22536 12.6955 3.30446C11.9397 2.54867 10.9466 2.05862 9.69624 1.82453C9.55366 1.79784 9.42795 1.776 9.41688 1.776C9.40581 1.776 9.46472 1.87859 9.54779 2.004ZM7.91696 1.98C7.59384 2.31259 7.18526 2.94202 6.92363 3.5103C6.44069 4.55925 6.1653 5.69893 6.05718 7.09602L6.04851 7.20803H8H9.95149L9.94282 7.09602C9.87584 6.2305 9.75773 5.53218 9.55986 4.832C9.26523 3.78939 8.8405 2.91301 8.30365 2.24C8.16157 2.06189 8.01888 1.904 8 1.904C7.99494 1.904 7.95757 1.93821 7.91696 1.98ZM6.228 8.36325L6.032 8.36899L6.03224 8.4365C6.03262 8.54128 6.07664 9.17352 6.096 9.352C6.26782 10.9372 6.72968 12.3448 7.41638 13.376C7.55616 13.5859 7.84402 13.9533 7.94229 14.0471L8 14.1023L8.05771 14.0471C8.15598 13.9533 8.44384 13.5859 8.58362 13.376C9.28424 12.3239 9.75046 10.8823 9.91093 9.272C9.94418 8.93834 9.97486 8.38554 9.96091 8.37158C9.94931 8.35997 6.59581 8.35248 6.228 8.36325ZM3.624 8.44035C2.7601 8.47776 1.92528 8.52163 1.78 8.53726L1.696 8.5463L1.69605 8.62115C1.69619 8.83819 1.77939 9.49358 1.84978 9.832C2.09779 11.0245 2.57728 11.9683 3.30446 12.6955C4.06027 13.4513 5.05341 13.9414 6.30376 14.1755C6.44634 14.2022 6.57205 14.224 6.58312 14.224C6.59419 14.224 6.53528 14.1214 6.45221 13.996C5.73758 12.9172 5.23435 11.5001 5.01531 9.94976C4.96099 9.56523 4.91589 9.08562 4.90418 8.768C4.89882 8.6228 4.89086 8.48061 4.8865 8.452L4.87854 8.4L4.66728 8.40218C4.55107 8.40336 4.0816 8.42054 3.624 8.44035ZM11.1135 8.452C11.1091 8.48061 11.1012 8.6228 11.0958 8.768C11.0782 9.24586 11.0046 9.8979 10.9099 10.416C10.6576 11.7958 10.1884 13.0291 9.54779 13.996C9.46472 14.1214 9.40581 14.224 9.41688 14.224C9.42795 14.224 9.55366 14.2022 9.69624 14.1755C10.9466 13.9414 11.9397 13.4513 12.6955 12.6955C13.4338 11.9573 13.9208 10.9881 14.1585 9.784C14.2309 9.41714 14.3038 8.8343 14.304 8.62115L14.304 8.5463L14.22 8.53726C13.9804 8.51149 11.562 8.4 11.2425 8.4H11.1215L11.1135 8.452Z" fill="var(--fill-0, #1D283D)"/>
</g>
<defs>
<clipPath id="clip0_0_14">
<rect width="16" height="16" fill="white"/>
</clipPath>
</defs>
</svg>
