<svg preserveAspectRatio="none" width="100%" height="100%" overflow="visible" style="display: block;" viewBox="0 0 16 16" fill="none" xmlns="http://www.w3.org/2000/svg">
<g id="WhiteBoardClassroomCourse">
<path id="Vector" fill-rule="evenodd" clip-rule="evenodd" d="M6.248 1.62579C5.26053 1.66451 3.57747 1.78218 3.168 1.84112C1.9765 2.01267 0.998784 3.02424 0.78536 4.30629C0.708624 4.7672 0.602448 5.90136 0.557152 6.744C0.53152 7.22101 0.53152 8.77899 0.557152 9.256C0.600928 10.0703 0.717248 11.3234 0.77768 11.632C0.806176 11.7775 0.940832 11.9486 1.07963 12.0158C1.30267 12.1238 1.56392 12.0804 1.73541 11.9068C1.90061 11.7396 1.92704 11.6023 1.8745 11.184C1.80995 10.6701 1.75208 10.0221 1.70874 9.328C1.68118 8.88675 1.68118 7.11325 1.70874 6.672C1.77242 5.65213 1.87981 4.62181 1.9539 4.32C2.10971 3.68523 2.60587 3.15227 3.17541 3.00787C3.42246 2.94523 4.99339 2.82592 6.248 2.7745C7.09642 2.73973 8.90358 2.73973 9.752 2.7745C11.0016 2.82571 12.5761 2.94514 12.8246 3.00757C13.2595 3.11683 13.6706 3.46861 13.9002 3.928C14.0346 4.19701 14.0839 4.42104 14.1591 5.104C14.3831 7.1381 14.375 9.09918 14.1343 11.104C14.0862 11.5052 14.0889 11.6246 14.1491 11.7474C14.3224 12.1006 14.776 12.1844 15.0563 11.9151C15.2078 11.7695 15.2243 11.7071 15.3028 10.984C15.4243 9.86504 15.4624 9.15227 15.4624 8C15.4624 6.84795 15.4244 6.13645 15.3029 5.016C15.2049 4.11229 15.1407 3.84373 14.9165 3.40029C14.4875 2.55184 13.7052 1.96669 12.832 1.84115C12.398 1.77875 10.7264 1.66406 9.66542 1.62389C8.88542 1.59434 7.02381 1.59539 6.248 1.62579ZM9.048 10.5604C8.52608 10.5802 8.15312 10.6065 8.03051 10.6323C7.39013 10.767 6.90712 11.2535 6.79926 11.8724C6.77547 12.0089 6.76944 12.5506 6.78854 12.8343L6.8011 13.0206L6.55654 13.0298C6.42205 13.0348 5.9556 13.0466 5.52 13.056C5.0844 13.0654 4.3104 13.091 3.8 13.1129C2.88478 13.1522 1.10098 13.255 0.992 13.2747C0.831216 13.3038 0.657088 13.4407 0.580656 13.5982C0.543264 13.6752 0.536992 13.7085 0.536544 13.8323C0.536048 13.9638 0.540704 13.9862 0.588688 14.0837C0.65232 14.213 0.768896 14.3217 0.896 14.3703C1.01138 14.4144 1.08587 14.4132 2.04 14.3531C3.97816 14.231 5.87114 14.1742 8 14.1742C10.1289 14.1742 12.0218 14.231 13.96 14.3531C14.9141 14.4132 14.9886 14.4144 15.104 14.3703C15.3811 14.2643 15.5295 13.9552 15.4419 13.6665C15.3829 13.4724 15.1936 13.304 15 13.2735C14.9109 13.2594 13.5049 13.1727 12.8973 13.1438C12.6208 13.1307 12.3916 13.1169 12.3879 13.1132C12.3842 13.1096 12.39 12.984 12.4008 12.8342C12.4284 12.4495 12.4134 11.9389 12.3693 11.7629C12.3034 11.4999 12.1719 11.2726 11.969 11.071C11.6948 10.7988 11.3743 10.6476 10.9889 10.609C10.5476 10.5648 9.57598 10.5404 9.048 10.5604ZM8.896 11.7142C8.22834 11.7444 8.13571 11.7638 8.01685 11.8988C7.92283 12.0056 7.91312 12.0698 7.92646 12.4954C7.93269 12.6937 7.94278 12.892 7.9489 12.936L7.96 13.016L8.944 13.0267C9.4852 13.0326 10.1869 13.0452 10.5033 13.0547C10.8197 13.0642 11.1121 13.072 11.153 13.072H11.2275L11.2463 12.884C11.2566 12.7806 11.2649 12.5533 11.2648 12.3789C11.2645 12.0264 11.2535 11.9759 11.155 11.8774C11.0706 11.7931 10.9831 11.7611 10.7904 11.7441C10.2868 11.6998 9.49267 11.6872 8.896 11.7142Z" fill="var(--fill-0, white)"/>
</g>
</svg>
