<svg preserveAspectRatio="none" width="100%" height="100%" overflow="visible" style="display: block;" viewBox="0 0 143.908 42.0534" fill="none" xmlns="http://www.w3.org/2000/svg">
<g id="Vector">
<path d="M12.4395 22.2941C8.70911 22.2941 5.83055 21.3983 3.80381 19.6065C1.78686 17.805 0.778386 14.9998 0.778386 11.1911C0.778386 8.73359 1.24346 6.67258 2.17361 5.0081C3.10375 3.33384 4.45491 2.08059 6.22709 1.24836C7.99926 0.416118 10.1435 0 12.6598 0C13.6487 0 14.5788 0.0538508 15.4502 0.161552C16.3216 0.269253 17.1979 0.440595 18.0791 0.67558V3.42196C16.3951 2.98136 14.6572 2.76107 12.8654 2.76107C10.0064 2.76107 7.85729 3.43665 6.41801 4.78781C4.98852 6.13897 4.27378 8.25383 4.27378 11.1324C4.27378 14.0893 4.97873 16.2286 6.38864 17.5504C7.80834 18.8722 9.88893 19.5331 12.6304 19.5331C13.5899 19.5331 14.5054 19.4694 15.3768 19.3422C16.2482 19.2149 17.149 19.0044 18.0791 18.7106V21.4717C16.3265 22.02 14.4466 22.2941 12.4395 22.2941Z" fill="currentColor"/>
<path d="M21.0674 22.0151V0.279045H24.3865V9.42875H36.7673V0.279045H40.0864V22.0151H36.7673V12.322H24.3865V22.0151H21.0674Z" fill="currentColor"/>
<path d="M44.8618 22.0151V0.279045H48.181V22.0151H44.8618Z" fill="currentColor"/>
<path d="M69.1651 0.279045H72.308V22.0151H68.9301L56.1087 4.86124V22.0151H52.9658V0.279045H56.3437L69.1651 17.4329V0.279045Z" fill="currentColor"/>
<path d="M86.871 22.2941C84.6876 22.2941 82.7882 21.878 81.1727 21.0458C79.5669 20.2136 78.3235 18.9652 77.4423 17.3007C76.5709 15.6363 76.1352 13.585 76.1352 11.1471C76.1352 8.70911 76.5758 6.65789 77.457 4.99342C78.348 3.32894 79.5963 2.08059 81.202 1.24836C82.8078 0.416118 84.6974 0 86.871 0C89.0642 0 90.9637 0.416118 92.5694 1.24836C94.1751 2.08059 95.4137 3.33384 96.2851 5.0081C97.1663 6.67258 97.6069 8.7189 97.6069 11.1471C97.6069 13.5752 97.1614 15.6216 96.2704 17.286C95.3892 18.9505 94.1458 20.2038 92.54 21.0458C90.9343 21.878 89.0447 22.2941 86.871 22.2941ZM86.871 19.5771C89.1915 19.5771 90.9931 18.8967 92.2757 17.5357C93.5583 16.165 94.1996 14.0648 94.1996 11.2352C94.1996 8.33705 93.5534 6.19282 92.261 4.80249C90.9784 3.41217 89.1817 2.71701 86.871 2.71701C84.5702 2.71701 82.7735 3.40238 81.4811 4.77312C80.1887 6.13407 79.5425 8.22935 79.5425 11.059C79.5425 13.9767 80.1838 16.1258 81.4664 17.5063C82.749 18.8869 84.5506 19.5771 86.871 19.5771Z" fill="currentColor"/>
<path d="M111.182 22.2941C108.998 22.2941 107.099 21.878 105.483 21.0458C103.878 20.2136 102.634 18.9652 101.753 17.3007C100.882 15.6363 100.446 13.585 100.446 11.1471C100.446 8.70911 100.887 6.65789 101.768 4.99342C102.659 3.32894 103.907 2.08059 105.513 1.24836C107.119 0.416118 109.008 0 111.182 0C113.375 0 115.274 0.416118 116.88 1.24836C118.486 2.08059 119.724 3.33384 120.596 5.0081C121.477 6.67258 121.918 8.7189 121.918 11.1471C121.918 13.5752 121.472 15.6216 120.581 17.286C119.7 18.9505 118.457 20.2038 116.851 21.0458C115.245 21.878 113.355 22.2941 111.182 22.2941ZM111.182 19.5771C113.502 19.5771 115.304 18.8967 116.586 17.5357C117.869 16.165 118.51 14.0648 118.51 11.2352C118.51 8.33705 117.864 6.19282 116.572 4.80249C115.289 3.41217 113.493 2.71701 111.182 2.71701C108.881 2.71701 107.084 3.40238 105.792 4.77312C104.499 6.13407 103.853 8.22935 103.853 11.059C103.853 13.9767 104.495 16.1258 105.777 17.5063C107.06 18.8869 108.861 19.5771 111.182 19.5771Z" fill="currentColor"/>
<path d="M140.163 22.0151L132.511 12.322H129.045V22.0151H125.726V0.279045H129.045V9.42875H132.541L139.62 0.279045H143.247L135.096 10.8093L143.908 22.0151H140.163Z" fill="currentColor"/>
<path d="M2.43209 30.6919C3.3407 30.6919 4.12006 30.8564 4.77018 31.1854C5.42031 31.5143 5.91769 31.9882 6.26234 32.607C6.60698 33.2258 6.7793 33.9621 6.7793 34.8159C6.7793 35.6618 6.60698 36.3942 6.26234 37.013C5.91769 37.6239 5.42031 38.0939 4.77018 38.4229C4.12006 38.744 3.3407 38.9046 2.43209 38.9046H0V30.6919H2.43209ZM2.43209 38.2231C3.57568 38.2231 4.44512 37.9255 5.04042 37.3302C5.64354 36.7271 5.94511 35.889 5.94511 34.8159C5.94511 33.7349 5.64354 32.8929 5.04042 32.2898C4.44512 31.6788 3.57568 31.3734 2.43209 31.3734H0.822446V38.2231H2.43209Z" fill="currentColor"/>
<path d="M9.7055 33.6292C9.88566 33.2297 10.1598 32.9203 10.5279 32.701C10.9039 32.4817 11.3621 32.372 11.9026 32.372V33.2297H11.6794C11.0841 33.2297 10.6063 33.3903 10.246 33.7114C9.88566 34.0326 9.7055 34.5691 9.7055 35.3211V38.9046H8.88305V32.4895H9.7055V33.6292Z" fill="currentColor"/>
<path d="M14.1385 31.2794C13.974 31.2794 13.8331 31.2206 13.7156 31.1031C13.5981 30.9856 13.5393 30.8407 13.5393 30.6684C13.5393 30.4961 13.5981 30.3551 13.7156 30.2454C13.8331 30.1279 13.974 30.0692 14.1385 30.0692C14.303 30.0692 14.444 30.1279 14.5615 30.2454C14.679 30.3551 14.7377 30.4961 14.7377 30.6684C14.7377 30.8407 14.679 30.9856 14.5615 31.1031C14.444 31.2206 14.303 31.2794 14.1385 31.2794ZM14.5498 32.4895V38.9046H13.7273V32.4895H14.5498Z" fill="currentColor"/>
<path d="M19.279 38.1057L21.4409 32.4895H22.3103L19.7372 38.9046H18.809L16.236 32.4895H17.1171L19.279 38.1057Z" fill="currentColor"/>
<path d="M24.4237 31.2794C24.2592 31.2794 24.1182 31.2206 24.0007 31.1031C23.8832 30.9856 23.8245 30.8407 23.8245 30.6684C23.8245 30.4961 23.8832 30.3551 24.0007 30.2454C24.1182 30.1279 24.2592 30.0692 24.4237 30.0692C24.5882 30.0692 24.7292 30.1279 24.8467 30.2454C24.9642 30.3551 25.0229 30.4961 25.0229 30.6684C25.0229 30.8407 24.9642 30.9856 24.8467 31.1031C24.7292 31.2206 24.5882 31.2794 24.4237 31.2794ZM24.8349 32.4895V38.9046H24.0125V32.4895H24.8349Z" fill="currentColor"/>
<path d="M30.2926 32.372C31.0602 32.372 31.6869 32.6109 32.1725 33.0887C32.6581 33.5587 32.9009 34.2441 32.9009 35.1449V38.9046H32.0902V35.2388C32.0902 34.5417 31.914 34.0091 31.5615 33.641C31.2169 33.2728 30.743 33.0887 30.1399 33.0887C29.5211 33.0887 29.0276 33.2846 28.6595 33.6762C28.2913 34.0678 28.1073 34.6436 28.1073 35.4033V38.9046H27.2848V32.4895H28.1073V33.5822C28.3109 33.1906 28.6046 32.8929 28.9885 32.6893C29.3723 32.4778 29.807 32.372 30.2926 32.372Z" fill="currentColor"/>
<path d="M37.9979 32.3955C38.601 32.3955 39.1258 32.5365 39.5723 32.8185C40.0188 33.1005 40.3399 33.4569 40.5357 33.8877V32.4895H41.3582V39.0691C41.3582 39.6566 41.2289 40.1774 40.9705 40.6317C40.7198 41.086 40.3673 41.4346 39.913 41.6774C39.4587 41.9281 38.9418 42.0534 38.3621 42.0534C37.5397 42.0534 36.8543 41.8576 36.306 41.4659C35.7656 41.0743 35.4287 40.5417 35.2956 39.868H36.1063C36.2473 40.3145 36.5136 40.6709 36.9052 40.9372C37.3047 41.2035 37.7903 41.3367 38.3621 41.3367C38.7773 41.3367 39.1493 41.2466 39.4783 41.0665C39.8073 40.8941 40.0658 40.6357 40.2538 40.291C40.4417 39.9464 40.5357 39.5391 40.5357 39.0691V37.4829C40.3321 37.9216 40.007 38.2858 39.5605 38.5756C39.1219 38.8576 38.601 38.9986 37.9979 38.9986C37.4104 38.9986 36.8817 38.8615 36.4118 38.5874C35.9496 38.3132 35.5854 37.9255 35.3191 37.4242C35.0606 36.9229 34.9314 36.3433 34.9314 35.6853C34.9314 35.0274 35.0606 34.4516 35.3191 33.9582C35.5854 33.4569 35.9496 33.0731 36.4118 32.8068C36.8817 32.5326 37.4104 32.3955 37.9979 32.3955ZM40.5357 35.6971C40.5357 35.1801 40.43 34.7258 40.2185 34.3342C40.007 33.9425 39.7172 33.641 39.3491 33.4295C38.9888 33.218 38.5893 33.1122 38.1506 33.1122C37.6963 33.1122 37.289 33.2141 36.9287 33.4177C36.5684 33.6214 36.2825 33.919 36.071 34.3107C35.8674 34.6945 35.7656 35.1527 35.7656 35.6853C35.7656 36.2101 35.8674 36.6722 36.071 37.0717C36.2825 37.4634 36.5684 37.7649 36.9287 37.9764C37.289 38.1801 37.6963 38.2819 38.1506 38.2819C38.5893 38.2819 38.9888 38.1762 39.3491 37.9647C39.7172 37.7532 40.007 37.4516 40.2185 37.06C40.43 36.6683 40.5357 36.214 40.5357 35.6971Z" fill="currentColor"/>
<path d="M50.1257 38.9868C49.5852 38.9868 49.1074 38.8929 48.6923 38.7049C48.285 38.5169 47.9638 38.2545 47.7288 37.9177C47.4938 37.5809 47.3685 37.2049 47.3529 36.7897H48.2223C48.2615 37.1892 48.4377 37.5417 48.751 37.8472C49.0643 38.1448 49.5225 38.2936 50.1257 38.2936C50.6818 38.2936 51.1204 38.1527 51.4416 37.8707C51.7706 37.5809 51.9351 37.2166 51.9351 36.778C51.9351 36.4255 51.845 36.1435 51.6648 35.932C51.4847 35.7127 51.2614 35.5522 50.9951 35.4503C50.7288 35.3407 50.3607 35.2232 49.8907 35.0979C49.3424 34.949 48.9077 34.8041 48.5865 34.6631C48.2654 34.5221 47.9912 34.3028 47.7641 34.0052C47.5369 33.7075 47.4234 33.3041 47.4234 32.795C47.4234 32.372 47.533 31.9961 47.7523 31.6671C47.9717 31.3303 48.281 31.0679 48.6805 30.8799C49.08 30.6919 49.5382 30.5979 50.0552 30.5979C50.815 30.5979 51.4259 30.7859 51.8881 31.1619C52.358 31.53 52.6283 32.0078 52.6988 32.5953H51.8058C51.751 32.2585 51.5669 31.9608 51.2536 31.7023C50.9403 31.436 50.5173 31.3029 49.9847 31.3029C49.4912 31.3029 49.08 31.436 48.751 31.7023C48.422 31.9608 48.2575 32.3172 48.2575 32.7715C48.2575 33.1162 48.3476 33.3942 48.5278 33.6057C48.7079 33.8172 48.9312 33.9778 49.1975 34.0874C49.4716 34.1971 49.8398 34.3146 50.3019 34.4399C50.8345 34.5887 51.2653 34.7375 51.5943 34.8864C51.9233 35.0274 52.2014 35.2467 52.4285 35.5443C52.6557 35.842 52.7692 36.2414 52.7692 36.7427C52.7692 37.1266 52.6674 37.4908 52.4638 37.8354C52.2601 38.1801 51.9586 38.4581 51.5591 38.6696C51.1596 38.8811 50.6818 38.9868 50.1257 38.9868Z" fill="currentColor"/>
<path d="M54.57 35.6971C54.57 35.0313 54.7032 34.4516 54.9695 33.9582C55.2358 33.4569 55.6039 33.0731 56.0739 32.8068C56.5439 32.5326 57.0804 32.3955 57.6835 32.3955C58.4746 32.3955 59.1248 32.5914 59.6339 32.983C60.1509 33.3746 60.4838 33.9073 60.6326 34.5809H59.7514C59.6417 34.1188 59.4028 33.7584 59.0347 33.5C58.6744 33.2336 58.224 33.1005 57.6835 33.1005C57.2527 33.1005 56.865 33.1984 56.5204 33.3942C56.1757 33.59 55.9016 33.8838 55.6979 34.2754C55.5021 34.6592 55.4042 35.1331 55.4042 35.6971C55.4042 36.261 55.5021 36.7388 55.6979 37.1305C55.9016 37.5221 56.1757 37.8158 56.5204 38.0117C56.865 38.2075 57.2527 38.3054 57.6835 38.3054C58.224 38.3054 58.6744 38.1761 59.0347 37.9177C59.4028 37.6514 59.6417 37.2832 59.7514 36.8132H60.6326C60.4838 37.4712 60.1509 37.9999 59.6339 38.3994C59.1169 38.7989 58.4668 38.9986 57.6835 38.9986C57.0804 38.9986 56.5439 38.8654 56.0739 38.5991C55.6039 38.325 55.2358 37.9412 54.9695 37.4477C54.7032 36.9464 54.57 36.3629 54.57 35.6971Z" fill="currentColor"/>
<path d="M65.7938 32.372C66.2794 32.372 66.7142 32.4739 67.098 32.6775C67.4896 32.8812 67.7951 33.1945 68.0144 33.6175C68.2416 34.0326 68.3551 34.5417 68.3551 35.1449V38.9046H67.5444V35.2388C67.5444 34.5417 67.3682 34.0091 67.0157 33.641C66.6711 33.2728 66.1972 33.0887 65.5941 33.0887C64.9753 33.0887 64.4818 33.2846 64.1137 33.6762C63.7455 34.0678 63.5615 34.6436 63.5615 35.4033V38.9046H62.739V30.2102H63.5615V33.5822C63.7651 33.1984 64.0628 32.9007 64.4544 32.6893C64.8539 32.4778 65.3003 32.372 65.7938 32.372Z" fill="currentColor"/>
<path d="M73.5696 38.9986C72.9665 38.9986 72.4221 38.8654 71.9365 38.5991C71.4587 38.325 71.0788 37.9412 70.7968 37.4477C70.5226 36.9464 70.3856 36.3629 70.3856 35.6971C70.3856 35.0313 70.5265 34.4516 70.8085 33.9582C71.0905 33.4569 71.4743 33.0731 71.96 32.8068C72.4456 32.5326 72.99 32.3955 73.5931 32.3955C74.1962 32.3955 74.7406 32.5326 75.2262 32.8068C75.7197 33.0731 76.1035 33.4569 76.3777 33.9582C76.6596 34.4516 76.8006 35.0313 76.8006 35.6971C76.8006 36.355 76.6596 36.9346 76.3777 37.4359C76.0957 37.9372 75.708 38.325 75.2145 38.5991C74.721 38.8654 74.1727 38.9986 73.5696 38.9986ZM73.5696 38.2819C73.9926 38.2819 74.3842 38.1879 74.7445 37.9999C75.1048 37.8041 75.3946 37.5143 75.614 37.1305C75.8411 36.7388 75.9547 36.261 75.9547 35.6971C75.9547 35.1331 75.845 34.6592 75.6257 34.2754C75.4064 33.8838 75.1166 33.594 74.7563 33.406C74.396 33.2101 74.0043 33.1122 73.5813 33.1122C73.1584 33.1122 72.7667 33.2101 72.4064 33.406C72.0461 33.594 71.7563 33.8838 71.537 34.2754C71.3255 34.6592 71.2197 35.1331 71.2197 35.6971C71.2197 36.261 71.3255 36.7388 71.537 37.1305C71.7563 37.5143 72.0422 37.8041 72.3947 37.9999C72.755 38.1879 73.1466 38.2819 73.5696 38.2819Z" fill="currentColor"/>
<path d="M81.6954 38.9986C81.0922 38.9986 80.5479 38.8654 80.0622 38.5991C79.5844 38.325 79.2045 37.9412 78.9226 37.4477C78.6484 36.9464 78.5113 36.3629 78.5113 35.6971C78.5113 35.0313 78.6523 34.4516 78.9343 33.9582C79.2163 33.4569 79.6001 33.0731 80.0857 32.8068C80.5714 32.5326 81.1157 32.3955 81.7189 32.3955C82.322 32.3955 82.8664 32.5326 83.352 32.8068C83.8455 33.0731 84.2293 33.4569 84.5034 33.9582C84.7854 34.4516 84.9264 35.0313 84.9264 35.6971C84.9264 36.355 84.7854 36.9346 84.5034 37.4359C84.2215 37.9372 83.8337 38.325 83.3403 38.5991C82.8468 38.8654 82.2985 38.9986 81.6954 38.9986ZM81.6954 38.2819C82.1183 38.2819 82.51 38.1879 82.8703 37.9999C83.2306 37.8041 83.5204 37.5143 83.7397 37.1305C83.9669 36.7388 84.0805 36.261 84.0805 35.6971C84.0805 35.1331 83.9708 34.6592 83.7515 34.2754C83.5322 33.8838 83.2424 33.594 82.882 33.406C82.5217 33.2101 82.1301 33.1122 81.7071 33.1122C81.2842 33.1122 80.8925 33.2101 80.5322 33.406C80.1719 33.594 79.8821 33.8838 79.6628 34.2754C79.4513 34.6592 79.3455 35.1331 79.3455 35.6971C79.3455 36.261 79.4513 36.7388 79.6628 37.1305C79.8821 37.5143 80.168 37.8041 80.5204 37.9999C80.8808 38.1879 81.2724 38.2819 81.6954 38.2819Z" fill="currentColor"/>
<path d="M87.8355 30.2102V38.9046H87.0131V30.2102H87.8355Z" fill="currentColor"/>
<path d="M93.7211 34.7924C93.7211 33.9856 93.8973 33.265 94.2498 32.6305C94.6023 31.9882 95.084 31.4908 95.6949 31.1384C96.3059 30.7781 96.9874 30.5979 97.7393 30.5979C98.6558 30.5979 99.439 30.8172 100.089 31.2559C100.747 31.6867 101.225 32.2976 101.523 33.0887H100.559C100.324 32.5326 99.9638 32.0979 99.4782 31.7846C99.0004 31.4713 98.4208 31.3146 97.7393 31.3146C97.1362 31.3146 96.5918 31.4556 96.1062 31.7376C95.6284 32.0196 95.2524 32.4269 94.9782 32.9595C94.7041 33.4843 94.567 34.0953 94.567 34.7924C94.567 35.4895 94.7041 36.1005 94.9782 36.6253C95.2524 37.1501 95.6284 37.5534 96.1062 37.8354C96.5918 38.1174 97.1362 38.2584 97.7393 38.2584C98.4208 38.2584 99.0004 38.1057 99.4782 37.8002C99.9638 37.4869 100.324 37.0561 100.559 36.5078H101.523C101.225 37.291 100.747 37.8981 100.089 38.3289C99.4312 38.7597 98.6479 38.9751 97.7393 38.9751C96.9874 38.9751 96.3059 38.7989 95.6949 38.4464C95.084 38.0861 94.6023 37.5887 94.2498 36.9542C93.8973 36.3198 93.7211 35.5992 93.7211 34.7924Z" fill="currentColor"/>
<path d="M103.373 35.6853C103.373 35.0274 103.502 34.4516 103.761 33.9582C104.027 33.4569 104.391 33.0731 104.853 32.8068C105.323 32.5326 105.852 32.3955 106.439 32.3955C107.05 32.3955 107.575 32.5365 108.014 32.8185C108.46 33.1005 108.781 33.4608 108.977 33.8994V32.4895H109.8V38.9046H108.977V37.4829C108.774 37.9216 108.449 38.2858 108.002 38.5756C107.563 38.8576 107.039 38.9986 106.428 38.9986C105.848 38.9986 105.323 38.8615 104.853 38.5874C104.391 38.3132 104.027 37.9255 103.761 37.4242C103.502 36.9229 103.373 36.3433 103.373 35.6853ZM108.977 35.6971C108.977 35.1801 108.872 34.7258 108.66 34.3342C108.449 33.9425 108.159 33.641 107.791 33.4295C107.43 33.218 107.031 33.1122 106.592 33.1122C106.138 33.1122 105.731 33.2141 105.37 33.4177C105.01 33.6214 104.724 33.919 104.513 34.3107C104.309 34.6945 104.207 35.1527 104.207 35.6853C104.207 36.2101 104.309 36.6722 104.513 37.0717C104.724 37.4634 105.01 37.7649 105.37 37.9764C105.731 38.1801 106.138 38.2819 106.592 38.2819C107.031 38.2819 107.43 38.1762 107.791 37.9647C108.159 37.7532 108.449 37.4516 108.66 37.06C108.872 36.6683 108.977 36.214 108.977 35.6971Z" fill="currentColor"/>
<path d="M113.087 30.2102V38.9046H112.265V30.2102H113.087Z" fill="currentColor"/>
<path d="M118.228 32.3955C118.831 32.3955 119.356 32.5365 119.802 32.8185C120.249 33.1005 120.57 33.4569 120.765 33.8877V32.4895H121.588V39.0691C121.588 39.6566 121.459 40.1774 121.2 40.6317C120.95 41.086 120.597 41.4346 120.143 41.6774C119.688 41.9281 119.172 42.0534 118.592 42.0534C117.769 42.0534 117.084 41.8576 116.536 41.4659C115.995 41.0743 115.658 40.5417 115.525 39.868H116.336C116.477 40.3145 116.743 40.6709 117.135 40.9372C117.534 41.2035 118.02 41.3367 118.592 41.3367C119.007 41.3367 119.379 41.2466 119.708 41.0665C120.037 40.8941 120.296 40.6357 120.484 40.291C120.671 39.9464 120.765 39.5391 120.765 39.0691V37.4829C120.562 37.9216 120.237 38.2858 119.79 38.5756C119.352 38.8576 118.831 38.9986 118.228 38.9986C117.64 38.9986 117.111 38.8615 116.642 38.5874C116.179 38.3132 115.815 37.9255 115.549 37.4242C115.29 36.9229 115.161 36.3433 115.161 35.6853C115.161 35.0274 115.29 34.4516 115.549 33.9582C115.815 33.4569 116.179 33.0731 116.642 32.8068C117.111 32.5326 117.64 32.3955 118.228 32.3955ZM120.765 35.6971C120.765 35.1801 120.66 34.7258 120.448 34.3342C120.237 33.9425 119.947 33.641 119.579 33.4295C119.218 33.218 118.819 33.1122 118.38 33.1122C117.926 33.1122 117.519 33.2141 117.158 33.4177C116.798 33.6214 116.512 33.919 116.301 34.3107C116.097 34.6945 115.995 35.1527 115.995 35.6853C115.995 36.2101 116.097 36.6722 116.301 37.0717C116.512 37.4634 116.798 37.7649 117.158 37.9764C117.519 38.1801 117.926 38.2819 118.38 38.2819C118.819 38.2819 119.218 38.1762 119.579 37.9647C119.947 37.7532 120.237 37.4516 120.448 37.06C120.66 36.6683 120.765 36.214 120.765 35.6971Z" fill="currentColor"/>
<path d="M123.677 35.6853C123.677 35.0274 123.806 34.4516 124.065 33.9582C124.331 33.4569 124.695 33.0731 125.157 32.8068C125.627 32.5326 126.156 32.3955 126.744 32.3955C127.355 32.3955 127.879 32.5365 128.318 32.8185C128.764 33.1005 129.086 33.4608 129.281 33.8994V32.4895H130.104V38.9046H129.281V37.4829C129.078 37.9216 128.753 38.2858 128.306 38.5756C127.868 38.8576 127.343 38.9986 126.732 38.9986C126.152 38.9986 125.627 38.8615 125.157 38.5874C124.695 38.3132 124.331 37.9255 124.065 37.4242C123.806 36.9229 123.677 36.3433 123.677 35.6853ZM129.281 35.6971C129.281 35.1801 129.176 34.7258 128.964 34.3342C128.753 33.9425 128.463 33.641 128.095 33.4295C127.734 33.218 127.335 33.1122 126.896 33.1122C126.442 33.1122 126.035 33.2141 125.674 33.4177C125.314 33.6214 125.028 33.919 124.817 34.3107C124.613 34.6945 124.511 35.1527 124.511 35.6853C124.511 36.2101 124.613 36.6722 124.817 37.0717C125.028 37.4634 125.314 37.7649 125.674 37.9764C126.035 38.1801 126.442 38.2819 126.896 38.2819C127.335 38.2819 127.734 38.1762 128.095 37.9647C128.463 37.7532 128.753 37.4516 128.964 37.06C129.176 36.6683 129.281 36.214 129.281 35.6971Z" fill="currentColor"/>
<path d="M133.391 33.6292C133.571 33.2297 133.846 32.9203 134.214 32.701C134.59 32.4817 135.048 32.372 135.588 32.372V33.2297H135.365C134.77 33.2297 134.292 33.3903 133.932 33.7114C133.571 34.0326 133.391 34.5691 133.391 35.3211V38.9046H132.569V32.4895H133.391V33.6292Z" fill="currentColor"/>
<path d="M142.7 32.4895L138.894 41.9242H138.036L139.281 38.8694L136.649 32.4895H137.554L139.739 37.9647L141.854 32.4895H142.7Z" fill="currentColor"/>
</g>
</svg>
