<svg width="22" height="21" viewBox="0 0 22 21" fill="none" xmlns="http://www.w3.org/2000/svg">
  <path d="M10.5362 0.248141C10.7291 -0.0829921 11.2074 -0.0829918 11.4003 0.248142L14.7368 5.97644C14.8074 6.09774 14.9258 6.18376 15.063 6.21347L21.5419 7.61646C21.9165 7.69756 22.0643 8.15253 21.809 8.43828L17.392 13.3816C17.2985 13.4862 17.2533 13.6254 17.2674 13.7651L17.9352 20.3605C17.9738 20.7417 17.5868 21.0229 17.2361 20.8684L11.1699 18.1952C11.0414 18.1386 10.8951 18.1386 10.7666 18.1952L4.7004 20.8684C4.34973 21.0229 3.96271 20.7417 4.00131 20.3605L4.66909 13.7651C4.68323 13.6254 4.63801 13.4862 4.54448 13.3816L0.127559 8.43828C-0.127768 8.15253 0.0200585 7.69756 0.394585 7.61646L6.87354 6.21347C7.01073 6.18376 7.12912 6.09774 7.19977 5.97644L10.5362 0.248141Z" fill="currentColor"/>
</svg>
