<svg preserveAspectRatio="none" width="100%" height="100%" overflow="visible" style="display: block;" viewBox="0 0 136 24" fill="none" xmlns="http://www.w3.org/2000/svg">
<g id="rating-wrap">
<path id="Star 6" d="M11.5679 0.741794C11.7608 0.41066 12.2392 0.410661 12.4321 0.741794L15.7685 6.4701C15.8391 6.5914 15.9575 6.67741 16.0947 6.70712L22.5737 8.11011C22.9482 8.19122 23.096 8.64618 22.8407 8.93193L18.4238 13.8752C18.3302 13.9799 18.285 14.1191 18.2992 14.2587L18.9669 20.8541C19.0056 21.2354 18.6185 21.5166 18.2679 21.362L12.2016 18.6888C12.0732 18.6322 11.9268 18.6322 11.7984 18.6888L5.73213 21.362C5.38146 21.5166 4.99445 21.2354 5.03305 20.8541L5.70083 14.2587C5.71497 14.1191 5.66975 13.9799 5.57622 13.8752L1.1593 8.93193C0.90397 8.64618 1.0518 8.19122 1.42632 8.11011L7.90527 6.70712C8.04247 6.67741 8.16086 6.5914 8.23151 6.4701L11.5679 0.741794Z" fill="var(--fill-0, #F0B100)"/>
<path id="Star 7" d="M39.5679 0.741794C39.7608 0.41066 40.2392 0.410661 40.4321 0.741794L43.7685 6.4701C43.8391 6.5914 43.9575 6.67741 44.0947 6.70712L50.5737 8.11011C50.9482 8.19122 51.096 8.64618 50.8407 8.93193L46.4238 13.8752C46.3302 13.9799 46.285 14.1191 46.2992 14.2587L46.9669 20.8541C47.0056 21.2354 46.6185 21.5166 46.2679 21.362L40.2016 18.6888C40.0732 18.6322 39.9268 18.6322 39.7984 18.6888L33.7321 21.362C33.3815 21.5166 32.9945 21.2354 33.0331 20.8541L33.7008 14.2587C33.715 14.1191 33.6698 13.9799 33.5762 13.8752L29.1593 8.93193C28.904 8.64618 29.0518 8.19122 29.4263 8.11011L35.9053 6.70712C36.0425 6.67741 36.1609 6.5914 36.2315 6.4701L39.5679 0.741794Z" fill="var(--fill-0, #F0B100)"/>
<path id="Star 8" d="M67.5679 0.741794C67.7608 0.41066 68.2392 0.410661 68.4321 0.741794L71.7685 6.4701C71.8391 6.5914 71.9575 6.67741 72.0947 6.70712L78.5737 8.11011C78.9482 8.19122 79.096 8.64618 78.8407 8.93193L74.4238 13.8752C74.3302 13.9799 74.285 14.1191 74.2992 14.2587L74.9669 20.8541C75.0056 21.2354 74.6185 21.5166 74.2679 21.362L68.2016 18.6888C68.0732 18.6322 67.9268 18.6322 67.7984 18.6888L61.7321 21.362C61.3815 21.5166 60.9945 21.2354 61.0331 20.8541L61.7008 14.2587C61.715 14.1191 61.6698 13.9799 61.5762 13.8752L57.1593 8.93193C56.904 8.64618 57.0518 8.19122 57.4263 8.11011L63.9053 6.70712C64.0425 6.67741 64.1609 6.5914 64.2315 6.4701L67.5679 0.741794Z" fill="var(--fill-0, #F0B100)"/>
<path id="Star 9" d="M95.5679 0.741794C95.7608 0.41066 96.2392 0.410661 96.4321 0.741794L99.7685 6.4701C99.8391 6.5914 99.9575 6.67741 100.095 6.70712L106.574 8.11011C106.948 8.19122 107.096 8.64618 106.841 8.93193L102.424 13.8752C102.33 13.9799 102.285 14.1191 102.299 14.2587L102.967 20.8541C103.006 21.2354 102.619 21.5166 102.268 21.362L96.2016 18.6888C96.0732 18.6322 95.9268 18.6322 95.7984 18.6888L89.7321 21.362C89.3815 21.5166 88.9945 21.2354 89.0331 20.8541L89.7008 14.2587C89.715 14.1191 89.6698 13.9799 89.5762 13.8752L85.1593 8.93193C84.904 8.64618 85.0518 8.19122 85.4263 8.11011L91.9053 6.70712C92.0425 6.67741 92.1609 6.5914 92.2315 6.4701L95.5679 0.741794Z" fill="var(--fill-0, #F0B100)"/>
<path id="Star 10" d="M123.568 0.741794C123.761 0.41066 124.239 0.410661 124.432 0.741794L127.768 6.4701C127.839 6.5914 127.958 6.67741 128.095 6.70712L134.574 8.11011C134.948 8.19122 135.096 8.64618 134.841 8.93193L130.424 13.8752C130.33 13.9799 130.285 14.1191 130.299 14.2587L130.967 20.8541C131.006 21.2354 130.619 21.5166 130.268 21.362L124.202 18.6888C124.073 18.6322 123.927 18.6322 123.798 18.6888L117.732 21.362C117.381 21.5166 116.994 21.2354 117.033 20.8541L117.701 14.2587C117.715 14.1191 117.67 13.9799 117.576 13.8752L113.159 8.93193C112.904 8.64618 113.052 8.19122 113.426 8.11011L119.905 6.70712C120.042 6.67741 120.161 6.5914 120.232 6.4701L123.568 0.741794Z" fill="var(--fill-0, #CAD5E2)"/>
</g>
</svg>
